<?xml version="1.0" encoding="utf-8" standalone="no"?>
<!DOCTYPE svg PUBLIC "-//W3C//DTD SVG 1.1//EN"
  "http://www.w3.org/Graphics/SVG/1.1/DTD/svg11.dtd">
<svg xmlns:xlink="http://www.w3.org/1999/xlink" width="720pt" height="720pt" viewBox="0 0 720 720" xmlns="http://www.w3.org/2000/svg" version="1.1">
 <metadata>
  <rdf:RDF xmlns:dc="http://purl.org/dc/elements/1.1/" xmlns:cc="http://creativecommons.org/ns#" xmlns:rdf="http://www.w3.org/1999/02/22-rdf-syntax-ns#">
   <cc:Work>
    <dc:type rdf:resource="http://purl.org/dc/dcmitype/StillImage"/>
    <dc:date>2023-11-25T19:48:00.917618</dc:date>
    <dc:format>image/svg+xml</dc:format>
    <dc:creator>
     <cc:Agent>
      <dc:title>Matplotlib v3.8.0, https://matplotlib.org/</dc:title>
     </cc:Agent>
    </dc:creator>
   </cc:Work>
  </rdf:RDF>
 </metadata>
 <defs>
  <style type="text/css">*{stroke-linejoin: round; stroke-linecap: butt}</style>
 </defs>
 <g id="figure_1">
  <g id="patch_1">
   <path d="M 0 720 
L 720 720 
L 720 0 
L 0 0 
z
" style="fill: #ffffff"/>
  </g>
  <g id="axes_1">
   <g id="patch_2">
    <path d="M 90 640.8 
L 648 640.8 
L 648 86.4 
L 90 86.4 
z
" style="fill: #ffffff"/>
   </g>
   <g id="PathCollection_1">
    <defs>
     <path id="m05da714509" d="M 0 3 
C 0.795609 3 1.55874 2.683901 2.12132 2.12132 
C 2.683901 1.55874 3 0.795609 3 0 
C 3 -0.795609 2.683901 -1.55874 2.12132 -2.12132 
C 1.55874 -2.683901 0.795609 -3 0 -3 
C -0.795609 -3 -1.55874 -2.683901 -2.12132 -2.12132 
C -2.683901 -1.55874 -3 -0.795609 -3 0 
C -3 0.795609 -2.683901 1.55874 -2.12132 2.12132 
C -1.55874 2.683901 -0.795609 3 0 3 
z
" style="stroke: #1f77b4"/>
    </defs>
    <g clip-path="url(#p83282657dc)">
     <use xlink:href="#m05da714509" x="115.363636" y="425.814383" style="fill: #1f77b4; stroke: #1f77b4"/>
     <use xlink:href="#m05da714509" x="121.867133" y="424.40394" style="fill: #1f77b4; stroke: #1f77b4"/>
     <use xlink:href="#m05da714509" x="128.370629" y="420.516573" style="fill: #1f77b4; stroke: #1f77b4"/>
     <use xlink:href="#m05da714509" x="134.874126" y="410.740007" style="fill: #1f77b4; stroke: #1f77b4"/>
     <use xlink:href="#m05da714509" x="141.377622" y="412.864013" style="fill: #1f77b4; stroke: #1f77b4"/>
     <use xlink:href="#m05da714509" x="147.881119" y="408.468977" style="fill: #1f77b4; stroke: #1f77b4"/>
     <use xlink:href="#m05da714509" x="154.384615" y="397.716647" style="fill: #1f77b4; stroke: #1f77b4"/>
     <use xlink:href="#m05da714509" x="160.888112" y="392.071439" style="fill: #1f77b4; stroke: #1f77b4"/>
     <use xlink:href="#m05da714509" x="167.391608" y="379.667267" style="fill: #1f77b4; stroke: #1f77b4"/>
     <use xlink:href="#m05da714509" x="173.895105" y="366.999853" style="fill: #1f77b4; stroke: #1f77b4"/>
     <use xlink:href="#m05da714509" x="180.398601" y="352.546168" style="fill: #1f77b4; stroke: #1f77b4"/>
     <use xlink:href="#m05da714509" x="186.902098" y="328.260363" style="fill: #1f77b4; stroke: #1f77b4"/>
     <use xlink:href="#m05da714509" x="193.405594" y="302.42225" style="fill: #1f77b4; stroke: #1f77b4"/>
     <use xlink:href="#m05da714509" x="199.909091" y="277.14208" style="fill: #1f77b4; stroke: #1f77b4"/>
     <use xlink:href="#m05da714509" x="206.412587" y="242.507672" style="fill: #1f77b4; stroke: #1f77b4"/>
     <use xlink:href="#m05da714509" x="212.916084" y="205.236115" style="fill: #1f77b4; stroke: #1f77b4"/>
     <use xlink:href="#m05da714509" x="219.41958" y="167.79281" style="fill: #1f77b4; stroke: #1f77b4"/>
     <use xlink:href="#m05da714509" x="225.923077" y="139.566818" style="fill: #1f77b4; stroke: #1f77b4"/>
     <use xlink:href="#m05da714509" x="232.426573" y="120.891614" style="fill: #1f77b4; stroke: #1f77b4"/>
     <use xlink:href="#m05da714509" x="238.93007" y="128.910316" style="fill: #1f77b4; stroke: #1f77b4"/>
     <use xlink:href="#m05da714509" x="245.433566" y="154.62802" style="fill: #1f77b4; stroke: #1f77b4"/>
     <use xlink:href="#m05da714509" x="251.937063" y="191.186714" style="fill: #1f77b4; stroke: #1f77b4"/>
     <use xlink:href="#m05da714509" x="258.440559" y="240.027017" style="fill: #1f77b4; stroke: #1f77b4"/>
     <use xlink:href="#m05da714509" x="264.944056" y="294.581352" style="fill: #1f77b4; stroke: #1f77b4"/>
     <use xlink:href="#m05da714509" x="271.447552" y="368.254626" style="fill: #1f77b4; stroke: #1f77b4"/>
     <use xlink:href="#m05da714509" x="277.951049" y="409.214557" style="fill: #1f77b4; stroke: #1f77b4"/>
     <use xlink:href="#m05da714509" x="284.454545" y="433.199062" style="fill: #1f77b4; stroke: #1f77b4"/>
     <use xlink:href="#m05da714509" x="290.958042" y="447.095155" style="fill: #1f77b4; stroke: #1f77b4"/>
     <use xlink:href="#m05da714509" x="297.461538" y="456.785918" style="fill: #1f77b4; stroke: #1f77b4"/>
     <use xlink:href="#m05da714509" x="303.965035" y="466.137324" style="fill: #1f77b4; stroke: #1f77b4"/>
     <use xlink:href="#m05da714509" x="310.468531" y="476.144197" style="fill: #1f77b4; stroke: #1f77b4"/>
     <use xlink:href="#m05da714509" x="316.972028" y="489.731373" style="fill: #1f77b4; stroke: #1f77b4"/>
     <use xlink:href="#m05da714509" x="323.475524" y="506.52759" style="fill: #1f77b4; stroke: #1f77b4"/>
     <use xlink:href="#m05da714509" x="329.979021" y="532.955843" style="fill: #1f77b4; stroke: #1f77b4"/>
     <use xlink:href="#m05da714509" x="336.482517" y="537.364235" style="fill: #1f77b4; stroke: #1f77b4"/>
     <use xlink:href="#m05da714509" x="342.986014" y="537.757622" style="fill: #1f77b4; stroke: #1f77b4"/>
     <use xlink:href="#m05da714509" x="349.48951" y="537.418494" style="fill: #1f77b4; stroke: #1f77b4"/>
     <use xlink:href="#m05da714509" x="355.993007" y="538.09618" style="fill: #1f77b4; stroke: #1f77b4"/>
     <use xlink:href="#m05da714509" x="362.496503" y="541.454786" style="fill: #1f77b4; stroke: #1f77b4"/>
     <use xlink:href="#m05da714509" x="369" y="547.745489" style="fill: #1f77b4; stroke: #1f77b4"/>
     <use xlink:href="#m05da714509" x="375.503497" y="554.535385" style="fill: #1f77b4; stroke: #1f77b4"/>
     <use xlink:href="#m05da714509" x="382.006993" y="563.986033" style="fill: #1f77b4; stroke: #1f77b4"/>
     <use xlink:href="#m05da714509" x="388.51049" y="571.265839" style="fill: #1f77b4; stroke: #1f77b4"/>
     <use xlink:href="#m05da714509" x="395.013986" y="569.052786" style="fill: #1f77b4; stroke: #1f77b4"/>
     <use xlink:href="#m05da714509" x="401.517483" y="567.478192" style="fill: #1f77b4; stroke: #1f77b4"/>
     <use xlink:href="#m05da714509" x="408.020979" y="566.364279" style="fill: #1f77b4; stroke: #1f77b4"/>
     <use xlink:href="#m05da714509" x="414.524476" y="568.017506" style="fill: #1f77b4; stroke: #1f77b4"/>
     <use xlink:href="#m05da714509" x="421.027972" y="571.082302" style="fill: #1f77b4; stroke: #1f77b4"/>
     <use xlink:href="#m05da714509" x="427.531469" y="575.885049" style="fill: #1f77b4; stroke: #1f77b4"/>
     <use xlink:href="#m05da714509" x="434.034965" y="581.70883" style="fill: #1f77b4; stroke: #1f77b4"/>
     <use xlink:href="#m05da714509" x="440.538462" y="585.497288" style="fill: #1f77b4; stroke: #1f77b4"/>
     <use xlink:href="#m05da714509" x="447.041958" y="584.12385" style="fill: #1f77b4; stroke: #1f77b4"/>
     <use xlink:href="#m05da714509" x="453.545455" y="581.368089" style="fill: #1f77b4; stroke: #1f77b4"/>
     <use xlink:href="#m05da714509" x="460.048951" y="581.891604" style="fill: #1f77b4; stroke: #1f77b4"/>
     <use xlink:href="#m05da714509" x="466.552448" y="581.769664" style="fill: #1f77b4; stroke: #1f77b4"/>
     <use xlink:href="#m05da714509" x="473.055944" y="583.76022" style="fill: #1f77b4; stroke: #1f77b4"/>
     <use xlink:href="#m05da714509" x="479.559441" y="587.688004" style="fill: #1f77b4; stroke: #1f77b4"/>
     <use xlink:href="#m05da714509" x="486.062937" y="592.022657" style="fill: #1f77b4; stroke: #1f77b4"/>
     <use xlink:href="#m05da714509" x="492.566434" y="596.746056" style="fill: #1f77b4; stroke: #1f77b4"/>
     <use xlink:href="#m05da714509" x="499.06993" y="591.412313" style="fill: #1f77b4; stroke: #1f77b4"/>
     <use xlink:href="#m05da714509" x="505.573427" y="591.000976" style="fill: #1f77b4; stroke: #1f77b4"/>
     <use xlink:href="#m05da714509" x="512.076923" y="589.760476" style="fill: #1f77b4; stroke: #1f77b4"/>
     <use xlink:href="#m05da714509" x="518.58042" y="589.972465" style="fill: #1f77b4; stroke: #1f77b4"/>
     <use xlink:href="#m05da714509" x="525.083916" y="591.467641" style="fill: #1f77b4; stroke: #1f77b4"/>
     <use xlink:href="#m05da714509" x="531.587413" y="594.029742" style="fill: #1f77b4; stroke: #1f77b4"/>
     <use xlink:href="#m05da714509" x="538.090909" y="597.465272" style="fill: #1f77b4; stroke: #1f77b4"/>
     <use xlink:href="#m05da714509" x="544.594406" y="601.59959" style="fill: #1f77b4; stroke: #1f77b4"/>
     <use xlink:href="#m05da714509" x="551.097902" y="596.717815" style="fill: #1f77b4; stroke: #1f77b4"/>
     <use xlink:href="#m05da714509" x="557.601399" y="595.370393" style="fill: #1f77b4; stroke: #1f77b4"/>
     <use xlink:href="#m05da714509" x="564.104895" y="594.930818" style="fill: #1f77b4; stroke: #1f77b4"/>
     <use xlink:href="#m05da714509" x="570.608392" y="595.334542" style="fill: #1f77b4; stroke: #1f77b4"/>
     <use xlink:href="#m05da714509" x="577.111888" y="596.527997" style="fill: #1f77b4; stroke: #1f77b4"/>
     <use xlink:href="#m05da714509" x="583.615385" y="598.464279" style="fill: #1f77b4; stroke: #1f77b4"/>
     <use xlink:href="#m05da714509" x="590.118881" y="601.096005" style="fill: #1f77b4; stroke: #1f77b4"/>
     <use xlink:href="#m05da714509" x="596.622378" y="604.369624" style="fill: #1f77b4; stroke: #1f77b4"/>
     <use xlink:href="#m05da714509" x="603.125874" y="602.856876" style="fill: #1f77b4; stroke: #1f77b4"/>
     <use xlink:href="#m05da714509" x="609.629371" y="599.068744" style="fill: #1f77b4; stroke: #1f77b4"/>
     <use xlink:href="#m05da714509" x="616.132867" y="598.762888" style="fill: #1f77b4; stroke: #1f77b4"/>
     <use xlink:href="#m05da714509" x="622.636364" y="599.07122" style="fill: #1f77b4; stroke: #1f77b4"/>
    </g>
   </g>
   <g id="matplotlib.axis_1">
    <g id="xtick_1">
     <g id="line2d_1">
      <defs>
       <path id="m9041fe6057" d="M 0 0 
L 0 3.5 
" style="stroke: #000000; stroke-width: 0.8"/>
      </defs>
      <g>
       <use xlink:href="#m9041fe6057" x="108.86014" y="640.8" style="stroke: #000000; stroke-width: 0.8"/>
      </g>
     </g>
     <g id="text_1">
      <!-- 0.0 -->
      <g transform="translate(100.908577 655.398438) scale(0.1 -0.1)">
       <defs>
        <path id="DejaVuSans-30" d="M 2034 4250 
Q 1547 4250 1301 3770 
Q 1056 3291 1056 2328 
Q 1056 1369 1301 889 
Q 1547 409 2034 409 
Q 2525 409 2770 889 
Q 3016 1369 3016 2328 
Q 3016 3291 2770 3770 
Q 2525 4250 2034 4250 
z
M 2034 4750 
Q 2819 4750 3233 4129 
Q 3647 3509 3647 2328 
Q 3647 1150 3233 529 
Q 2819 -91 2034 -91 
Q 1250 -91 836 529 
Q 422 1150 422 2328 
Q 422 3509 836 4129 
Q 1250 4750 2034 4750 
z
" transform="scale(0.015625)"/>
        <path id="DejaVuSans-2e" d="M 684 794 
L 1344 794 
L 1344 0 
L 684 0 
L 684 794 
z
" transform="scale(0.015625)"/>
       </defs>
       <use xlink:href="#DejaVuSans-30"/>
       <use xlink:href="#DejaVuSans-2e" x="63.623047"/>
       <use xlink:href="#DejaVuSans-30" x="95.410156"/>
      </g>
     </g>
    </g>
    <g id="xtick_2">
     <g id="line2d_2">
      <g>
       <use xlink:href="#m9041fe6057" x="173.895105" y="640.8" style="stroke: #000000; stroke-width: 0.8"/>
      </g>
     </g>
     <g id="text_2">
      <!-- 0.5 -->
      <g transform="translate(165.943542 655.398438) scale(0.1 -0.1)">
       <defs>
        <path id="DejaVuSans-35" d="M 691 4666 
L 3169 4666 
L 3169 4134 
L 1269 4134 
L 1269 2991 
Q 1406 3038 1543 3061 
Q 1681 3084 1819 3084 
Q 2600 3084 3056 2656 
Q 3513 2228 3513 1497 
Q 3513 744 3044 326 
Q 2575 -91 1722 -91 
Q 1428 -91 1123 -41 
Q 819 9 494 109 
L 494 744 
Q 775 591 1075 516 
Q 1375 441 1709 441 
Q 2250 441 2565 725 
Q 2881 1009 2881 1497 
Q 2881 1984 2565 2268 
Q 2250 2553 1709 2553 
Q 1456 2553 1204 2497 
Q 953 2441 691 2322 
L 691 4666 
z
" transform="scale(0.015625)"/>
       </defs>
       <use xlink:href="#DejaVuSans-30"/>
       <use xlink:href="#DejaVuSans-2e" x="63.623047"/>
       <use xlink:href="#DejaVuSans-35" x="95.410156"/>
      </g>
     </g>
    </g>
    <g id="xtick_3">
     <g id="line2d_3">
      <g>
       <use xlink:href="#m9041fe6057" x="238.93007" y="640.8" style="stroke: #000000; stroke-width: 0.8"/>
      </g>
     </g>
     <g id="text_3">
      <!-- 1.0 -->
      <g transform="translate(230.978507 655.398438) scale(0.1 -0.1)">
       <defs>
        <path id="DejaVuSans-31" d="M 794 531 
L 1825 531 
L 1825 4091 
L 703 3866 
L 703 4441 
L 1819 4666 
L 2450 4666 
L 2450 531 
L 3481 531 
L 3481 0 
L 794 0 
L 794 531 
z
" transform="scale(0.015625)"/>
       </defs>
       <use xlink:href="#DejaVuSans-31"/>
       <use xlink:href="#DejaVuSans-2e" x="63.623047"/>
       <use xlink:href="#DejaVuSans-30" x="95.410156"/>
      </g>
     </g>
    </g>
    <g id="xtick_4">
     <g id="line2d_4">
      <g>
       <use xlink:href="#m9041fe6057" x="303.965035" y="640.8" style="stroke: #000000; stroke-width: 0.8"/>
      </g>
     </g>
     <g id="text_4">
      <!-- 1.5 -->
      <g transform="translate(296.013472 655.398438) scale(0.1 -0.1)">
       <use xlink:href="#DejaVuSans-31"/>
       <use xlink:href="#DejaVuSans-2e" x="63.623047"/>
       <use xlink:href="#DejaVuSans-35" x="95.410156"/>
      </g>
     </g>
    </g>
    <g id="xtick_5">
     <g id="line2d_5">
      <g>
       <use xlink:href="#m9041fe6057" x="369" y="640.8" style="stroke: #000000; stroke-width: 0.8"/>
      </g>
     </g>
     <g id="text_5">
      <!-- 2.0 -->
      <g transform="translate(361.048437 655.398438) scale(0.1 -0.1)">
       <defs>
        <path id="DejaVuSans-32" d="M 1228 531 
L 3431 531 
L 3431 0 
L 469 0 
L 469 531 
Q 828 903 1448 1529 
Q 2069 2156 2228 2338 
Q 2531 2678 2651 2914 
Q 2772 3150 2772 3378 
Q 2772 3750 2511 3984 
Q 2250 4219 1831 4219 
Q 1534 4219 1204 4116 
Q 875 4013 500 3803 
L 500 4441 
Q 881 4594 1212 4672 
Q 1544 4750 1819 4750 
Q 2544 4750 2975 4387 
Q 3406 4025 3406 3419 
Q 3406 3131 3298 2873 
Q 3191 2616 2906 2266 
Q 2828 2175 2409 1742 
Q 1991 1309 1228 531 
z
" transform="scale(0.015625)"/>
       </defs>
       <use xlink:href="#DejaVuSans-32"/>
       <use xlink:href="#DejaVuSans-2e" x="63.623047"/>
       <use xlink:href="#DejaVuSans-30" x="95.410156"/>
      </g>
     </g>
    </g>
    <g id="xtick_6">
     <g id="line2d_6">
      <g>
       <use xlink:href="#m9041fe6057" x="434.034965" y="640.8" style="stroke: #000000; stroke-width: 0.8"/>
      </g>
     </g>
     <g id="text_6">
      <!-- 2.5 -->
      <g transform="translate(426.083403 655.398438) scale(0.1 -0.1)">
       <use xlink:href="#DejaVuSans-32"/>
       <use xlink:href="#DejaVuSans-2e" x="63.623047"/>
       <use xlink:href="#DejaVuSans-35" x="95.410156"/>
      </g>
     </g>
    </g>
    <g id="xtick_7">
     <g id="line2d_7">
      <g>
       <use xlink:href="#m9041fe6057" x="499.06993" y="640.8" style="stroke: #000000; stroke-width: 0.8"/>
      </g>
     </g>
     <g id="text_7">
      <!-- 3.0 -->
      <g transform="translate(491.118368 655.398438) scale(0.1 -0.1)">
       <defs>
        <path id="DejaVuSans-33" d="M 2597 2516 
Q 3050 2419 3304 2112 
Q 3559 1806 3559 1356 
Q 3559 666 3084 287 
Q 2609 -91 1734 -91 
Q 1441 -91 1130 -33 
Q 819 25 488 141 
L 488 750 
Q 750 597 1062 519 
Q 1375 441 1716 441 
Q 2309 441 2620 675 
Q 2931 909 2931 1356 
Q 2931 1769 2642 2001 
Q 2353 2234 1838 2234 
L 1294 2234 
L 1294 2753 
L 1863 2753 
Q 2328 2753 2575 2939 
Q 2822 3125 2822 3475 
Q 2822 3834 2567 4026 
Q 2313 4219 1838 4219 
Q 1578 4219 1281 4162 
Q 984 4106 628 3988 
L 628 4550 
Q 988 4650 1302 4700 
Q 1616 4750 1894 4750 
Q 2613 4750 3031 4423 
Q 3450 4097 3450 3541 
Q 3450 3153 3228 2886 
Q 3006 2619 2597 2516 
z
" transform="scale(0.015625)"/>
       </defs>
       <use xlink:href="#DejaVuSans-33"/>
       <use xlink:href="#DejaVuSans-2e" x="63.623047"/>
       <use xlink:href="#DejaVuSans-30" x="95.410156"/>
      </g>
     </g>
    </g>
    <g id="xtick_8">
     <g id="line2d_8">
      <g>
       <use xlink:href="#m9041fe6057" x="564.104895" y="640.8" style="stroke: #000000; stroke-width: 0.8"/>
      </g>
     </g>
     <g id="text_8">
      <!-- 3.5 -->
      <g transform="translate(556.153333 655.398438) scale(0.1 -0.1)">
       <use xlink:href="#DejaVuSans-33"/>
       <use xlink:href="#DejaVuSans-2e" x="63.623047"/>
       <use xlink:href="#DejaVuSans-35" x="95.410156"/>
      </g>
     </g>
    </g>
    <g id="xtick_9">
     <g id="line2d_9">
      <g>
       <use xlink:href="#m9041fe6057" x="629.13986" y="640.8" style="stroke: #000000; stroke-width: 0.8"/>
      </g>
     </g>
     <g id="text_9">
      <!-- 4.0 -->
      <g transform="translate(621.188298 655.398438) scale(0.1 -0.1)">
       <defs>
        <path id="DejaVuSans-34" d="M 2419 4116 
L 825 1625 
L 2419 1625 
L 2419 4116 
z
M 2253 4666 
L 3047 4666 
L 3047 1625 
L 3713 1625 
L 3713 1100 
L 3047 1100 
L 3047 0 
L 2419 0 
L 2419 1100 
L 313 1100 
L 313 1709 
L 2253 4666 
z
" transform="scale(0.015625)"/>
       </defs>
       <use xlink:href="#DejaVuSans-34"/>
       <use xlink:href="#DejaVuSans-2e" x="63.623047"/>
       <use xlink:href="#DejaVuSans-30" x="95.410156"/>
      </g>
     </g>
    </g>
   </g>
   <g id="matplotlib.axis_2">
    <g id="ytick_1">
     <g id="line2d_10">
      <defs>
       <path id="m978a348f83" d="M 0 0 
L -3.5 0 
" style="stroke: #000000; stroke-width: 0.8"/>
      </defs>
      <g>
       <use xlink:href="#m978a348f83" x="90" y="629.431259" style="stroke: #000000; stroke-width: 0.8"/>
      </g>
     </g>
     <g id="text_10">
      <!-- 0.0 -->
      <g transform="translate(67.096875 633.230478) scale(0.1 -0.1)">
       <use xlink:href="#DejaVuSans-30"/>
       <use xlink:href="#DejaVuSans-2e" x="63.623047"/>
       <use xlink:href="#DejaVuSans-30" x="95.410156"/>
      </g>
     </g>
    </g>
    <g id="ytick_2">
     <g id="line2d_11">
      <g>
       <use xlink:href="#m978a348f83" x="90" y="527.856361" style="stroke: #000000; stroke-width: 0.8"/>
      </g>
     </g>
     <g id="text_11">
      <!-- 0.5 -->
      <g transform="translate(67.096875 531.65558) scale(0.1 -0.1)">
       <use xlink:href="#DejaVuSans-30"/>
       <use xlink:href="#DejaVuSans-2e" x="63.623047"/>
       <use xlink:href="#DejaVuSans-35" x="95.410156"/>
      </g>
     </g>
    </g>
    <g id="ytick_3">
     <g id="line2d_12">
      <g>
       <use xlink:href="#m978a348f83" x="90" y="426.281463" style="stroke: #000000; stroke-width: 0.8"/>
      </g>
     </g>
     <g id="text_12">
      <!-- 1.0 -->
      <g transform="translate(67.096875 430.080681) scale(0.1 -0.1)">
       <use xlink:href="#DejaVuSans-31"/>
       <use xlink:href="#DejaVuSans-2e" x="63.623047"/>
       <use xlink:href="#DejaVuSans-30" x="95.410156"/>
      </g>
     </g>
    </g>
    <g id="ytick_4">
     <g id="line2d_13">
      <g>
       <use xlink:href="#m978a348f83" x="90" y="324.706564" style="stroke: #000000; stroke-width: 0.8"/>
      </g>
     </g>
     <g id="text_13">
      <!-- 1.5 -->
      <g transform="translate(67.096875 328.505783) scale(0.1 -0.1)">
       <use xlink:href="#DejaVuSans-31"/>
       <use xlink:href="#DejaVuSans-2e" x="63.623047"/>
       <use xlink:href="#DejaVuSans-35" x="95.410156"/>
      </g>
     </g>
    </g>
    <g id="ytick_5">
     <g id="line2d_14">
      <g>
       <use xlink:href="#m978a348f83" x="90" y="223.131666" style="stroke: #000000; stroke-width: 0.8"/>
      </g>
     </g>
     <g id="text_14">
      <!-- 2.0 -->
      <g transform="translate(67.096875 226.930885) scale(0.1 -0.1)">
       <use xlink:href="#DejaVuSans-32"/>
       <use xlink:href="#DejaVuSans-2e" x="63.623047"/>
       <use xlink:href="#DejaVuSans-30" x="95.410156"/>
      </g>
     </g>
    </g>
    <g id="ytick_6">
     <g id="line2d_15">
      <g>
       <use xlink:href="#m978a348f83" x="90" y="121.556768" style="stroke: #000000; stroke-width: 0.8"/>
      </g>
     </g>
     <g id="text_15">
      <!-- 2.5 -->
      <g transform="translate(67.096875 125.355987) scale(0.1 -0.1)">
       <use xlink:href="#DejaVuSans-32"/>
       <use xlink:href="#DejaVuSans-2e" x="63.623047"/>
       <use xlink:href="#DejaVuSans-35" x="95.410156"/>
      </g>
     </g>
    </g>
   </g>
   <g id="line2d_16">
    <path d="M 115.363636 425.813239 
L 121.867133 424.396734 
L 128.370629 421.995784 
L 134.874126 418.547855 
L 141.377622 413.960465 
L 147.881119 408.105768 
L 154.384615 400.8129 
L 160.888112 391.857593 
L 167.391608 380.948569 
L 173.895105 367.710684 
L 180.398601 351.666237 
L 186.902098 332.220194 
L 193.405594 308.666479 
L 199.909091 280.261153 
L 206.412587 246.474691 
L 212.916084 207.664451 
L 219.41958 166.53763 
L 225.923077 130.36853 
L 232.426573 111.6 
L 238.93007 121.556768 
L 245.433566 159.532304 
L 251.937063 212.752079 
L 258.440559 267.818626 
L 264.944056 317.446439 
L 271.447552 359.500502 
L 277.951049 394.30481 
L 284.454545 422.962247 
L 290.958042 446.64323 
L 297.461538 466.357662 
L 303.965035 482.915879 
L 310.468531 496.950576 
L 316.972028 508.95189 
L 323.475524 519.300015 
L 329.979021 528.291589 
L 336.482517 536.159892 
L 342.986014 543.090005 
L 349.48951 549.230105 
L 355.993007 554.699882 
L 362.496503 559.596851 
L 369 564.001115 
L 375.503497 567.978983 
L 382.006993 571.585743 
L 388.51049 574.867814 
L 395.013986 577.864417 
L 401.517483 580.608889 
L 408.020979 583.129725 
L 414.524476 585.451412 
L 421.027972 587.595095 
L 427.531469 589.57912 
L 434.034965 591.419472 
L 440.538462 593.130139 
L 447.041958 594.723403 
L 453.545455 596.210098 
L 460.048951 597.599802 
L 466.552448 598.90102 
L 473.055944 600.121322 
L 479.559441 601.267468 
L 486.062937 602.34551 
L 492.566434 603.360885 
L 499.06993 604.318482 
L 505.573427 605.222715 
L 512.076923 606.077576 
L 518.58042 606.886681 
L 525.083916 607.653317 
L 531.587413 608.380473 
L 538.090909 609.070876 
L 544.594406 609.727016 
L 551.097902 610.351172 
L 557.601399 610.945435 
L 564.104895 611.511721 
L 570.608392 612.051796 
L 577.111888 612.567285 
L 583.615385 613.059685 
L 590.118881 613.530383 
L 596.622378 613.980658 
L 603.125874 614.411696 
L 609.629371 614.824597 
L 616.132867 615.220382 
L 622.636364 615.6 
" clip-path="url(#p83282657dc)" style="fill: none; stroke: #1f77b4; stroke-width: 1.5; stroke-linecap: square"/>
   </g>
   <g id="patch_3">
    <path d="M 90 640.8 
L 90 86.4 
" style="fill: none; stroke: #000000; stroke-width: 0.8; stroke-linejoin: miter; stroke-linecap: square"/>
   </g>
   <g id="patch_4">
    <path d="M 648 640.8 
L 648 86.4 
" style="fill: none; stroke: #000000; stroke-width: 0.8; stroke-linejoin: miter; stroke-linecap: square"/>
   </g>
   <g id="patch_5">
    <path d="M 90 640.8 
L 648 640.8 
" style="fill: none; stroke: #000000; stroke-width: 0.8; stroke-linejoin: miter; stroke-linecap: square"/>
   </g>
   <g id="patch_6">
    <path d="M 90 86.4 
L 648 86.4 
" style="fill: none; stroke: #000000; stroke-width: 0.8; stroke-linejoin: miter; stroke-linecap: square"/>
   </g>
   <g id="text_16">
    <!-- AFC for driven oscillator -->
    <g transform="translate(297.032812 80.4) scale(0.12 -0.12)">
     <defs>
      <path id="DejaVuSans-41" d="M 2188 4044 
L 1331 1722 
L 3047 1722 
L 2188 4044 
z
M 1831 4666 
L 2547 4666 
L 4325 0 
L 3669 0 
L 3244 1197 
L 1141 1197 
L 716 0 
L 50 0 
L 1831 4666 
z
" transform="scale(0.015625)"/>
      <path id="DejaVuSans-46" d="M 628 4666 
L 3309 4666 
L 3309 4134 
L 1259 4134 
L 1259 2759 
L 3109 2759 
L 3109 2228 
L 1259 2228 
L 1259 0 
L 628 0 
L 628 4666 
z
" transform="scale(0.015625)"/>
      <path id="DejaVuSans-43" d="M 4122 4306 
L 4122 3641 
Q 3803 3938 3442 4084 
Q 3081 4231 2675 4231 
Q 1875 4231 1450 3742 
Q 1025 3253 1025 2328 
Q 1025 1406 1450 917 
Q 1875 428 2675 428 
Q 3081 428 3442 575 
Q 3803 722 4122 1019 
L 4122 359 
Q 3791 134 3420 21 
Q 3050 -91 2638 -91 
Q 1578 -91 968 557 
Q 359 1206 359 2328 
Q 359 3453 968 4101 
Q 1578 4750 2638 4750 
Q 3056 4750 3426 4639 
Q 3797 4528 4122 4306 
z
" transform="scale(0.015625)"/>
      <path id="DejaVuSans-20" transform="scale(0.015625)"/>
      <path id="DejaVuSans-66" d="M 2375 4863 
L 2375 4384 
L 1825 4384 
Q 1516 4384 1395 4259 
Q 1275 4134 1275 3809 
L 1275 3500 
L 2222 3500 
L 2222 3053 
L 1275 3053 
L 1275 0 
L 697 0 
L 697 3053 
L 147 3053 
L 147 3500 
L 697 3500 
L 697 3744 
Q 697 4328 969 4595 
Q 1241 4863 1831 4863 
L 2375 4863 
z
" transform="scale(0.015625)"/>
      <path id="DejaVuSans-6f" d="M 1959 3097 
Q 1497 3097 1228 2736 
Q 959 2375 959 1747 
Q 959 1119 1226 758 
Q 1494 397 1959 397 
Q 2419 397 2687 759 
Q 2956 1122 2956 1747 
Q 2956 2369 2687 2733 
Q 2419 3097 1959 3097 
z
M 1959 3584 
Q 2709 3584 3137 3096 
Q 3566 2609 3566 1747 
Q 3566 888 3137 398 
Q 2709 -91 1959 -91 
Q 1206 -91 779 398 
Q 353 888 353 1747 
Q 353 2609 779 3096 
Q 1206 3584 1959 3584 
z
" transform="scale(0.015625)"/>
      <path id="DejaVuSans-72" d="M 2631 2963 
Q 2534 3019 2420 3045 
Q 2306 3072 2169 3072 
Q 1681 3072 1420 2755 
Q 1159 2438 1159 1844 
L 1159 0 
L 581 0 
L 581 3500 
L 1159 3500 
L 1159 2956 
Q 1341 3275 1631 3429 
Q 1922 3584 2338 3584 
Q 2397 3584 2469 3576 
Q 2541 3569 2628 3553 
L 2631 2963 
z
" transform="scale(0.015625)"/>
      <path id="DejaVuSans-64" d="M 2906 2969 
L 2906 4863 
L 3481 4863 
L 3481 0 
L 2906 0 
L 2906 525 
Q 2725 213 2448 61 
Q 2172 -91 1784 -91 
Q 1150 -91 751 415 
Q 353 922 353 1747 
Q 353 2572 751 3078 
Q 1150 3584 1784 3584 
Q 2172 3584 2448 3432 
Q 2725 3281 2906 2969 
z
M 947 1747 
Q 947 1113 1208 752 
Q 1469 391 1925 391 
Q 2381 391 2643 752 
Q 2906 1113 2906 1747 
Q 2906 2381 2643 2742 
Q 2381 3103 1925 3103 
Q 1469 3103 1208 2742 
Q 947 2381 947 1747 
z
" transform="scale(0.015625)"/>
      <path id="DejaVuSans-69" d="M 603 3500 
L 1178 3500 
L 1178 0 
L 603 0 
L 603 3500 
z
M 603 4863 
L 1178 4863 
L 1178 4134 
L 603 4134 
L 603 4863 
z
" transform="scale(0.015625)"/>
      <path id="DejaVuSans-76" d="M 191 3500 
L 800 3500 
L 1894 563 
L 2988 3500 
L 3597 3500 
L 2284 0 
L 1503 0 
L 191 3500 
z
" transform="scale(0.015625)"/>
      <path id="DejaVuSans-65" d="M 3597 1894 
L 3597 1613 
L 953 1613 
Q 991 1019 1311 708 
Q 1631 397 2203 397 
Q 2534 397 2845 478 
Q 3156 559 3463 722 
L 3463 178 
Q 3153 47 2828 -22 
Q 2503 -91 2169 -91 
Q 1331 -91 842 396 
Q 353 884 353 1716 
Q 353 2575 817 3079 
Q 1281 3584 2069 3584 
Q 2775 3584 3186 3129 
Q 3597 2675 3597 1894 
z
M 3022 2063 
Q 3016 2534 2758 2815 
Q 2500 3097 2075 3097 
Q 1594 3097 1305 2825 
Q 1016 2553 972 2059 
L 3022 2063 
z
" transform="scale(0.015625)"/>
      <path id="DejaVuSans-6e" d="M 3513 2113 
L 3513 0 
L 2938 0 
L 2938 2094 
Q 2938 2591 2744 2837 
Q 2550 3084 2163 3084 
Q 1697 3084 1428 2787 
Q 1159 2491 1159 1978 
L 1159 0 
L 581 0 
L 581 3500 
L 1159 3500 
L 1159 2956 
Q 1366 3272 1645 3428 
Q 1925 3584 2291 3584 
Q 2894 3584 3203 3211 
Q 3513 2838 3513 2113 
z
" transform="scale(0.015625)"/>
      <path id="DejaVuSans-73" d="M 2834 3397 
L 2834 2853 
Q 2591 2978 2328 3040 
Q 2066 3103 1784 3103 
Q 1356 3103 1142 2972 
Q 928 2841 928 2578 
Q 928 2378 1081 2264 
Q 1234 2150 1697 2047 
L 1894 2003 
Q 2506 1872 2764 1633 
Q 3022 1394 3022 966 
Q 3022 478 2636 193 
Q 2250 -91 1575 -91 
Q 1294 -91 989 -36 
Q 684 19 347 128 
L 347 722 
Q 666 556 975 473 
Q 1284 391 1588 391 
Q 1994 391 2212 530 
Q 2431 669 2431 922 
Q 2431 1156 2273 1281 
Q 2116 1406 1581 1522 
L 1381 1569 
Q 847 1681 609 1914 
Q 372 2147 372 2553 
Q 372 3047 722 3315 
Q 1072 3584 1716 3584 
Q 2034 3584 2315 3537 
Q 2597 3491 2834 3397 
z
" transform="scale(0.015625)"/>
      <path id="DejaVuSans-63" d="M 3122 3366 
L 3122 2828 
Q 2878 2963 2633 3030 
Q 2388 3097 2138 3097 
Q 1578 3097 1268 2742 
Q 959 2388 959 1747 
Q 959 1106 1268 751 
Q 1578 397 2138 397 
Q 2388 397 2633 464 
Q 2878 531 3122 666 
L 3122 134 
Q 2881 22 2623 -34 
Q 2366 -91 2075 -91 
Q 1284 -91 818 406 
Q 353 903 353 1747 
Q 353 2603 823 3093 
Q 1294 3584 2113 3584 
Q 2378 3584 2631 3529 
Q 2884 3475 3122 3366 
z
" transform="scale(0.015625)"/>
      <path id="DejaVuSans-6c" d="M 603 4863 
L 1178 4863 
L 1178 0 
L 603 0 
L 603 4863 
z
" transform="scale(0.015625)"/>
      <path id="DejaVuSans-61" d="M 2194 1759 
Q 1497 1759 1228 1600 
Q 959 1441 959 1056 
Q 959 750 1161 570 
Q 1363 391 1709 391 
Q 2188 391 2477 730 
Q 2766 1069 2766 1631 
L 2766 1759 
L 2194 1759 
z
M 3341 1997 
L 3341 0 
L 2766 0 
L 2766 531 
Q 2569 213 2275 61 
Q 1981 -91 1556 -91 
Q 1019 -91 701 211 
Q 384 513 384 1019 
Q 384 1609 779 1909 
Q 1175 2209 1959 2209 
L 2766 2209 
L 2766 2266 
Q 2766 2663 2505 2880 
Q 2244 3097 1772 3097 
Q 1472 3097 1187 3025 
Q 903 2953 641 2809 
L 641 3341 
Q 956 3463 1253 3523 
Q 1550 3584 1831 3584 
Q 2591 3584 2966 3190 
Q 3341 2797 3341 1997 
z
" transform="scale(0.015625)"/>
      <path id="DejaVuSans-74" d="M 1172 4494 
L 1172 3500 
L 2356 3500 
L 2356 3053 
L 1172 3053 
L 1172 1153 
Q 1172 725 1289 603 
Q 1406 481 1766 481 
L 2356 481 
L 2356 0 
L 1766 0 
Q 1100 0 847 248 
Q 594 497 594 1153 
L 594 3053 
L 172 3053 
L 172 3500 
L 594 3500 
L 594 4494 
L 1172 4494 
z
" transform="scale(0.015625)"/>
     </defs>
     <use xlink:href="#DejaVuSans-41"/>
     <use xlink:href="#DejaVuSans-46" x="68.408203"/>
     <use xlink:href="#DejaVuSans-43" x="125.927734"/>
     <use xlink:href="#DejaVuSans-20" x="195.751953"/>
     <use xlink:href="#DejaVuSans-66" x="227.539062"/>
     <use xlink:href="#DejaVuSans-6f" x="262.744141"/>
     <use xlink:href="#DejaVuSans-72" x="323.925781"/>
     <use xlink:href="#DejaVuSans-20" x="365.039062"/>
     <use xlink:href="#DejaVuSans-64" x="396.826172"/>
     <use xlink:href="#DejaVuSans-72" x="460.302734"/>
     <use xlink:href="#DejaVuSans-69" x="501.416016"/>
     <use xlink:href="#DejaVuSans-76" x="529.199219"/>
     <use xlink:href="#DejaVuSans-65" x="588.378906"/>
     <use xlink:href="#DejaVuSans-6e" x="649.902344"/>
     <use xlink:href="#DejaVuSans-20" x="713.28125"/>
     <use xlink:href="#DejaVuSans-6f" x="745.068359"/>
     <use xlink:href="#DejaVuSans-73" x="806.25"/>
     <use xlink:href="#DejaVuSans-63" x="858.349609"/>
     <use xlink:href="#DejaVuSans-69" x="913.330078"/>
     <use xlink:href="#DejaVuSans-6c" x="941.113281"/>
     <use xlink:href="#DejaVuSans-6c" x="968.896484"/>
     <use xlink:href="#DejaVuSans-61" x="996.679688"/>
     <use xlink:href="#DejaVuSans-74" x="1057.958984"/>
     <use xlink:href="#DejaVuSans-6f" x="1097.167969"/>
     <use xlink:href="#DejaVuSans-72" x="1158.349609"/>
    </g>
   </g>
   <g id="legend_1">
    <g id="patch_7">
     <path d="M 515.690625 123.75625 
L 641 123.75625 
Q 643 123.75625 643 121.75625 
L 643 93.4 
Q 643 91.4 641 91.4 
L 515.690625 91.4 
Q 513.690625 91.4 513.690625 93.4 
L 513.690625 121.75625 
Q 513.690625 123.75625 515.690625 123.75625 
z
" style="fill: #ffffff; opacity: 0.8; stroke: #cccccc; stroke-linejoin: miter"/>
    </g>
    <g id="PathCollection_2">
     <g>
      <use xlink:href="#m05da714509" x="527.690625" y="100.373437" style="fill: #1f77b4; stroke: #1f77b4"/>
     </g>
    </g>
    <g id="text_17">
     <!-- Simulated solution -->
     <g transform="translate(545.690625 102.998437) scale(0.1 -0.1)">
      <defs>
       <path id="DejaVuSans-53" d="M 3425 4513 
L 3425 3897 
Q 3066 4069 2747 4153 
Q 2428 4238 2131 4238 
Q 1616 4238 1336 4038 
Q 1056 3838 1056 3469 
Q 1056 3159 1242 3001 
Q 1428 2844 1947 2747 
L 2328 2669 
Q 3034 2534 3370 2195 
Q 3706 1856 3706 1288 
Q 3706 609 3251 259 
Q 2797 -91 1919 -91 
Q 1588 -91 1214 -16 
Q 841 59 441 206 
L 441 856 
Q 825 641 1194 531 
Q 1563 422 1919 422 
Q 2459 422 2753 634 
Q 3047 847 3047 1241 
Q 3047 1584 2836 1778 
Q 2625 1972 2144 2069 
L 1759 2144 
Q 1053 2284 737 2584 
Q 422 2884 422 3419 
Q 422 4038 858 4394 
Q 1294 4750 2059 4750 
Q 2388 4750 2728 4690 
Q 3069 4631 3425 4513 
z
" transform="scale(0.015625)"/>
       <path id="DejaVuSans-6d" d="M 3328 2828 
Q 3544 3216 3844 3400 
Q 4144 3584 4550 3584 
Q 5097 3584 5394 3201 
Q 5691 2819 5691 2113 
L 5691 0 
L 5113 0 
L 5113 2094 
Q 5113 2597 4934 2840 
Q 4756 3084 4391 3084 
Q 3944 3084 3684 2787 
Q 3425 2491 3425 1978 
L 3425 0 
L 2847 0 
L 2847 2094 
Q 2847 2600 2669 2842 
Q 2491 3084 2119 3084 
Q 1678 3084 1418 2786 
Q 1159 2488 1159 1978 
L 1159 0 
L 581 0 
L 581 3500 
L 1159 3500 
L 1159 2956 
Q 1356 3278 1631 3431 
Q 1906 3584 2284 3584 
Q 2666 3584 2933 3390 
Q 3200 3197 3328 2828 
z
" transform="scale(0.015625)"/>
       <path id="DejaVuSans-75" d="M 544 1381 
L 544 3500 
L 1119 3500 
L 1119 1403 
Q 1119 906 1312 657 
Q 1506 409 1894 409 
Q 2359 409 2629 706 
Q 2900 1003 2900 1516 
L 2900 3500 
L 3475 3500 
L 3475 0 
L 2900 0 
L 2900 538 
Q 2691 219 2414 64 
Q 2138 -91 1772 -91 
Q 1169 -91 856 284 
Q 544 659 544 1381 
z
M 1991 3584 
L 1991 3584 
z
" transform="scale(0.015625)"/>
      </defs>
      <use xlink:href="#DejaVuSans-53"/>
      <use xlink:href="#DejaVuSans-69" x="63.476562"/>
      <use xlink:href="#DejaVuSans-6d" x="91.259766"/>
      <use xlink:href="#DejaVuSans-75" x="188.671875"/>
      <use xlink:href="#DejaVuSans-6c" x="252.050781"/>
      <use xlink:href="#DejaVuSans-61" x="279.833984"/>
      <use xlink:href="#DejaVuSans-74" x="341.113281"/>
      <use xlink:href="#DejaVuSans-65" x="380.322266"/>
      <use xlink:href="#DejaVuSans-64" x="441.845703"/>
      <use xlink:href="#DejaVuSans-20" x="505.322266"/>
      <use xlink:href="#DejaVuSans-73" x="537.109375"/>
      <use xlink:href="#DejaVuSans-6f" x="589.208984"/>
      <use xlink:href="#DejaVuSans-6c" x="650.390625"/>
      <use xlink:href="#DejaVuSans-75" x="678.173828"/>
      <use xlink:href="#DejaVuSans-74" x="741.552734"/>
      <use xlink:href="#DejaVuSans-69" x="780.761719"/>
      <use xlink:href="#DejaVuSans-6f" x="808.544922"/>
      <use xlink:href="#DejaVuSans-6e" x="869.726562"/>
     </g>
    </g>
    <g id="line2d_17">
     <path d="M 517.690625 114.176562 
L 527.690625 114.176562 
L 537.690625 114.176562 
" style="fill: none; stroke: #1f77b4; stroke-width: 1.5; stroke-linecap: square"/>
    </g>
    <g id="text_18">
     <!-- Analytic AFC -->
     <g transform="translate(545.690625 117.676562) scale(0.1 -0.1)">
      <defs>
       <path id="DejaVuSans-79" d="M 2059 -325 
Q 1816 -950 1584 -1140 
Q 1353 -1331 966 -1331 
L 506 -1331 
L 506 -850 
L 844 -850 
Q 1081 -850 1212 -737 
Q 1344 -625 1503 -206 
L 1606 56 
L 191 3500 
L 800 3500 
L 1894 763 
L 2988 3500 
L 3597 3500 
L 2059 -325 
z
" transform="scale(0.015625)"/>
      </defs>
      <use xlink:href="#DejaVuSans-41"/>
      <use xlink:href="#DejaVuSans-6e" x="68.408203"/>
      <use xlink:href="#DejaVuSans-61" x="131.787109"/>
      <use xlink:href="#DejaVuSans-6c" x="193.066406"/>
      <use xlink:href="#DejaVuSans-79" x="220.849609"/>
      <use xlink:href="#DejaVuSans-74" x="280.029297"/>
      <use xlink:href="#DejaVuSans-69" x="319.238281"/>
      <use xlink:href="#DejaVuSans-63" x="347.021484"/>
      <use xlink:href="#DejaVuSans-20" x="402.001953"/>
      <use xlink:href="#DejaVuSans-41" x="433.789062"/>
      <use xlink:href="#DejaVuSans-46" x="502.197266"/>
      <use xlink:href="#DejaVuSans-43" x="559.716797"/>
     </g>
    </g>
   </g>
  </g>
 </g>
 <defs>
  <clipPath id="p83282657dc">
   <rect x="90" y="86.4" width="558" height="554.4"/>
  </clipPath>
 </defs>
</svg>
