<?xml version="1.0" encoding="utf-8" standalone="no"?>
<!DOCTYPE svg PUBLIC "-//W3C//DTD SVG 1.1//EN"
  "http://www.w3.org/Graphics/SVG/1.1/DTD/svg11.dtd">
<svg xmlns:xlink="http://www.w3.org/1999/xlink" width="720pt" height="720pt" viewBox="0 0 720 720" xmlns="http://www.w3.org/2000/svg" version="1.1">
 <metadata>
  <rdf:RDF xmlns:dc="http://purl.org/dc/elements/1.1/" xmlns:cc="http://creativecommons.org/ns#" xmlns:rdf="http://www.w3.org/1999/02/22-rdf-syntax-ns#">
   <cc:Work>
    <dc:type rdf:resource="http://purl.org/dc/dcmitype/StillImage"/>
    <dc:date>2023-11-25T19:55:24.334367</dc:date>
    <dc:format>image/svg+xml</dc:format>
    <dc:creator>
     <cc:Agent>
      <dc:title>Matplotlib v3.8.0, https://matplotlib.org/</dc:title>
     </cc:Agent>
    </dc:creator>
   </cc:Work>
  </rdf:RDF>
 </metadata>
 <defs>
  <style type="text/css">*{stroke-linejoin: round; stroke-linecap: butt}</style>
 </defs>
 <g id="figure_1">
  <g id="patch_1">
   <path d="M 0 720 
L 720 720 
L 720 0 
L 0 0 
z
" style="fill: #ffffff"/>
  </g>
  <g id="axes_1">
   <g id="patch_2">
    <path d="M 90 640.8 
L 648 640.8 
L 648 86.4 
L 90 86.4 
z
" style="fill: #ffffff"/>
   </g>
   <g id="matplotlib.axis_1">
    <g id="xtick_1">
     <g id="line2d_1">
      <defs>
       <path id="m8c8664ee0f" d="M 0 0 
L 0 3.5 
" style="stroke: #000000; stroke-width: 0.8"/>
      </defs>
      <g>
       <use xlink:href="#m8c8664ee0f" x="108.86014" y="640.8" style="stroke: #000000; stroke-width: 0.8"/>
      </g>
     </g>
     <g id="text_1">
      <!-- 0.0 -->
      <g transform="translate(100.908577 655.398438) scale(0.1 -0.1)">
       <defs>
        <path id="DejaVuSans-30" d="M 2034 4250 
Q 1547 4250 1301 3770 
Q 1056 3291 1056 2328 
Q 1056 1369 1301 889 
Q 1547 409 2034 409 
Q 2525 409 2770 889 
Q 3016 1369 3016 2328 
Q 3016 3291 2770 3770 
Q 2525 4250 2034 4250 
z
M 2034 4750 
Q 2819 4750 3233 4129 
Q 3647 3509 3647 2328 
Q 3647 1150 3233 529 
Q 2819 -91 2034 -91 
Q 1250 -91 836 529 
Q 422 1150 422 2328 
Q 422 3509 836 4129 
Q 1250 4750 2034 4750 
z
" transform="scale(0.015625)"/>
        <path id="DejaVuSans-2e" d="M 684 794 
L 1344 794 
L 1344 0 
L 684 0 
L 684 794 
z
" transform="scale(0.015625)"/>
       </defs>
       <use xlink:href="#DejaVuSans-30"/>
       <use xlink:href="#DejaVuSans-2e" x="63.623047"/>
       <use xlink:href="#DejaVuSans-30" x="95.410156"/>
      </g>
     </g>
    </g>
    <g id="xtick_2">
     <g id="line2d_2">
      <g>
       <use xlink:href="#m8c8664ee0f" x="173.895105" y="640.8" style="stroke: #000000; stroke-width: 0.8"/>
      </g>
     </g>
     <g id="text_2">
      <!-- 0.5 -->
      <g transform="translate(165.943542 655.398438) scale(0.1 -0.1)">
       <defs>
        <path id="DejaVuSans-35" d="M 691 4666 
L 3169 4666 
L 3169 4134 
L 1269 4134 
L 1269 2991 
Q 1406 3038 1543 3061 
Q 1681 3084 1819 3084 
Q 2600 3084 3056 2656 
Q 3513 2228 3513 1497 
Q 3513 744 3044 326 
Q 2575 -91 1722 -91 
Q 1428 -91 1123 -41 
Q 819 9 494 109 
L 494 744 
Q 775 591 1075 516 
Q 1375 441 1709 441 
Q 2250 441 2565 725 
Q 2881 1009 2881 1497 
Q 2881 1984 2565 2268 
Q 2250 2553 1709 2553 
Q 1456 2553 1204 2497 
Q 953 2441 691 2322 
L 691 4666 
z
" transform="scale(0.015625)"/>
       </defs>
       <use xlink:href="#DejaVuSans-30"/>
       <use xlink:href="#DejaVuSans-2e" x="63.623047"/>
       <use xlink:href="#DejaVuSans-35" x="95.410156"/>
      </g>
     </g>
    </g>
    <g id="xtick_3">
     <g id="line2d_3">
      <g>
       <use xlink:href="#m8c8664ee0f" x="238.93007" y="640.8" style="stroke: #000000; stroke-width: 0.8"/>
      </g>
     </g>
     <g id="text_3">
      <!-- 1.0 -->
      <g transform="translate(230.978507 655.398438) scale(0.1 -0.1)">
       <defs>
        <path id="DejaVuSans-31" d="M 794 531 
L 1825 531 
L 1825 4091 
L 703 3866 
L 703 4441 
L 1819 4666 
L 2450 4666 
L 2450 531 
L 3481 531 
L 3481 0 
L 794 0 
L 794 531 
z
" transform="scale(0.015625)"/>
       </defs>
       <use xlink:href="#DejaVuSans-31"/>
       <use xlink:href="#DejaVuSans-2e" x="63.623047"/>
       <use xlink:href="#DejaVuSans-30" x="95.410156"/>
      </g>
     </g>
    </g>
    <g id="xtick_4">
     <g id="line2d_4">
      <g>
       <use xlink:href="#m8c8664ee0f" x="303.965035" y="640.8" style="stroke: #000000; stroke-width: 0.8"/>
      </g>
     </g>
     <g id="text_4">
      <!-- 1.5 -->
      <g transform="translate(296.013472 655.398438) scale(0.1 -0.1)">
       <use xlink:href="#DejaVuSans-31"/>
       <use xlink:href="#DejaVuSans-2e" x="63.623047"/>
       <use xlink:href="#DejaVuSans-35" x="95.410156"/>
      </g>
     </g>
    </g>
    <g id="xtick_5">
     <g id="line2d_5">
      <g>
       <use xlink:href="#m8c8664ee0f" x="369" y="640.8" style="stroke: #000000; stroke-width: 0.8"/>
      </g>
     </g>
     <g id="text_5">
      <!-- 2.0 -->
      <g transform="translate(361.048437 655.398438) scale(0.1 -0.1)">
       <defs>
        <path id="DejaVuSans-32" d="M 1228 531 
L 3431 531 
L 3431 0 
L 469 0 
L 469 531 
Q 828 903 1448 1529 
Q 2069 2156 2228 2338 
Q 2531 2678 2651 2914 
Q 2772 3150 2772 3378 
Q 2772 3750 2511 3984 
Q 2250 4219 1831 4219 
Q 1534 4219 1204 4116 
Q 875 4013 500 3803 
L 500 4441 
Q 881 4594 1212 4672 
Q 1544 4750 1819 4750 
Q 2544 4750 2975 4387 
Q 3406 4025 3406 3419 
Q 3406 3131 3298 2873 
Q 3191 2616 2906 2266 
Q 2828 2175 2409 1742 
Q 1991 1309 1228 531 
z
" transform="scale(0.015625)"/>
       </defs>
       <use xlink:href="#DejaVuSans-32"/>
       <use xlink:href="#DejaVuSans-2e" x="63.623047"/>
       <use xlink:href="#DejaVuSans-30" x="95.410156"/>
      </g>
     </g>
    </g>
    <g id="xtick_6">
     <g id="line2d_6">
      <g>
       <use xlink:href="#m8c8664ee0f" x="434.034965" y="640.8" style="stroke: #000000; stroke-width: 0.8"/>
      </g>
     </g>
     <g id="text_6">
      <!-- 2.5 -->
      <g transform="translate(426.083403 655.398438) scale(0.1 -0.1)">
       <use xlink:href="#DejaVuSans-32"/>
       <use xlink:href="#DejaVuSans-2e" x="63.623047"/>
       <use xlink:href="#DejaVuSans-35" x="95.410156"/>
      </g>
     </g>
    </g>
    <g id="xtick_7">
     <g id="line2d_7">
      <g>
       <use xlink:href="#m8c8664ee0f" x="499.06993" y="640.8" style="stroke: #000000; stroke-width: 0.8"/>
      </g>
     </g>
     <g id="text_7">
      <!-- 3.0 -->
      <g transform="translate(491.118368 655.398438) scale(0.1 -0.1)">
       <defs>
        <path id="DejaVuSans-33" d="M 2597 2516 
Q 3050 2419 3304 2112 
Q 3559 1806 3559 1356 
Q 3559 666 3084 287 
Q 2609 -91 1734 -91 
Q 1441 -91 1130 -33 
Q 819 25 488 141 
L 488 750 
Q 750 597 1062 519 
Q 1375 441 1716 441 
Q 2309 441 2620 675 
Q 2931 909 2931 1356 
Q 2931 1769 2642 2001 
Q 2353 2234 1838 2234 
L 1294 2234 
L 1294 2753 
L 1863 2753 
Q 2328 2753 2575 2939 
Q 2822 3125 2822 3475 
Q 2822 3834 2567 4026 
Q 2313 4219 1838 4219 
Q 1578 4219 1281 4162 
Q 984 4106 628 3988 
L 628 4550 
Q 988 4650 1302 4700 
Q 1616 4750 1894 4750 
Q 2613 4750 3031 4423 
Q 3450 4097 3450 3541 
Q 3450 3153 3228 2886 
Q 3006 2619 2597 2516 
z
" transform="scale(0.015625)"/>
       </defs>
       <use xlink:href="#DejaVuSans-33"/>
       <use xlink:href="#DejaVuSans-2e" x="63.623047"/>
       <use xlink:href="#DejaVuSans-30" x="95.410156"/>
      </g>
     </g>
    </g>
    <g id="xtick_8">
     <g id="line2d_8">
      <g>
       <use xlink:href="#m8c8664ee0f" x="564.104895" y="640.8" style="stroke: #000000; stroke-width: 0.8"/>
      </g>
     </g>
     <g id="text_8">
      <!-- 3.5 -->
      <g transform="translate(556.153333 655.398438) scale(0.1 -0.1)">
       <use xlink:href="#DejaVuSans-33"/>
       <use xlink:href="#DejaVuSans-2e" x="63.623047"/>
       <use xlink:href="#DejaVuSans-35" x="95.410156"/>
      </g>
     </g>
    </g>
    <g id="xtick_9">
     <g id="line2d_9">
      <g>
       <use xlink:href="#m8c8664ee0f" x="629.13986" y="640.8" style="stroke: #000000; stroke-width: 0.8"/>
      </g>
     </g>
     <g id="text_9">
      <!-- 4.0 -->
      <g transform="translate(621.188298 655.398438) scale(0.1 -0.1)">
       <defs>
        <path id="DejaVuSans-34" d="M 2419 4116 
L 825 1625 
L 2419 1625 
L 2419 4116 
z
M 2253 4666 
L 3047 4666 
L 3047 1625 
L 3713 1625 
L 3713 1100 
L 3047 1100 
L 3047 0 
L 2419 0 
L 2419 1100 
L 313 1100 
L 313 1709 
L 2253 4666 
z
" transform="scale(0.015625)"/>
       </defs>
       <use xlink:href="#DejaVuSans-34"/>
       <use xlink:href="#DejaVuSans-2e" x="63.623047"/>
       <use xlink:href="#DejaVuSans-30" x="95.410156"/>
      </g>
     </g>
    </g>
   </g>
   <g id="matplotlib.axis_2">
    <g id="ytick_1">
     <g id="line2d_10">
      <defs>
       <path id="me40d037cb8" d="M 0 0 
L -3.5 0 
" style="stroke: #000000; stroke-width: 0.8"/>
      </defs>
      <g>
       <use xlink:href="#me40d037cb8" x="90" y="615.603633" style="stroke: #000000; stroke-width: 0.8"/>
      </g>
     </g>
     <g id="text_10">
      <!-- 0.0 -->
      <g transform="translate(67.096875 619.402852) scale(0.1 -0.1)">
       <use xlink:href="#DejaVuSans-30"/>
       <use xlink:href="#DejaVuSans-2e" x="63.623047"/>
       <use xlink:href="#DejaVuSans-30" x="95.410156"/>
      </g>
     </g>
    </g>
    <g id="ytick_2">
     <g id="line2d_11">
      <g>
       <use xlink:href="#me40d037cb8" x="90" y="551.065188" style="stroke: #000000; stroke-width: 0.8"/>
      </g>
     </g>
     <g id="text_11">
      <!-- 0.1 -->
      <g transform="translate(67.096875 554.864406) scale(0.1 -0.1)">
       <use xlink:href="#DejaVuSans-30"/>
       <use xlink:href="#DejaVuSans-2e" x="63.623047"/>
       <use xlink:href="#DejaVuSans-31" x="95.410156"/>
      </g>
     </g>
    </g>
    <g id="ytick_3">
     <g id="line2d_12">
      <g>
       <use xlink:href="#me40d037cb8" x="90" y="486.526742" style="stroke: #000000; stroke-width: 0.8"/>
      </g>
     </g>
     <g id="text_12">
      <!-- 0.2 -->
      <g transform="translate(67.096875 490.325961) scale(0.1 -0.1)">
       <use xlink:href="#DejaVuSans-30"/>
       <use xlink:href="#DejaVuSans-2e" x="63.623047"/>
       <use xlink:href="#DejaVuSans-32" x="95.410156"/>
      </g>
     </g>
    </g>
    <g id="ytick_4">
     <g id="line2d_13">
      <g>
       <use xlink:href="#me40d037cb8" x="90" y="421.988296" style="stroke: #000000; stroke-width: 0.8"/>
      </g>
     </g>
     <g id="text_13">
      <!-- 0.3 -->
      <g transform="translate(67.096875 425.787515) scale(0.1 -0.1)">
       <use xlink:href="#DejaVuSans-30"/>
       <use xlink:href="#DejaVuSans-2e" x="63.623047"/>
       <use xlink:href="#DejaVuSans-33" x="95.410156"/>
      </g>
     </g>
    </g>
    <g id="ytick_5">
     <g id="line2d_14">
      <g>
       <use xlink:href="#me40d037cb8" x="90" y="357.449851" style="stroke: #000000; stroke-width: 0.8"/>
      </g>
     </g>
     <g id="text_14">
      <!-- 0.4 -->
      <g transform="translate(67.096875 361.24907) scale(0.1 -0.1)">
       <use xlink:href="#DejaVuSans-30"/>
       <use xlink:href="#DejaVuSans-2e" x="63.623047"/>
       <use xlink:href="#DejaVuSans-34" x="95.410156"/>
      </g>
     </g>
    </g>
    <g id="ytick_6">
     <g id="line2d_15">
      <g>
       <use xlink:href="#me40d037cb8" x="90" y="292.911405" style="stroke: #000000; stroke-width: 0.8"/>
      </g>
     </g>
     <g id="text_15">
      <!-- 0.5 -->
      <g transform="translate(67.096875 296.710624) scale(0.1 -0.1)">
       <use xlink:href="#DejaVuSans-30"/>
       <use xlink:href="#DejaVuSans-2e" x="63.623047"/>
       <use xlink:href="#DejaVuSans-35" x="95.410156"/>
      </g>
     </g>
    </g>
    <g id="ytick_7">
     <g id="line2d_16">
      <g>
       <use xlink:href="#me40d037cb8" x="90" y="228.37296" style="stroke: #000000; stroke-width: 0.8"/>
      </g>
     </g>
     <g id="text_16">
      <!-- 0.6 -->
      <g transform="translate(67.096875 232.172179) scale(0.1 -0.1)">
       <defs>
        <path id="DejaVuSans-36" d="M 2113 2584 
Q 1688 2584 1439 2293 
Q 1191 2003 1191 1497 
Q 1191 994 1439 701 
Q 1688 409 2113 409 
Q 2538 409 2786 701 
Q 3034 994 3034 1497 
Q 3034 2003 2786 2293 
Q 2538 2584 2113 2584 
z
M 3366 4563 
L 3366 3988 
Q 3128 4100 2886 4159 
Q 2644 4219 2406 4219 
Q 1781 4219 1451 3797 
Q 1122 3375 1075 2522 
Q 1259 2794 1537 2939 
Q 1816 3084 2150 3084 
Q 2853 3084 3261 2657 
Q 3669 2231 3669 1497 
Q 3669 778 3244 343 
Q 2819 -91 2113 -91 
Q 1303 -91 875 529 
Q 447 1150 447 2328 
Q 447 3434 972 4092 
Q 1497 4750 2381 4750 
Q 2619 4750 2861 4703 
Q 3103 4656 3366 4563 
z
" transform="scale(0.015625)"/>
       </defs>
       <use xlink:href="#DejaVuSans-30"/>
       <use xlink:href="#DejaVuSans-2e" x="63.623047"/>
       <use xlink:href="#DejaVuSans-36" x="95.410156"/>
      </g>
     </g>
    </g>
    <g id="ytick_8">
     <g id="line2d_17">
      <g>
       <use xlink:href="#me40d037cb8" x="90" y="163.834514" style="stroke: #000000; stroke-width: 0.8"/>
      </g>
     </g>
     <g id="text_17">
      <!-- 0.7 -->
      <g transform="translate(67.096875 167.633733) scale(0.1 -0.1)">
       <defs>
        <path id="DejaVuSans-37" d="M 525 4666 
L 3525 4666 
L 3525 4397 
L 1831 0 
L 1172 0 
L 2766 4134 
L 525 4134 
L 525 4666 
z
" transform="scale(0.015625)"/>
       </defs>
       <use xlink:href="#DejaVuSans-30"/>
       <use xlink:href="#DejaVuSans-2e" x="63.623047"/>
       <use xlink:href="#DejaVuSans-37" x="95.410156"/>
      </g>
     </g>
    </g>
    <g id="ytick_9">
     <g id="line2d_18">
      <g>
       <use xlink:href="#me40d037cb8" x="90" y="99.296069" style="stroke: #000000; stroke-width: 0.8"/>
      </g>
     </g>
     <g id="text_18">
      <!-- 0.8 -->
      <g transform="translate(67.096875 103.095288) scale(0.1 -0.1)">
       <defs>
        <path id="DejaVuSans-38" d="M 2034 2216 
Q 1584 2216 1326 1975 
Q 1069 1734 1069 1313 
Q 1069 891 1326 650 
Q 1584 409 2034 409 
Q 2484 409 2743 651 
Q 3003 894 3003 1313 
Q 3003 1734 2745 1975 
Q 2488 2216 2034 2216 
z
M 1403 2484 
Q 997 2584 770 2862 
Q 544 3141 544 3541 
Q 544 4100 942 4425 
Q 1341 4750 2034 4750 
Q 2731 4750 3128 4425 
Q 3525 4100 3525 3541 
Q 3525 3141 3298 2862 
Q 3072 2584 2669 2484 
Q 3125 2378 3379 2068 
Q 3634 1759 3634 1313 
Q 3634 634 3220 271 
Q 2806 -91 2034 -91 
Q 1263 -91 848 271 
Q 434 634 434 1313 
Q 434 1759 690 2068 
Q 947 2378 1403 2484 
z
M 1172 3481 
Q 1172 3119 1398 2916 
Q 1625 2713 2034 2713 
Q 2441 2713 2670 2916 
Q 2900 3119 2900 3481 
Q 2900 3844 2670 4047 
Q 2441 4250 2034 4250 
Q 1625 4250 1398 4047 
Q 1172 3844 1172 3481 
z
" transform="scale(0.015625)"/>
       </defs>
       <use xlink:href="#DejaVuSans-30"/>
       <use xlink:href="#DejaVuSans-2e" x="63.623047"/>
       <use xlink:href="#DejaVuSans-38" x="95.410156"/>
      </g>
     </g>
    </g>
   </g>
   <g id="line2d_19">
    <path d="M 115.363636 464.914456 
L 121.867133 544.815949 
L 128.370629 610.904343 
L 134.874126 590.798963 
L 141.377622 612.120326 
L 147.881119 564.808134 
L 154.384615 531.416476 
L 160.888112 563.270831 
L 167.391608 614.943403 
L 173.895105 583.385439 
L 180.398601 580.79423 
L 186.902098 601.62107 
L 193.405594 604.128672 
L 199.909091 575.438671 
L 206.412587 541.755787 
L 212.916084 557.671158 
L 219.41958 493.954266 
L 225.923077 458.886873 
L 232.426573 457.581297 
L 238.93007 495.478656 
L 245.433566 591.627448 
L 251.937063 521.197639 
L 258.440559 416.580031 
L 264.944056 294.378597 
L 271.447552 206.200089 
L 277.951049 152.879594 
L 284.454545 125.355297 
L 290.958042 111.6 
L 297.461538 123.031543 
L 303.965035 142.051785 
L 310.468531 172.433597 
L 316.972028 211.329204 
L 323.475524 254.084034 
L 329.979021 300.635857 
L 336.482517 353.04349 
L 342.986014 400.148237 
L 349.48951 452.857321 
L 355.993007 505.04293 
L 362.496503 499.382324 
L 369 440.739142 
L 375.503497 391.354464 
L 382.006993 346.434142 
L 388.51049 309.038895 
L 395.013986 283.945092 
L 401.517483 257.193723 
L 408.020979 246.179231 
L 414.524476 230.345703 
L 421.027972 229.006248 
L 427.531469 224.686894 
L 434.034965 229.082879 
L 440.538462 237.797319 
L 447.041958 245.169252 
L 453.545455 260.778173 
L 460.048951 276.580585 
L 466.552448 291.755958 
L 473.055944 311.727953 
L 479.559441 334.312195 
L 486.062937 354.609571 
L 492.566434 374.760712 
L 499.06993 352.327974 
L 505.573427 324.597591 
L 512.076923 300.076603 
L 518.58042 300.772205 
L 525.083916 278.993022 
L 531.587413 262.012266 
L 538.090909 251.025361 
L 544.594406 246.570946 
L 551.097902 248.520183 
L 557.601399 243.936139 
L 564.104895 244.88995 
L 570.608392 250.951595 
L 577.111888 256.473901 
L 583.615385 260.588731 
L 590.118881 268.625263 
L 596.622378 279.557376 
L 603.125874 291.96299 
L 609.629371 300.565546 
L 616.132867 311.214422 
L 622.636364 322.84389 
" clip-path="url(#p902e63381d)" style="fill: none; stroke: #1f77b4; stroke-width: 1.5; stroke-linecap: square"/>
   </g>
   <g id="line2d_20">
    <path d="M 115.363636 615.6 
L 121.867133 615.58074 
L 128.370629 610.904343 
L 134.874126 590.798963 
L 141.377622 612.120326 
L 147.881119 564.808134 
L 154.384615 549.402147 
L 160.888112 614.924268 
L 167.391608 611.533079 
L 173.895105 583.385439 
L 180.398601 580.79423 
L 186.902098 601.62107 
L 193.405594 595.766407 
L 199.909091 600.936358 
L 206.412587 603.00085 
L 212.916084 612.268728 
L 219.41958 590.99111 
L 225.923077 546.311818 
L 232.426573 523.031217 
L 238.93007 554.405495 
L 245.433566 611.476701 
L 251.937063 521.197639 
L 258.440559 416.580031 
L 264.944056 389.034278 
L 271.447552 473.829348 
L 277.951049 520.405403 
L 284.454545 589.22122 
L 290.958042 565.87861 
L 297.461538 498.055033 
L 303.965035 485.482744 
L 310.468531 570.204416 
L 316.972028 528.804259 
L 323.475524 502.948493 
L 329.979021 494.017009 
L 336.482517 487.558736 
L 342.986014 445.627233 
L 349.48951 416.860088 
L 355.993007 418.430466 
L 362.496503 468.754519 
L 369 548.265494 
L 375.503497 597.324009 
L 382.006993 553.381408 
L 388.51049 611.576438 
L 395.013986 531.95012 
L 401.517483 527.485577 
L 408.020979 520.860274 
L 414.524476 493.246294 
L 421.027972 465.331918 
L 427.531469 442.662447 
L 434.034965 426.227924 
L 440.538462 429.53741 
L 447.041958 457.132424 
L 453.545455 499.740221 
L 460.048951 545.586284 
L 466.552448 583.194912 
L 473.055944 573.326886 
L 479.559441 544.012608 
L 486.062937 517.573626 
L 492.566434 494.738454 
L 499.06993 471.252483 
L 505.573427 452.986976 
L 512.076923 441.400035 
L 518.58042 429.94497 
L 525.083916 435.35733 
L 531.587413 454.768391 
L 538.090909 482.335623 
L 544.594406 510.760039 
L 551.097902 533.038327 
L 557.601399 532.391223 
L 564.104895 510.575733 
L 570.608392 493.239349 
L 577.111888 474.371421 
L 583.615385 459.870437 
L 590.118881 448.655088 
L 596.622378 437.312607 
L 603.125874 432.534297 
L 609.629371 438.79935 
L 616.132867 453.778501 
L 622.636364 473.268887 
" clip-path="url(#p902e63381d)" style="fill: none; stroke: #ff7f0e; stroke-width: 1.5; stroke-linecap: square"/>
   </g>
   <g id="line2d_21">
    <path d="M 115.363636 615.6 
L 121.867133 615.58074 
L 128.370629 610.904343 
L 134.874126 614.68592 
L 141.377622 612.120326 
L 147.881119 614.449757 
L 154.384615 615.329568 
L 160.888112 614.892999 
L 167.391608 611.533079 
L 173.895105 613.345402 
L 180.398601 614.863875 
L 186.902098 613.783963 
L 193.405594 615.487059 
L 199.909091 614.086843 
L 206.412587 610.008549 
L 212.916084 607.889079 
L 219.41958 613.74177 
L 225.923077 608.39518 
L 232.426573 599.727461 
L 238.93007 604.556726 
L 245.433566 605.579724 
L 251.937063 596.239455 
L 258.440559 604.843604 
L 264.944056 602.873037 
L 271.447552 602.75361 
L 277.951049 615.093781 
L 284.454545 603.560364 
L 290.958042 595.9427 
L 297.461538 606.494905 
L 303.965035 608.903729 
L 310.468531 592.243959 
L 316.972028 606.798257 
L 323.475524 602.965485 
L 329.979021 597.542467 
L 336.482517 610.008983 
L 342.986014 606.909665 
L 349.48951 598.210641 
L 355.993007 606.722583 
L 362.496503 603.276631 
L 369 602.125147 
L 375.503497 597.533851 
L 382.006993 611.330902 
L 388.51049 598.445867 
L 395.013986 607.259328 
L 401.517483 601.973744 
L 408.020979 605.716005 
L 414.524476 595.559109 
L 421.027972 612.507441 
L 427.531469 602.610594 
L 434.034965 607.747726 
L 440.538462 601.658097 
L 447.041958 604.92234 
L 453.545455 598.047738 
L 460.048951 606.164454 
L 466.552448 604.109879 
L 473.055944 607.544839 
L 479.559441 606.061349 
L 486.062937 606.915264 
L 492.566434 600.532922 
L 499.06993 595.466743 
L 505.573427 603.168781 
L 512.076923 606.8806 
L 518.58042 615.250842 
L 525.083916 608.48227 
L 531.587413 602.911174 
L 538.090909 595.55688 
L 544.594406 614.252444 
L 551.097902 607.627565 
L 557.601399 615.190349 
L 564.104895 610.633011 
L 570.608392 602.471276 
L 577.111888 599.634615 
L 583.615385 600.903224 
L 590.118881 609.085028 
L 596.622378 615.177876 
L 603.125874 612.168705 
L 609.629371 604.057785 
L 616.132867 598.434672 
L 622.636364 595.501203 
" clip-path="url(#p902e63381d)" style="fill: none; stroke: #2ca02c; stroke-width: 1.5; stroke-linecap: square"/>
   </g>
   <g id="line2d_22">
    <path d="M 115.363636 615.6 
L 121.867133 615.585356 
L 128.370629 615.551982 
L 134.874126 615.575805 
L 141.377622 615.5512 
L 147.881119 615.375141 
L 154.384615 615.445895 
L 160.888112 614.8361 
L 167.391608 615.041958 
L 173.895105 615.201116 
L 180.398601 615.054332 
L 186.902098 615.007473 
L 193.405594 614.313667 
L 199.909091 614.835351 
L 206.412587 614.524611 
L 212.916084 614.114662 
L 219.41958 613.98415 
L 225.923077 613.716984 
L 232.426573 612.224916 
L 238.93007 610.717593 
L 245.433566 608.180806 
L 251.937063 612.0594 
L 258.440559 612.566761 
L 264.944056 608.312246 
L 271.447552 611.877198 
L 277.951049 608.562695 
L 284.454545 612.963238 
L 290.958042 612.411819 
L 297.461538 610.864337 
L 303.965035 613.809234 
L 310.468531 613.589918 
L 316.972028 612.672603 
L 323.475524 613.833894 
L 329.979021 613.749058 
L 336.482517 614.191526 
L 342.986014 614.371209 
L 349.48951 613.832018 
L 355.993007 612.799036 
L 362.496503 613.617514 
L 369 614.369258 
L 375.503497 613.038016 
L 382.006993 613.959722 
L 388.51049 613.52826 
L 395.013986 613.985058 
L 401.517483 611.409684 
L 408.020979 614.458414 
L 414.524476 612.811961 
L 421.027972 614.168764 
L 427.531469 613.468123 
L 434.034965 613.762713 
L 440.538462 612.038364 
L 447.041958 611.884002 
L 453.545455 613.125219 
L 460.048951 613.610303 
L 466.552448 614.292931 
L 473.055944 613.982434 
L 479.559441 613.854335 
L 486.062937 614.597166 
L 492.566434 613.916337 
L 499.06993 611.27949 
L 505.573427 614.234037 
L 512.076923 614.459495 
L 518.58042 613.316675 
L 525.083916 611.846362 
L 531.587413 613.862899 
L 538.090909 614.142054 
L 544.594406 614.286231 
L 551.097902 613.461858 
L 557.601399 613.590987 
L 564.104895 613.978653 
L 570.608392 614.335354 
L 577.111888 614.314287 
L 583.615385 614.585852 
L 590.118881 614.376116 
L 596.622378 612.111833 
L 603.125874 614.685123 
L 609.629371 613.53348 
L 616.132867 613.553972 
L 622.636364 613.885794 
" clip-path="url(#p902e63381d)" style="fill: none; stroke: #d62728; stroke-width: 1.5; stroke-linecap: square"/>
   </g>
   <g id="patch_3">
    <path d="M 90 640.8 
L 90 86.4 
" style="fill: none; stroke: #000000; stroke-width: 0.8; stroke-linejoin: miter; stroke-linecap: square"/>
   </g>
   <g id="patch_4">
    <path d="M 648 640.8 
L 648 86.4 
" style="fill: none; stroke: #000000; stroke-width: 0.8; stroke-linejoin: miter; stroke-linecap: square"/>
   </g>
   <g id="patch_5">
    <path d="M 90 640.8 
L 648 640.8 
" style="fill: none; stroke: #000000; stroke-width: 0.8; stroke-linejoin: miter; stroke-linecap: square"/>
   </g>
   <g id="patch_6">
    <path d="M 90 86.4 
L 648 86.4 
" style="fill: none; stroke: #000000; stroke-width: 0.8; stroke-linejoin: miter; stroke-linecap: square"/>
   </g>
   <g id="text_19">
    <!-- Absolute difference with analytic solution depending on considered steady time -->
    <g transform="translate(129.19875 80.4) scale(0.12 -0.12)">
     <defs>
      <path id="DejaVuSans-41" d="M 2188 4044 
L 1331 1722 
L 3047 1722 
L 2188 4044 
z
M 1831 4666 
L 2547 4666 
L 4325 0 
L 3669 0 
L 3244 1197 
L 1141 1197 
L 716 0 
L 50 0 
L 1831 4666 
z
" transform="scale(0.015625)"/>
      <path id="DejaVuSans-62" d="M 3116 1747 
Q 3116 2381 2855 2742 
Q 2594 3103 2138 3103 
Q 1681 3103 1420 2742 
Q 1159 2381 1159 1747 
Q 1159 1113 1420 752 
Q 1681 391 2138 391 
Q 2594 391 2855 752 
Q 3116 1113 3116 1747 
z
M 1159 2969 
Q 1341 3281 1617 3432 
Q 1894 3584 2278 3584 
Q 2916 3584 3314 3078 
Q 3713 2572 3713 1747 
Q 3713 922 3314 415 
Q 2916 -91 2278 -91 
Q 1894 -91 1617 61 
Q 1341 213 1159 525 
L 1159 0 
L 581 0 
L 581 4863 
L 1159 4863 
L 1159 2969 
z
" transform="scale(0.015625)"/>
      <path id="DejaVuSans-73" d="M 2834 3397 
L 2834 2853 
Q 2591 2978 2328 3040 
Q 2066 3103 1784 3103 
Q 1356 3103 1142 2972 
Q 928 2841 928 2578 
Q 928 2378 1081 2264 
Q 1234 2150 1697 2047 
L 1894 2003 
Q 2506 1872 2764 1633 
Q 3022 1394 3022 966 
Q 3022 478 2636 193 
Q 2250 -91 1575 -91 
Q 1294 -91 989 -36 
Q 684 19 347 128 
L 347 722 
Q 666 556 975 473 
Q 1284 391 1588 391 
Q 1994 391 2212 530 
Q 2431 669 2431 922 
Q 2431 1156 2273 1281 
Q 2116 1406 1581 1522 
L 1381 1569 
Q 847 1681 609 1914 
Q 372 2147 372 2553 
Q 372 3047 722 3315 
Q 1072 3584 1716 3584 
Q 2034 3584 2315 3537 
Q 2597 3491 2834 3397 
z
" transform="scale(0.015625)"/>
      <path id="DejaVuSans-6f" d="M 1959 3097 
Q 1497 3097 1228 2736 
Q 959 2375 959 1747 
Q 959 1119 1226 758 
Q 1494 397 1959 397 
Q 2419 397 2687 759 
Q 2956 1122 2956 1747 
Q 2956 2369 2687 2733 
Q 2419 3097 1959 3097 
z
M 1959 3584 
Q 2709 3584 3137 3096 
Q 3566 2609 3566 1747 
Q 3566 888 3137 398 
Q 2709 -91 1959 -91 
Q 1206 -91 779 398 
Q 353 888 353 1747 
Q 353 2609 779 3096 
Q 1206 3584 1959 3584 
z
" transform="scale(0.015625)"/>
      <path id="DejaVuSans-6c" d="M 603 4863 
L 1178 4863 
L 1178 0 
L 603 0 
L 603 4863 
z
" transform="scale(0.015625)"/>
      <path id="DejaVuSans-75" d="M 544 1381 
L 544 3500 
L 1119 3500 
L 1119 1403 
Q 1119 906 1312 657 
Q 1506 409 1894 409 
Q 2359 409 2629 706 
Q 2900 1003 2900 1516 
L 2900 3500 
L 3475 3500 
L 3475 0 
L 2900 0 
L 2900 538 
Q 2691 219 2414 64 
Q 2138 -91 1772 -91 
Q 1169 -91 856 284 
Q 544 659 544 1381 
z
M 1991 3584 
L 1991 3584 
z
" transform="scale(0.015625)"/>
      <path id="DejaVuSans-74" d="M 1172 4494 
L 1172 3500 
L 2356 3500 
L 2356 3053 
L 1172 3053 
L 1172 1153 
Q 1172 725 1289 603 
Q 1406 481 1766 481 
L 2356 481 
L 2356 0 
L 1766 0 
Q 1100 0 847 248 
Q 594 497 594 1153 
L 594 3053 
L 172 3053 
L 172 3500 
L 594 3500 
L 594 4494 
L 1172 4494 
z
" transform="scale(0.015625)"/>
      <path id="DejaVuSans-65" d="M 3597 1894 
L 3597 1613 
L 953 1613 
Q 991 1019 1311 708 
Q 1631 397 2203 397 
Q 2534 397 2845 478 
Q 3156 559 3463 722 
L 3463 178 
Q 3153 47 2828 -22 
Q 2503 -91 2169 -91 
Q 1331 -91 842 396 
Q 353 884 353 1716 
Q 353 2575 817 3079 
Q 1281 3584 2069 3584 
Q 2775 3584 3186 3129 
Q 3597 2675 3597 1894 
z
M 3022 2063 
Q 3016 2534 2758 2815 
Q 2500 3097 2075 3097 
Q 1594 3097 1305 2825 
Q 1016 2553 972 2059 
L 3022 2063 
z
" transform="scale(0.015625)"/>
      <path id="DejaVuSans-20" transform="scale(0.015625)"/>
      <path id="DejaVuSans-64" d="M 2906 2969 
L 2906 4863 
L 3481 4863 
L 3481 0 
L 2906 0 
L 2906 525 
Q 2725 213 2448 61 
Q 2172 -91 1784 -91 
Q 1150 -91 751 415 
Q 353 922 353 1747 
Q 353 2572 751 3078 
Q 1150 3584 1784 3584 
Q 2172 3584 2448 3432 
Q 2725 3281 2906 2969 
z
M 947 1747 
Q 947 1113 1208 752 
Q 1469 391 1925 391 
Q 2381 391 2643 752 
Q 2906 1113 2906 1747 
Q 2906 2381 2643 2742 
Q 2381 3103 1925 3103 
Q 1469 3103 1208 2742 
Q 947 2381 947 1747 
z
" transform="scale(0.015625)"/>
      <path id="DejaVuSans-69" d="M 603 3500 
L 1178 3500 
L 1178 0 
L 603 0 
L 603 3500 
z
M 603 4863 
L 1178 4863 
L 1178 4134 
L 603 4134 
L 603 4863 
z
" transform="scale(0.015625)"/>
      <path id="DejaVuSans-66" d="M 2375 4863 
L 2375 4384 
L 1825 4384 
Q 1516 4384 1395 4259 
Q 1275 4134 1275 3809 
L 1275 3500 
L 2222 3500 
L 2222 3053 
L 1275 3053 
L 1275 0 
L 697 0 
L 697 3053 
L 147 3053 
L 147 3500 
L 697 3500 
L 697 3744 
Q 697 4328 969 4595 
Q 1241 4863 1831 4863 
L 2375 4863 
z
" transform="scale(0.015625)"/>
      <path id="DejaVuSans-72" d="M 2631 2963 
Q 2534 3019 2420 3045 
Q 2306 3072 2169 3072 
Q 1681 3072 1420 2755 
Q 1159 2438 1159 1844 
L 1159 0 
L 581 0 
L 581 3500 
L 1159 3500 
L 1159 2956 
Q 1341 3275 1631 3429 
Q 1922 3584 2338 3584 
Q 2397 3584 2469 3576 
Q 2541 3569 2628 3553 
L 2631 2963 
z
" transform="scale(0.015625)"/>
      <path id="DejaVuSans-6e" d="M 3513 2113 
L 3513 0 
L 2938 0 
L 2938 2094 
Q 2938 2591 2744 2837 
Q 2550 3084 2163 3084 
Q 1697 3084 1428 2787 
Q 1159 2491 1159 1978 
L 1159 0 
L 581 0 
L 581 3500 
L 1159 3500 
L 1159 2956 
Q 1366 3272 1645 3428 
Q 1925 3584 2291 3584 
Q 2894 3584 3203 3211 
Q 3513 2838 3513 2113 
z
" transform="scale(0.015625)"/>
      <path id="DejaVuSans-63" d="M 3122 3366 
L 3122 2828 
Q 2878 2963 2633 3030 
Q 2388 3097 2138 3097 
Q 1578 3097 1268 2742 
Q 959 2388 959 1747 
Q 959 1106 1268 751 
Q 1578 397 2138 397 
Q 2388 397 2633 464 
Q 2878 531 3122 666 
L 3122 134 
Q 2881 22 2623 -34 
Q 2366 -91 2075 -91 
Q 1284 -91 818 406 
Q 353 903 353 1747 
Q 353 2603 823 3093 
Q 1294 3584 2113 3584 
Q 2378 3584 2631 3529 
Q 2884 3475 3122 3366 
z
" transform="scale(0.015625)"/>
      <path id="DejaVuSans-77" d="M 269 3500 
L 844 3500 
L 1563 769 
L 2278 3500 
L 2956 3500 
L 3675 769 
L 4391 3500 
L 4966 3500 
L 4050 0 
L 3372 0 
L 2619 2869 
L 1863 0 
L 1184 0 
L 269 3500 
z
" transform="scale(0.015625)"/>
      <path id="DejaVuSans-68" d="M 3513 2113 
L 3513 0 
L 2938 0 
L 2938 2094 
Q 2938 2591 2744 2837 
Q 2550 3084 2163 3084 
Q 1697 3084 1428 2787 
Q 1159 2491 1159 1978 
L 1159 0 
L 581 0 
L 581 4863 
L 1159 4863 
L 1159 2956 
Q 1366 3272 1645 3428 
Q 1925 3584 2291 3584 
Q 2894 3584 3203 3211 
Q 3513 2838 3513 2113 
z
" transform="scale(0.015625)"/>
      <path id="DejaVuSans-61" d="M 2194 1759 
Q 1497 1759 1228 1600 
Q 959 1441 959 1056 
Q 959 750 1161 570 
Q 1363 391 1709 391 
Q 2188 391 2477 730 
Q 2766 1069 2766 1631 
L 2766 1759 
L 2194 1759 
z
M 3341 1997 
L 3341 0 
L 2766 0 
L 2766 531 
Q 2569 213 2275 61 
Q 1981 -91 1556 -91 
Q 1019 -91 701 211 
Q 384 513 384 1019 
Q 384 1609 779 1909 
Q 1175 2209 1959 2209 
L 2766 2209 
L 2766 2266 
Q 2766 2663 2505 2880 
Q 2244 3097 1772 3097 
Q 1472 3097 1187 3025 
Q 903 2953 641 2809 
L 641 3341 
Q 956 3463 1253 3523 
Q 1550 3584 1831 3584 
Q 2591 3584 2966 3190 
Q 3341 2797 3341 1997 
z
" transform="scale(0.015625)"/>
      <path id="DejaVuSans-79" d="M 2059 -325 
Q 1816 -950 1584 -1140 
Q 1353 -1331 966 -1331 
L 506 -1331 
L 506 -850 
L 844 -850 
Q 1081 -850 1212 -737 
Q 1344 -625 1503 -206 
L 1606 56 
L 191 3500 
L 800 3500 
L 1894 763 
L 2988 3500 
L 3597 3500 
L 2059 -325 
z
" transform="scale(0.015625)"/>
      <path id="DejaVuSans-70" d="M 1159 525 
L 1159 -1331 
L 581 -1331 
L 581 3500 
L 1159 3500 
L 1159 2969 
Q 1341 3281 1617 3432 
Q 1894 3584 2278 3584 
Q 2916 3584 3314 3078 
Q 3713 2572 3713 1747 
Q 3713 922 3314 415 
Q 2916 -91 2278 -91 
Q 1894 -91 1617 61 
Q 1341 213 1159 525 
z
M 3116 1747 
Q 3116 2381 2855 2742 
Q 2594 3103 2138 3103 
Q 1681 3103 1420 2742 
Q 1159 2381 1159 1747 
Q 1159 1113 1420 752 
Q 1681 391 2138 391 
Q 2594 391 2855 752 
Q 3116 1113 3116 1747 
z
" transform="scale(0.015625)"/>
      <path id="DejaVuSans-67" d="M 2906 1791 
Q 2906 2416 2648 2759 
Q 2391 3103 1925 3103 
Q 1463 3103 1205 2759 
Q 947 2416 947 1791 
Q 947 1169 1205 825 
Q 1463 481 1925 481 
Q 2391 481 2648 825 
Q 2906 1169 2906 1791 
z
M 3481 434 
Q 3481 -459 3084 -895 
Q 2688 -1331 1869 -1331 
Q 1566 -1331 1297 -1286 
Q 1028 -1241 775 -1147 
L 775 -588 
Q 1028 -725 1275 -790 
Q 1522 -856 1778 -856 
Q 2344 -856 2625 -561 
Q 2906 -266 2906 331 
L 2906 616 
Q 2728 306 2450 153 
Q 2172 0 1784 0 
Q 1141 0 747 490 
Q 353 981 353 1791 
Q 353 2603 747 3093 
Q 1141 3584 1784 3584 
Q 2172 3584 2450 3431 
Q 2728 3278 2906 2969 
L 2906 3500 
L 3481 3500 
L 3481 434 
z
" transform="scale(0.015625)"/>
      <path id="DejaVuSans-6d" d="M 3328 2828 
Q 3544 3216 3844 3400 
Q 4144 3584 4550 3584 
Q 5097 3584 5394 3201 
Q 5691 2819 5691 2113 
L 5691 0 
L 5113 0 
L 5113 2094 
Q 5113 2597 4934 2840 
Q 4756 3084 4391 3084 
Q 3944 3084 3684 2787 
Q 3425 2491 3425 1978 
L 3425 0 
L 2847 0 
L 2847 2094 
Q 2847 2600 2669 2842 
Q 2491 3084 2119 3084 
Q 1678 3084 1418 2786 
Q 1159 2488 1159 1978 
L 1159 0 
L 581 0 
L 581 3500 
L 1159 3500 
L 1159 2956 
Q 1356 3278 1631 3431 
Q 1906 3584 2284 3584 
Q 2666 3584 2933 3390 
Q 3200 3197 3328 2828 
z
" transform="scale(0.015625)"/>
     </defs>
     <use xlink:href="#DejaVuSans-41"/>
     <use xlink:href="#DejaVuSans-62" x="68.408203"/>
     <use xlink:href="#DejaVuSans-73" x="131.884766"/>
     <use xlink:href="#DejaVuSans-6f" x="183.984375"/>
     <use xlink:href="#DejaVuSans-6c" x="245.166016"/>
     <use xlink:href="#DejaVuSans-75" x="272.949219"/>
     <use xlink:href="#DejaVuSans-74" x="336.328125"/>
     <use xlink:href="#DejaVuSans-65" x="375.537109"/>
     <use xlink:href="#DejaVuSans-20" x="437.060547"/>
     <use xlink:href="#DejaVuSans-64" x="468.847656"/>
     <use xlink:href="#DejaVuSans-69" x="532.324219"/>
     <use xlink:href="#DejaVuSans-66" x="560.107422"/>
     <use xlink:href="#DejaVuSans-66" x="595.3125"/>
     <use xlink:href="#DejaVuSans-65" x="630.517578"/>
     <use xlink:href="#DejaVuSans-72" x="692.041016"/>
     <use xlink:href="#DejaVuSans-65" x="730.904297"/>
     <use xlink:href="#DejaVuSans-6e" x="792.427734"/>
     <use xlink:href="#DejaVuSans-63" x="855.806641"/>
     <use xlink:href="#DejaVuSans-65" x="910.787109"/>
     <use xlink:href="#DejaVuSans-20" x="972.310547"/>
     <use xlink:href="#DejaVuSans-77" x="1004.097656"/>
     <use xlink:href="#DejaVuSans-69" x="1085.884766"/>
     <use xlink:href="#DejaVuSans-74" x="1113.667969"/>
     <use xlink:href="#DejaVuSans-68" x="1152.876953"/>
     <use xlink:href="#DejaVuSans-20" x="1216.255859"/>
     <use xlink:href="#DejaVuSans-61" x="1248.042969"/>
     <use xlink:href="#DejaVuSans-6e" x="1309.322266"/>
     <use xlink:href="#DejaVuSans-61" x="1372.701172"/>
     <use xlink:href="#DejaVuSans-6c" x="1433.980469"/>
     <use xlink:href="#DejaVuSans-79" x="1461.763672"/>
     <use xlink:href="#DejaVuSans-74" x="1520.943359"/>
     <use xlink:href="#DejaVuSans-69" x="1560.152344"/>
     <use xlink:href="#DejaVuSans-63" x="1587.935547"/>
     <use xlink:href="#DejaVuSans-20" x="1642.916016"/>
     <use xlink:href="#DejaVuSans-73" x="1674.703125"/>
     <use xlink:href="#DejaVuSans-6f" x="1726.802734"/>
     <use xlink:href="#DejaVuSans-6c" x="1787.984375"/>
     <use xlink:href="#DejaVuSans-75" x="1815.767578"/>
     <use xlink:href="#DejaVuSans-74" x="1879.146484"/>
     <use xlink:href="#DejaVuSans-69" x="1918.355469"/>
     <use xlink:href="#DejaVuSans-6f" x="1946.138672"/>
     <use xlink:href="#DejaVuSans-6e" x="2007.320312"/>
     <use xlink:href="#DejaVuSans-20" x="2070.699219"/>
     <use xlink:href="#DejaVuSans-64" x="2102.486328"/>
     <use xlink:href="#DejaVuSans-65" x="2165.962891"/>
     <use xlink:href="#DejaVuSans-70" x="2227.486328"/>
     <use xlink:href="#DejaVuSans-65" x="2290.962891"/>
     <use xlink:href="#DejaVuSans-6e" x="2352.486328"/>
     <use xlink:href="#DejaVuSans-64" x="2415.865234"/>
     <use xlink:href="#DejaVuSans-69" x="2479.341797"/>
     <use xlink:href="#DejaVuSans-6e" x="2507.125"/>
     <use xlink:href="#DejaVuSans-67" x="2570.503906"/>
     <use xlink:href="#DejaVuSans-20" x="2633.980469"/>
     <use xlink:href="#DejaVuSans-6f" x="2665.767578"/>
     <use xlink:href="#DejaVuSans-6e" x="2726.949219"/>
     <use xlink:href="#DejaVuSans-20" x="2790.328125"/>
     <use xlink:href="#DejaVuSans-63" x="2822.115234"/>
     <use xlink:href="#DejaVuSans-6f" x="2877.095703"/>
     <use xlink:href="#DejaVuSans-6e" x="2938.277344"/>
     <use xlink:href="#DejaVuSans-73" x="3001.65625"/>
     <use xlink:href="#DejaVuSans-69" x="3053.755859"/>
     <use xlink:href="#DejaVuSans-64" x="3081.539062"/>
     <use xlink:href="#DejaVuSans-65" x="3145.015625"/>
     <use xlink:href="#DejaVuSans-72" x="3206.539062"/>
     <use xlink:href="#DejaVuSans-65" x="3245.402344"/>
     <use xlink:href="#DejaVuSans-64" x="3306.925781"/>
     <use xlink:href="#DejaVuSans-20" x="3370.402344"/>
     <use xlink:href="#DejaVuSans-73" x="3402.189453"/>
     <use xlink:href="#DejaVuSans-74" x="3454.289062"/>
     <use xlink:href="#DejaVuSans-65" x="3493.498047"/>
     <use xlink:href="#DejaVuSans-61" x="3555.021484"/>
     <use xlink:href="#DejaVuSans-64" x="3616.300781"/>
     <use xlink:href="#DejaVuSans-79" x="3679.777344"/>
     <use xlink:href="#DejaVuSans-20" x="3738.957031"/>
     <use xlink:href="#DejaVuSans-74" x="3770.744141"/>
     <use xlink:href="#DejaVuSans-69" x="3809.953125"/>
     <use xlink:href="#DejaVuSans-6d" x="3837.736328"/>
     <use xlink:href="#DejaVuSans-65" x="3935.148438"/>
    </g>
   </g>
   <g id="legend_1">
    <g id="patch_7">
     <path d="M 434.226562 154.225 
L 641 154.225 
Q 643 154.225 643 152.225 
L 643 93.4 
Q 643 91.4 641 91.4 
L 434.226562 91.4 
Q 432.226562 91.4 432.226562 93.4 
L 432.226562 152.225 
Q 432.226562 154.225 434.226562 154.225 
z
" style="fill: #ffffff; opacity: 0.8; stroke: #cccccc; stroke-linejoin: miter"/>
    </g>
    <g id="line2d_23">
     <path d="M 436.226562 99.498437 
L 446.226562 99.498437 
L 456.226562 99.498437 
" style="fill: none; stroke: #1f77b4; stroke-width: 1.5; stroke-linecap: square"/>
    </g>
    <g id="text_20">
     <!-- AFC for steady_time_multiplier = 1 -->
     <g transform="translate(464.226562 102.998437) scale(0.1 -0.1)">
      <defs>
       <path id="DejaVuSans-46" d="M 628 4666 
L 3309 4666 
L 3309 4134 
L 1259 4134 
L 1259 2759 
L 3109 2759 
L 3109 2228 
L 1259 2228 
L 1259 0 
L 628 0 
L 628 4666 
z
" transform="scale(0.015625)"/>
       <path id="DejaVuSans-43" d="M 4122 4306 
L 4122 3641 
Q 3803 3938 3442 4084 
Q 3081 4231 2675 4231 
Q 1875 4231 1450 3742 
Q 1025 3253 1025 2328 
Q 1025 1406 1450 917 
Q 1875 428 2675 428 
Q 3081 428 3442 575 
Q 3803 722 4122 1019 
L 4122 359 
Q 3791 134 3420 21 
Q 3050 -91 2638 -91 
Q 1578 -91 968 557 
Q 359 1206 359 2328 
Q 359 3453 968 4101 
Q 1578 4750 2638 4750 
Q 3056 4750 3426 4639 
Q 3797 4528 4122 4306 
z
" transform="scale(0.015625)"/>
       <path id="DejaVuSans-5f" d="M 3263 -1063 
L 3263 -1509 
L -63 -1509 
L -63 -1063 
L 3263 -1063 
z
" transform="scale(0.015625)"/>
       <path id="DejaVuSans-3d" d="M 678 2906 
L 4684 2906 
L 4684 2381 
L 678 2381 
L 678 2906 
z
M 678 1631 
L 4684 1631 
L 4684 1100 
L 678 1100 
L 678 1631 
z
" transform="scale(0.015625)"/>
      </defs>
      <use xlink:href="#DejaVuSans-41"/>
      <use xlink:href="#DejaVuSans-46" x="68.408203"/>
      <use xlink:href="#DejaVuSans-43" x="125.927734"/>
      <use xlink:href="#DejaVuSans-20" x="195.751953"/>
      <use xlink:href="#DejaVuSans-66" x="227.539062"/>
      <use xlink:href="#DejaVuSans-6f" x="262.744141"/>
      <use xlink:href="#DejaVuSans-72" x="323.925781"/>
      <use xlink:href="#DejaVuSans-20" x="365.039062"/>
      <use xlink:href="#DejaVuSans-73" x="396.826172"/>
      <use xlink:href="#DejaVuSans-74" x="448.925781"/>
      <use xlink:href="#DejaVuSans-65" x="488.134766"/>
      <use xlink:href="#DejaVuSans-61" x="549.658203"/>
      <use xlink:href="#DejaVuSans-64" x="610.9375"/>
      <use xlink:href="#DejaVuSans-79" x="674.414062"/>
      <use xlink:href="#DejaVuSans-5f" x="733.59375"/>
      <use xlink:href="#DejaVuSans-74" x="783.59375"/>
      <use xlink:href="#DejaVuSans-69" x="822.802734"/>
      <use xlink:href="#DejaVuSans-6d" x="850.585938"/>
      <use xlink:href="#DejaVuSans-65" x="947.998047"/>
      <use xlink:href="#DejaVuSans-5f" x="1009.521484"/>
      <use xlink:href="#DejaVuSans-6d" x="1059.521484"/>
      <use xlink:href="#DejaVuSans-75" x="1156.933594"/>
      <use xlink:href="#DejaVuSans-6c" x="1220.3125"/>
      <use xlink:href="#DejaVuSans-74" x="1248.095703"/>
      <use xlink:href="#DejaVuSans-69" x="1287.304688"/>
      <use xlink:href="#DejaVuSans-70" x="1315.087891"/>
      <use xlink:href="#DejaVuSans-6c" x="1378.564453"/>
      <use xlink:href="#DejaVuSans-69" x="1406.347656"/>
      <use xlink:href="#DejaVuSans-65" x="1434.130859"/>
      <use xlink:href="#DejaVuSans-72" x="1495.654297"/>
      <use xlink:href="#DejaVuSans-20" x="1536.767578"/>
      <use xlink:href="#DejaVuSans-3d" x="1568.554688"/>
      <use xlink:href="#DejaVuSans-20" x="1652.34375"/>
      <use xlink:href="#DejaVuSans-31" x="1684.130859"/>
     </g>
    </g>
    <g id="line2d_24">
     <path d="M 436.226562 114.454687 
L 446.226562 114.454687 
L 456.226562 114.454687 
" style="fill: none; stroke: #ff7f0e; stroke-width: 1.5; stroke-linecap: square"/>
    </g>
    <g id="text_21">
     <!-- AFC for steady_time_multiplier = 2 -->
     <g transform="translate(464.226562 117.954687) scale(0.1 -0.1)">
      <use xlink:href="#DejaVuSans-41"/>
      <use xlink:href="#DejaVuSans-46" x="68.408203"/>
      <use xlink:href="#DejaVuSans-43" x="125.927734"/>
      <use xlink:href="#DejaVuSans-20" x="195.751953"/>
      <use xlink:href="#DejaVuSans-66" x="227.539062"/>
      <use xlink:href="#DejaVuSans-6f" x="262.744141"/>
      <use xlink:href="#DejaVuSans-72" x="323.925781"/>
      <use xlink:href="#DejaVuSans-20" x="365.039062"/>
      <use xlink:href="#DejaVuSans-73" x="396.826172"/>
      <use xlink:href="#DejaVuSans-74" x="448.925781"/>
      <use xlink:href="#DejaVuSans-65" x="488.134766"/>
      <use xlink:href="#DejaVuSans-61" x="549.658203"/>
      <use xlink:href="#DejaVuSans-64" x="610.9375"/>
      <use xlink:href="#DejaVuSans-79" x="674.414062"/>
      <use xlink:href="#DejaVuSans-5f" x="733.59375"/>
      <use xlink:href="#DejaVuSans-74" x="783.59375"/>
      <use xlink:href="#DejaVuSans-69" x="822.802734"/>
      <use xlink:href="#DejaVuSans-6d" x="850.585938"/>
      <use xlink:href="#DejaVuSans-65" x="947.998047"/>
      <use xlink:href="#DejaVuSans-5f" x="1009.521484"/>
      <use xlink:href="#DejaVuSans-6d" x="1059.521484"/>
      <use xlink:href="#DejaVuSans-75" x="1156.933594"/>
      <use xlink:href="#DejaVuSans-6c" x="1220.3125"/>
      <use xlink:href="#DejaVuSans-74" x="1248.095703"/>
      <use xlink:href="#DejaVuSans-69" x="1287.304688"/>
      <use xlink:href="#DejaVuSans-70" x="1315.087891"/>
      <use xlink:href="#DejaVuSans-6c" x="1378.564453"/>
      <use xlink:href="#DejaVuSans-69" x="1406.347656"/>
      <use xlink:href="#DejaVuSans-65" x="1434.130859"/>
      <use xlink:href="#DejaVuSans-72" x="1495.654297"/>
      <use xlink:href="#DejaVuSans-20" x="1536.767578"/>
      <use xlink:href="#DejaVuSans-3d" x="1568.554688"/>
      <use xlink:href="#DejaVuSans-20" x="1652.34375"/>
      <use xlink:href="#DejaVuSans-32" x="1684.130859"/>
     </g>
    </g>
    <g id="line2d_25">
     <path d="M 436.226562 129.410937 
L 446.226562 129.410937 
L 456.226562 129.410937 
" style="fill: none; stroke: #2ca02c; stroke-width: 1.5; stroke-linecap: square"/>
    </g>
    <g id="text_22">
     <!-- AFC for steady_time_multiplier = 4 -->
     <g transform="translate(464.226562 132.910937) scale(0.1 -0.1)">
      <use xlink:href="#DejaVuSans-41"/>
      <use xlink:href="#DejaVuSans-46" x="68.408203"/>
      <use xlink:href="#DejaVuSans-43" x="125.927734"/>
      <use xlink:href="#DejaVuSans-20" x="195.751953"/>
      <use xlink:href="#DejaVuSans-66" x="227.539062"/>
      <use xlink:href="#DejaVuSans-6f" x="262.744141"/>
      <use xlink:href="#DejaVuSans-72" x="323.925781"/>
      <use xlink:href="#DejaVuSans-20" x="365.039062"/>
      <use xlink:href="#DejaVuSans-73" x="396.826172"/>
      <use xlink:href="#DejaVuSans-74" x="448.925781"/>
      <use xlink:href="#DejaVuSans-65" x="488.134766"/>
      <use xlink:href="#DejaVuSans-61" x="549.658203"/>
      <use xlink:href="#DejaVuSans-64" x="610.9375"/>
      <use xlink:href="#DejaVuSans-79" x="674.414062"/>
      <use xlink:href="#DejaVuSans-5f" x="733.59375"/>
      <use xlink:href="#DejaVuSans-74" x="783.59375"/>
      <use xlink:href="#DejaVuSans-69" x="822.802734"/>
      <use xlink:href="#DejaVuSans-6d" x="850.585938"/>
      <use xlink:href="#DejaVuSans-65" x="947.998047"/>
      <use xlink:href="#DejaVuSans-5f" x="1009.521484"/>
      <use xlink:href="#DejaVuSans-6d" x="1059.521484"/>
      <use xlink:href="#DejaVuSans-75" x="1156.933594"/>
      <use xlink:href="#DejaVuSans-6c" x="1220.3125"/>
      <use xlink:href="#DejaVuSans-74" x="1248.095703"/>
      <use xlink:href="#DejaVuSans-69" x="1287.304688"/>
      <use xlink:href="#DejaVuSans-70" x="1315.087891"/>
      <use xlink:href="#DejaVuSans-6c" x="1378.564453"/>
      <use xlink:href="#DejaVuSans-69" x="1406.347656"/>
      <use xlink:href="#DejaVuSans-65" x="1434.130859"/>
      <use xlink:href="#DejaVuSans-72" x="1495.654297"/>
      <use xlink:href="#DejaVuSans-20" x="1536.767578"/>
      <use xlink:href="#DejaVuSans-3d" x="1568.554688"/>
      <use xlink:href="#DejaVuSans-20" x="1652.34375"/>
      <use xlink:href="#DejaVuSans-34" x="1684.130859"/>
     </g>
    </g>
    <g id="line2d_26">
     <path d="M 436.226562 144.367187 
L 446.226562 144.367187 
L 456.226562 144.367187 
" style="fill: none; stroke: #d62728; stroke-width: 1.5; stroke-linecap: square"/>
    </g>
    <g id="text_23">
     <!-- AFC for steady_time_multiplier = 8 -->
     <g transform="translate(464.226562 147.867187) scale(0.1 -0.1)">
      <use xlink:href="#DejaVuSans-41"/>
      <use xlink:href="#DejaVuSans-46" x="68.408203"/>
      <use xlink:href="#DejaVuSans-43" x="125.927734"/>
      <use xlink:href="#DejaVuSans-20" x="195.751953"/>
      <use xlink:href="#DejaVuSans-66" x="227.539062"/>
      <use xlink:href="#DejaVuSans-6f" x="262.744141"/>
      <use xlink:href="#DejaVuSans-72" x="323.925781"/>
      <use xlink:href="#DejaVuSans-20" x="365.039062"/>
      <use xlink:href="#DejaVuSans-73" x="396.826172"/>
      <use xlink:href="#DejaVuSans-74" x="448.925781"/>
      <use xlink:href="#DejaVuSans-65" x="488.134766"/>
      <use xlink:href="#DejaVuSans-61" x="549.658203"/>
      <use xlink:href="#DejaVuSans-64" x="610.9375"/>
      <use xlink:href="#DejaVuSans-79" x="674.414062"/>
      <use xlink:href="#DejaVuSans-5f" x="733.59375"/>
      <use xlink:href="#DejaVuSans-74" x="783.59375"/>
      <use xlink:href="#DejaVuSans-69" x="822.802734"/>
      <use xlink:href="#DejaVuSans-6d" x="850.585938"/>
      <use xlink:href="#DejaVuSans-65" x="947.998047"/>
      <use xlink:href="#DejaVuSans-5f" x="1009.521484"/>
      <use xlink:href="#DejaVuSans-6d" x="1059.521484"/>
      <use xlink:href="#DejaVuSans-75" x="1156.933594"/>
      <use xlink:href="#DejaVuSans-6c" x="1220.3125"/>
      <use xlink:href="#DejaVuSans-74" x="1248.095703"/>
      <use xlink:href="#DejaVuSans-69" x="1287.304688"/>
      <use xlink:href="#DejaVuSans-70" x="1315.087891"/>
      <use xlink:href="#DejaVuSans-6c" x="1378.564453"/>
      <use xlink:href="#DejaVuSans-69" x="1406.347656"/>
      <use xlink:href="#DejaVuSans-65" x="1434.130859"/>
      <use xlink:href="#DejaVuSans-72" x="1495.654297"/>
      <use xlink:href="#DejaVuSans-20" x="1536.767578"/>
      <use xlink:href="#DejaVuSans-3d" x="1568.554688"/>
      <use xlink:href="#DejaVuSans-20" x="1652.34375"/>
      <use xlink:href="#DejaVuSans-38" x="1684.130859"/>
     </g>
    </g>
   </g>
  </g>
 </g>
 <defs>
  <clipPath id="p902e63381d">
   <rect x="90" y="86.4" width="558" height="554.4"/>
  </clipPath>
 </defs>
</svg>
