<?xml version="1.0" encoding="utf-8" standalone="no"?>
<!DOCTYPE svg PUBLIC "-//W3C//DTD SVG 1.1//EN"
  "http://www.w3.org/Graphics/SVG/1.1/DTD/svg11.dtd">
<svg xmlns:xlink="http://www.w3.org/1999/xlink" width="720pt" height="720pt" viewBox="0 0 720 720" xmlns="http://www.w3.org/2000/svg" version="1.1">
 <metadata>
  <rdf:RDF xmlns:dc="http://purl.org/dc/elements/1.1/" xmlns:cc="http://creativecommons.org/ns#" xmlns:rdf="http://www.w3.org/1999/02/22-rdf-syntax-ns#">
   <cc:Work>
    <dc:type rdf:resource="http://purl.org/dc/dcmitype/StillImage"/>
    <dc:date>2023-10-06T20:11:21.347003</dc:date>
    <dc:format>image/svg+xml</dc:format>
    <dc:creator>
     <cc:Agent>
      <dc:title>Matplotlib v3.8.0, https://matplotlib.org/</dc:title>
     </cc:Agent>
    </dc:creator>
   </cc:Work>
  </rdf:RDF>
 </metadata>
 <defs>
  <style type="text/css">*{stroke-linejoin: round; stroke-linecap: butt}</style>
 </defs>
 <g id="figure_1">
  <g id="patch_1">
   <path d="M 0 720 
L 720 720 
L 720 0 
L 0 0 
z
" style="fill: #ffffff"/>
  </g>
  <g id="axes_1">
   <g id="patch_2">
    <path d="M 90 640.8 
L 648 640.8 
L 648 86.4 
L 90 86.4 
z
" style="fill: #ffffff"/>
   </g>
   <g id="matplotlib.axis_1">
    <g id="xtick_1">
     <g id="line2d_1">
      <defs>
       <path id="m140a89abcf" d="M 0 0 
L 0 3.5 
" style="stroke: #000000; stroke-width: 0.8"/>
      </defs>
      <g>
       <use xlink:href="#m140a89abcf" x="115.363636" y="640.8" style="stroke: #000000; stroke-width: 0.8"/>
      </g>
     </g>
     <g id="text_1">
      <!-- 0 -->
      <g transform="translate(112.182386 655.398438) scale(0.1 -0.1)">
       <defs>
        <path id="DejaVuSans-30" d="M 2034 4250 
Q 1547 4250 1301 3770 
Q 1056 3291 1056 2328 
Q 1056 1369 1301 889 
Q 1547 409 2034 409 
Q 2525 409 2770 889 
Q 3016 1369 3016 2328 
Q 3016 3291 2770 3770 
Q 2525 4250 2034 4250 
z
M 2034 4750 
Q 2819 4750 3233 4129 
Q 3647 3509 3647 2328 
Q 3647 1150 3233 529 
Q 2819 -91 2034 -91 
Q 1250 -91 836 529 
Q 422 1150 422 2328 
Q 422 3509 836 4129 
Q 1250 4750 2034 4750 
z
" transform="scale(0.015625)"/>
       </defs>
       <use xlink:href="#DejaVuSans-30"/>
      </g>
     </g>
    </g>
    <g id="xtick_2">
     <g id="line2d_2">
      <g>
       <use xlink:href="#m140a89abcf" x="216.818182" y="640.8" style="stroke: #000000; stroke-width: 0.8"/>
      </g>
     </g>
     <g id="text_2">
      <!-- 20 -->
      <g transform="translate(210.455682 655.398438) scale(0.1 -0.1)">
       <defs>
        <path id="DejaVuSans-32" d="M 1228 531 
L 3431 531 
L 3431 0 
L 469 0 
L 469 531 
Q 828 903 1448 1529 
Q 2069 2156 2228 2338 
Q 2531 2678 2651 2914 
Q 2772 3150 2772 3378 
Q 2772 3750 2511 3984 
Q 2250 4219 1831 4219 
Q 1534 4219 1204 4116 
Q 875 4013 500 3803 
L 500 4441 
Q 881 4594 1212 4672 
Q 1544 4750 1819 4750 
Q 2544 4750 2975 4387 
Q 3406 4025 3406 3419 
Q 3406 3131 3298 2873 
Q 3191 2616 2906 2266 
Q 2828 2175 2409 1742 
Q 1991 1309 1228 531 
z
" transform="scale(0.015625)"/>
       </defs>
       <use xlink:href="#DejaVuSans-32"/>
       <use xlink:href="#DejaVuSans-30" x="63.623047"/>
      </g>
     </g>
    </g>
    <g id="xtick_3">
     <g id="line2d_3">
      <g>
       <use xlink:href="#m140a89abcf" x="318.272727" y="640.8" style="stroke: #000000; stroke-width: 0.8"/>
      </g>
     </g>
     <g id="text_3">
      <!-- 40 -->
      <g transform="translate(311.910227 655.398438) scale(0.1 -0.1)">
       <defs>
        <path id="DejaVuSans-34" d="M 2419 4116 
L 825 1625 
L 2419 1625 
L 2419 4116 
z
M 2253 4666 
L 3047 4666 
L 3047 1625 
L 3713 1625 
L 3713 1100 
L 3047 1100 
L 3047 0 
L 2419 0 
L 2419 1100 
L 313 1100 
L 313 1709 
L 2253 4666 
z
" transform="scale(0.015625)"/>
       </defs>
       <use xlink:href="#DejaVuSans-34"/>
       <use xlink:href="#DejaVuSans-30" x="63.623047"/>
      </g>
     </g>
    </g>
    <g id="xtick_4">
     <g id="line2d_4">
      <g>
       <use xlink:href="#m140a89abcf" x="419.727273" y="640.8" style="stroke: #000000; stroke-width: 0.8"/>
      </g>
     </g>
     <g id="text_4">
      <!-- 60 -->
      <g transform="translate(413.364773 655.398438) scale(0.1 -0.1)">
       <defs>
        <path id="DejaVuSans-36" d="M 2113 2584 
Q 1688 2584 1439 2293 
Q 1191 2003 1191 1497 
Q 1191 994 1439 701 
Q 1688 409 2113 409 
Q 2538 409 2786 701 
Q 3034 994 3034 1497 
Q 3034 2003 2786 2293 
Q 2538 2584 2113 2584 
z
M 3366 4563 
L 3366 3988 
Q 3128 4100 2886 4159 
Q 2644 4219 2406 4219 
Q 1781 4219 1451 3797 
Q 1122 3375 1075 2522 
Q 1259 2794 1537 2939 
Q 1816 3084 2150 3084 
Q 2853 3084 3261 2657 
Q 3669 2231 3669 1497 
Q 3669 778 3244 343 
Q 2819 -91 2113 -91 
Q 1303 -91 875 529 
Q 447 1150 447 2328 
Q 447 3434 972 4092 
Q 1497 4750 2381 4750 
Q 2619 4750 2861 4703 
Q 3103 4656 3366 4563 
z
" transform="scale(0.015625)"/>
       </defs>
       <use xlink:href="#DejaVuSans-36"/>
       <use xlink:href="#DejaVuSans-30" x="63.623047"/>
      </g>
     </g>
    </g>
    <g id="xtick_5">
     <g id="line2d_5">
      <g>
       <use xlink:href="#m140a89abcf" x="521.181818" y="640.8" style="stroke: #000000; stroke-width: 0.8"/>
      </g>
     </g>
     <g id="text_5">
      <!-- 80 -->
      <g transform="translate(514.819318 655.398438) scale(0.1 -0.1)">
       <defs>
        <path id="DejaVuSans-38" d="M 2034 2216 
Q 1584 2216 1326 1975 
Q 1069 1734 1069 1313 
Q 1069 891 1326 650 
Q 1584 409 2034 409 
Q 2484 409 2743 651 
Q 3003 894 3003 1313 
Q 3003 1734 2745 1975 
Q 2488 2216 2034 2216 
z
M 1403 2484 
Q 997 2584 770 2862 
Q 544 3141 544 3541 
Q 544 4100 942 4425 
Q 1341 4750 2034 4750 
Q 2731 4750 3128 4425 
Q 3525 4100 3525 3541 
Q 3525 3141 3298 2862 
Q 3072 2584 2669 2484 
Q 3125 2378 3379 2068 
Q 3634 1759 3634 1313 
Q 3634 634 3220 271 
Q 2806 -91 2034 -91 
Q 1263 -91 848 271 
Q 434 634 434 1313 
Q 434 1759 690 2068 
Q 947 2378 1403 2484 
z
M 1172 3481 
Q 1172 3119 1398 2916 
Q 1625 2713 2034 2713 
Q 2441 2713 2670 2916 
Q 2900 3119 2900 3481 
Q 2900 3844 2670 4047 
Q 2441 4250 2034 4250 
Q 1625 4250 1398 4047 
Q 1172 3844 1172 3481 
z
" transform="scale(0.015625)"/>
       </defs>
       <use xlink:href="#DejaVuSans-38"/>
       <use xlink:href="#DejaVuSans-30" x="63.623047"/>
      </g>
     </g>
    </g>
    <g id="xtick_6">
     <g id="line2d_6">
      <g>
       <use xlink:href="#m140a89abcf" x="622.636364" y="640.8" style="stroke: #000000; stroke-width: 0.8"/>
      </g>
     </g>
     <g id="text_6">
      <!-- 100 -->
      <g transform="translate(613.092614 655.398438) scale(0.1 -0.1)">
       <defs>
        <path id="DejaVuSans-31" d="M 794 531 
L 1825 531 
L 1825 4091 
L 703 3866 
L 703 4441 
L 1819 4666 
L 2450 4666 
L 2450 531 
L 3481 531 
L 3481 0 
L 794 0 
L 794 531 
z
" transform="scale(0.015625)"/>
       </defs>
       <use xlink:href="#DejaVuSans-31"/>
       <use xlink:href="#DejaVuSans-30" x="63.623047"/>
       <use xlink:href="#DejaVuSans-30" x="127.246094"/>
      </g>
     </g>
    </g>
    <g id="text_7">
     <!-- time samples -->
     <g transform="translate(335.33125 669.076563) scale(0.1 -0.1)">
      <defs>
       <path id="DejaVuSans-74" d="M 1172 4494 
L 1172 3500 
L 2356 3500 
L 2356 3053 
L 1172 3053 
L 1172 1153 
Q 1172 725 1289 603 
Q 1406 481 1766 481 
L 2356 481 
L 2356 0 
L 1766 0 
Q 1100 0 847 248 
Q 594 497 594 1153 
L 594 3053 
L 172 3053 
L 172 3500 
L 594 3500 
L 594 4494 
L 1172 4494 
z
" transform="scale(0.015625)"/>
       <path id="DejaVuSans-69" d="M 603 3500 
L 1178 3500 
L 1178 0 
L 603 0 
L 603 3500 
z
M 603 4863 
L 1178 4863 
L 1178 4134 
L 603 4134 
L 603 4863 
z
" transform="scale(0.015625)"/>
       <path id="DejaVuSans-6d" d="M 3328 2828 
Q 3544 3216 3844 3400 
Q 4144 3584 4550 3584 
Q 5097 3584 5394 3201 
Q 5691 2819 5691 2113 
L 5691 0 
L 5113 0 
L 5113 2094 
Q 5113 2597 4934 2840 
Q 4756 3084 4391 3084 
Q 3944 3084 3684 2787 
Q 3425 2491 3425 1978 
L 3425 0 
L 2847 0 
L 2847 2094 
Q 2847 2600 2669 2842 
Q 2491 3084 2119 3084 
Q 1678 3084 1418 2786 
Q 1159 2488 1159 1978 
L 1159 0 
L 581 0 
L 581 3500 
L 1159 3500 
L 1159 2956 
Q 1356 3278 1631 3431 
Q 1906 3584 2284 3584 
Q 2666 3584 2933 3390 
Q 3200 3197 3328 2828 
z
" transform="scale(0.015625)"/>
       <path id="DejaVuSans-65" d="M 3597 1894 
L 3597 1613 
L 953 1613 
Q 991 1019 1311 708 
Q 1631 397 2203 397 
Q 2534 397 2845 478 
Q 3156 559 3463 722 
L 3463 178 
Q 3153 47 2828 -22 
Q 2503 -91 2169 -91 
Q 1331 -91 842 396 
Q 353 884 353 1716 
Q 353 2575 817 3079 
Q 1281 3584 2069 3584 
Q 2775 3584 3186 3129 
Q 3597 2675 3597 1894 
z
M 3022 2063 
Q 3016 2534 2758 2815 
Q 2500 3097 2075 3097 
Q 1594 3097 1305 2825 
Q 1016 2553 972 2059 
L 3022 2063 
z
" transform="scale(0.015625)"/>
       <path id="DejaVuSans-20" transform="scale(0.015625)"/>
       <path id="DejaVuSans-73" d="M 2834 3397 
L 2834 2853 
Q 2591 2978 2328 3040 
Q 2066 3103 1784 3103 
Q 1356 3103 1142 2972 
Q 928 2841 928 2578 
Q 928 2378 1081 2264 
Q 1234 2150 1697 2047 
L 1894 2003 
Q 2506 1872 2764 1633 
Q 3022 1394 3022 966 
Q 3022 478 2636 193 
Q 2250 -91 1575 -91 
Q 1294 -91 989 -36 
Q 684 19 347 128 
L 347 722 
Q 666 556 975 473 
Q 1284 391 1588 391 
Q 1994 391 2212 530 
Q 2431 669 2431 922 
Q 2431 1156 2273 1281 
Q 2116 1406 1581 1522 
L 1381 1569 
Q 847 1681 609 1914 
Q 372 2147 372 2553 
Q 372 3047 722 3315 
Q 1072 3584 1716 3584 
Q 2034 3584 2315 3537 
Q 2597 3491 2834 3397 
z
" transform="scale(0.015625)"/>
       <path id="DejaVuSans-61" d="M 2194 1759 
Q 1497 1759 1228 1600 
Q 959 1441 959 1056 
Q 959 750 1161 570 
Q 1363 391 1709 391 
Q 2188 391 2477 730 
Q 2766 1069 2766 1631 
L 2766 1759 
L 2194 1759 
z
M 3341 1997 
L 3341 0 
L 2766 0 
L 2766 531 
Q 2569 213 2275 61 
Q 1981 -91 1556 -91 
Q 1019 -91 701 211 
Q 384 513 384 1019 
Q 384 1609 779 1909 
Q 1175 2209 1959 2209 
L 2766 2209 
L 2766 2266 
Q 2766 2663 2505 2880 
Q 2244 3097 1772 3097 
Q 1472 3097 1187 3025 
Q 903 2953 641 2809 
L 641 3341 
Q 956 3463 1253 3523 
Q 1550 3584 1831 3584 
Q 2591 3584 2966 3190 
Q 3341 2797 3341 1997 
z
" transform="scale(0.015625)"/>
       <path id="DejaVuSans-70" d="M 1159 525 
L 1159 -1331 
L 581 -1331 
L 581 3500 
L 1159 3500 
L 1159 2969 
Q 1341 3281 1617 3432 
Q 1894 3584 2278 3584 
Q 2916 3584 3314 3078 
Q 3713 2572 3713 1747 
Q 3713 922 3314 415 
Q 2916 -91 2278 -91 
Q 1894 -91 1617 61 
Q 1341 213 1159 525 
z
M 3116 1747 
Q 3116 2381 2855 2742 
Q 2594 3103 2138 3103 
Q 1681 3103 1420 2742 
Q 1159 2381 1159 1747 
Q 1159 1113 1420 752 
Q 1681 391 2138 391 
Q 2594 391 2855 752 
Q 3116 1113 3116 1747 
z
" transform="scale(0.015625)"/>
       <path id="DejaVuSans-6c" d="M 603 4863 
L 1178 4863 
L 1178 0 
L 603 0 
L 603 4863 
z
" transform="scale(0.015625)"/>
      </defs>
      <use xlink:href="#DejaVuSans-74"/>
      <use xlink:href="#DejaVuSans-69" x="39.208984"/>
      <use xlink:href="#DejaVuSans-6d" x="66.992188"/>
      <use xlink:href="#DejaVuSans-65" x="164.404297"/>
      <use xlink:href="#DejaVuSans-20" x="225.927734"/>
      <use xlink:href="#DejaVuSans-73" x="257.714844"/>
      <use xlink:href="#DejaVuSans-61" x="309.814453"/>
      <use xlink:href="#DejaVuSans-6d" x="371.09375"/>
      <use xlink:href="#DejaVuSans-70" x="468.505859"/>
      <use xlink:href="#DejaVuSans-6c" x="531.982422"/>
      <use xlink:href="#DejaVuSans-65" x="559.765625"/>
      <use xlink:href="#DejaVuSans-73" x="621.289062"/>
     </g>
    </g>
   </g>
   <g id="matplotlib.axis_2">
    <g id="ytick_1">
     <g id="line2d_7">
      <defs>
       <path id="m42c98d6fa0" d="M 0 0 
L -3.5 0 
" style="stroke: #000000; stroke-width: 0.8"/>
      </defs>
      <g>
       <use xlink:href="#m42c98d6fa0" x="90" y="615.549995" style="stroke: #000000; stroke-width: 0.8"/>
      </g>
     </g>
     <g id="text_8">
      <!-- 0.0000 -->
      <g transform="translate(48.009375 619.349214) scale(0.1 -0.1)">
       <defs>
        <path id="DejaVuSans-2e" d="M 684 794 
L 1344 794 
L 1344 0 
L 684 0 
L 684 794 
z
" transform="scale(0.015625)"/>
       </defs>
       <use xlink:href="#DejaVuSans-30"/>
       <use xlink:href="#DejaVuSans-2e" x="63.623047"/>
       <use xlink:href="#DejaVuSans-30" x="95.410156"/>
       <use xlink:href="#DejaVuSans-30" x="159.033203"/>
       <use xlink:href="#DejaVuSans-30" x="222.65625"/>
       <use xlink:href="#DejaVuSans-30" x="286.279297"/>
      </g>
     </g>
    </g>
    <g id="ytick_2">
     <g id="line2d_8">
      <g>
       <use xlink:href="#m42c98d6fa0" x="90" y="531.655592" style="stroke: #000000; stroke-width: 0.8"/>
      </g>
     </g>
     <g id="text_9">
      <!-- 0.0001 -->
      <g transform="translate(48.009375 535.454811) scale(0.1 -0.1)">
       <use xlink:href="#DejaVuSans-30"/>
       <use xlink:href="#DejaVuSans-2e" x="63.623047"/>
       <use xlink:href="#DejaVuSans-30" x="95.410156"/>
       <use xlink:href="#DejaVuSans-30" x="159.033203"/>
       <use xlink:href="#DejaVuSans-30" x="222.65625"/>
       <use xlink:href="#DejaVuSans-31" x="286.279297"/>
      </g>
     </g>
    </g>
    <g id="ytick_3">
     <g id="line2d_9">
      <g>
       <use xlink:href="#m42c98d6fa0" x="90" y="447.761189" style="stroke: #000000; stroke-width: 0.8"/>
      </g>
     </g>
     <g id="text_10">
      <!-- 0.0002 -->
      <g transform="translate(48.009375 451.560408) scale(0.1 -0.1)">
       <use xlink:href="#DejaVuSans-30"/>
       <use xlink:href="#DejaVuSans-2e" x="63.623047"/>
       <use xlink:href="#DejaVuSans-30" x="95.410156"/>
       <use xlink:href="#DejaVuSans-30" x="159.033203"/>
       <use xlink:href="#DejaVuSans-30" x="222.65625"/>
       <use xlink:href="#DejaVuSans-32" x="286.279297"/>
      </g>
     </g>
    </g>
    <g id="ytick_4">
     <g id="line2d_10">
      <g>
       <use xlink:href="#m42c98d6fa0" x="90" y="363.866786" style="stroke: #000000; stroke-width: 0.8"/>
      </g>
     </g>
     <g id="text_11">
      <!-- 0.0003 -->
      <g transform="translate(48.009375 367.666005) scale(0.1 -0.1)">
       <defs>
        <path id="DejaVuSans-33" d="M 2597 2516 
Q 3050 2419 3304 2112 
Q 3559 1806 3559 1356 
Q 3559 666 3084 287 
Q 2609 -91 1734 -91 
Q 1441 -91 1130 -33 
Q 819 25 488 141 
L 488 750 
Q 750 597 1062 519 
Q 1375 441 1716 441 
Q 2309 441 2620 675 
Q 2931 909 2931 1356 
Q 2931 1769 2642 2001 
Q 2353 2234 1838 2234 
L 1294 2234 
L 1294 2753 
L 1863 2753 
Q 2328 2753 2575 2939 
Q 2822 3125 2822 3475 
Q 2822 3834 2567 4026 
Q 2313 4219 1838 4219 
Q 1578 4219 1281 4162 
Q 984 4106 628 3988 
L 628 4550 
Q 988 4650 1302 4700 
Q 1616 4750 1894 4750 
Q 2613 4750 3031 4423 
Q 3450 4097 3450 3541 
Q 3450 3153 3228 2886 
Q 3006 2619 2597 2516 
z
" transform="scale(0.015625)"/>
       </defs>
       <use xlink:href="#DejaVuSans-30"/>
       <use xlink:href="#DejaVuSans-2e" x="63.623047"/>
       <use xlink:href="#DejaVuSans-30" x="95.410156"/>
       <use xlink:href="#DejaVuSans-30" x="159.033203"/>
       <use xlink:href="#DejaVuSans-30" x="222.65625"/>
       <use xlink:href="#DejaVuSans-33" x="286.279297"/>
      </g>
     </g>
    </g>
    <g id="ytick_5">
     <g id="line2d_11">
      <g>
       <use xlink:href="#m42c98d6fa0" x="90" y="279.972384" style="stroke: #000000; stroke-width: 0.8"/>
      </g>
     </g>
     <g id="text_12">
      <!-- 0.0004 -->
      <g transform="translate(48.009375 283.771602) scale(0.1 -0.1)">
       <use xlink:href="#DejaVuSans-30"/>
       <use xlink:href="#DejaVuSans-2e" x="63.623047"/>
       <use xlink:href="#DejaVuSans-30" x="95.410156"/>
       <use xlink:href="#DejaVuSans-30" x="159.033203"/>
       <use xlink:href="#DejaVuSans-30" x="222.65625"/>
       <use xlink:href="#DejaVuSans-34" x="286.279297"/>
      </g>
     </g>
    </g>
    <g id="ytick_6">
     <g id="line2d_12">
      <g>
       <use xlink:href="#m42c98d6fa0" x="90" y="196.077981" style="stroke: #000000; stroke-width: 0.8"/>
      </g>
     </g>
     <g id="text_13">
      <!-- 0.0005 -->
      <g transform="translate(48.009375 199.8772) scale(0.1 -0.1)">
       <defs>
        <path id="DejaVuSans-35" d="M 691 4666 
L 3169 4666 
L 3169 4134 
L 1269 4134 
L 1269 2991 
Q 1406 3038 1543 3061 
Q 1681 3084 1819 3084 
Q 2600 3084 3056 2656 
Q 3513 2228 3513 1497 
Q 3513 744 3044 326 
Q 2575 -91 1722 -91 
Q 1428 -91 1123 -41 
Q 819 9 494 109 
L 494 744 
Q 775 591 1075 516 
Q 1375 441 1709 441 
Q 2250 441 2565 725 
Q 2881 1009 2881 1497 
Q 2881 1984 2565 2268 
Q 2250 2553 1709 2553 
Q 1456 2553 1204 2497 
Q 953 2441 691 2322 
L 691 4666 
z
" transform="scale(0.015625)"/>
       </defs>
       <use xlink:href="#DejaVuSans-30"/>
       <use xlink:href="#DejaVuSans-2e" x="63.623047"/>
       <use xlink:href="#DejaVuSans-30" x="95.410156"/>
       <use xlink:href="#DejaVuSans-30" x="159.033203"/>
       <use xlink:href="#DejaVuSans-30" x="222.65625"/>
       <use xlink:href="#DejaVuSans-35" x="286.279297"/>
      </g>
     </g>
    </g>
    <g id="ytick_7">
     <g id="line2d_13">
      <g>
       <use xlink:href="#m42c98d6fa0" x="90" y="112.183578" style="stroke: #000000; stroke-width: 0.8"/>
      </g>
     </g>
     <g id="text_14">
      <!-- 0.0006 -->
      <g transform="translate(48.009375 115.982797) scale(0.1 -0.1)">
       <use xlink:href="#DejaVuSans-30"/>
       <use xlink:href="#DejaVuSans-2e" x="63.623047"/>
       <use xlink:href="#DejaVuSans-30" x="95.410156"/>
       <use xlink:href="#DejaVuSans-30" x="159.033203"/>
       <use xlink:href="#DejaVuSans-30" x="222.65625"/>
       <use xlink:href="#DejaVuSans-36" x="286.279297"/>
      </g>
     </g>
    </g>
    <g id="text_15">
     <!-- energy -->
     <g transform="translate(41.929688 381.023437) rotate(-90) scale(0.1 -0.1)">
      <defs>
       <path id="DejaVuSans-6e" d="M 3513 2113 
L 3513 0 
L 2938 0 
L 2938 2094 
Q 2938 2591 2744 2837 
Q 2550 3084 2163 3084 
Q 1697 3084 1428 2787 
Q 1159 2491 1159 1978 
L 1159 0 
L 581 0 
L 581 3500 
L 1159 3500 
L 1159 2956 
Q 1366 3272 1645 3428 
Q 1925 3584 2291 3584 
Q 2894 3584 3203 3211 
Q 3513 2838 3513 2113 
z
" transform="scale(0.015625)"/>
       <path id="DejaVuSans-72" d="M 2631 2963 
Q 2534 3019 2420 3045 
Q 2306 3072 2169 3072 
Q 1681 3072 1420 2755 
Q 1159 2438 1159 1844 
L 1159 0 
L 581 0 
L 581 3500 
L 1159 3500 
L 1159 2956 
Q 1341 3275 1631 3429 
Q 1922 3584 2338 3584 
Q 2397 3584 2469 3576 
Q 2541 3569 2628 3553 
L 2631 2963 
z
" transform="scale(0.015625)"/>
       <path id="DejaVuSans-67" d="M 2906 1791 
Q 2906 2416 2648 2759 
Q 2391 3103 1925 3103 
Q 1463 3103 1205 2759 
Q 947 2416 947 1791 
Q 947 1169 1205 825 
Q 1463 481 1925 481 
Q 2391 481 2648 825 
Q 2906 1169 2906 1791 
z
M 3481 434 
Q 3481 -459 3084 -895 
Q 2688 -1331 1869 -1331 
Q 1566 -1331 1297 -1286 
Q 1028 -1241 775 -1147 
L 775 -588 
Q 1028 -725 1275 -790 
Q 1522 -856 1778 -856 
Q 2344 -856 2625 -561 
Q 2906 -266 2906 331 
L 2906 616 
Q 2728 306 2450 153 
Q 2172 0 1784 0 
Q 1141 0 747 490 
Q 353 981 353 1791 
Q 353 2603 747 3093 
Q 1141 3584 1784 3584 
Q 2172 3584 2450 3431 
Q 2728 3278 2906 2969 
L 2906 3500 
L 3481 3500 
L 3481 434 
z
" transform="scale(0.015625)"/>
       <path id="DejaVuSans-79" d="M 2059 -325 
Q 1816 -950 1584 -1140 
Q 1353 -1331 966 -1331 
L 506 -1331 
L 506 -850 
L 844 -850 
Q 1081 -850 1212 -737 
Q 1344 -625 1503 -206 
L 1606 56 
L 191 3500 
L 800 3500 
L 1894 763 
L 2988 3500 
L 3597 3500 
L 2059 -325 
z
" transform="scale(0.015625)"/>
      </defs>
      <use xlink:href="#DejaVuSans-65"/>
      <use xlink:href="#DejaVuSans-6e" x="61.523438"/>
      <use xlink:href="#DejaVuSans-65" x="124.902344"/>
      <use xlink:href="#DejaVuSans-72" x="186.425781"/>
      <use xlink:href="#DejaVuSans-67" x="225.789062"/>
      <use xlink:href="#DejaVuSans-79" x="289.265625"/>
     </g>
    </g>
    <g id="text_16">
     <!-- +1 -->
     <g transform="translate(90 83.4) scale(0.1 -0.1)">
      <defs>
       <path id="DejaVuSans-2b" d="M 2944 4013 
L 2944 2272 
L 4684 2272 
L 4684 1741 
L 2944 1741 
L 2944 0 
L 2419 0 
L 2419 1741 
L 678 1741 
L 678 2272 
L 2419 2272 
L 2419 4013 
L 2944 4013 
z
" transform="scale(0.015625)"/>
      </defs>
      <use xlink:href="#DejaVuSans-2b"/>
      <use xlink:href="#DejaVuSans-31" x="83.789062"/>
     </g>
    </g>
   </g>
   <g id="line2d_14">
    <path d="M 115.363636 615.549995 
L 120.436364 615.449985 
L 125.509091 615.549995 
L 130.581818 615.549995 
L 135.654545 615.549995 
L 140.727273 615.549995 
L 145.8 615.6 
L 150.872727 615.549995 
L 155.945455 615.549995 
L 161.018182 615.549995 
L 166.090909 615.549995 
L 171.163636 615.549995 
L 176.236364 615.6 
L 181.309091 615.6 
L 186.381818 615.549995 
L 191.454545 615.549995 
L 196.527273 615.549995 
L 201.6 615.549995 
L 206.672727 615.549995 
L 211.745455 615.549995 
L 216.818182 615.549995 
L 221.890909 615.6 
L 226.963636 615.549995 
L 232.036364 615.549995 
L 237.109091 615.549995 
L 242.181818 615.549995 
L 247.254545 615.549995 
L 252.327273 615.549995 
L 257.4 615.6 
L 262.472727 615.549995 
L 267.545455 615.549995 
L 272.618182 615.549995 
L 277.690909 615.549995 
L 282.763636 615.549995 
L 287.836364 615.549995 
L 292.909091 615.549995 
L 297.981818 615.549995 
L 303.054545 615.549995 
L 308.127273 615.549995 
L 313.2 615.549995 
L 318.272727 615.549995 
L 323.345455 615.549995 
L 328.418182 615.549995 
L 333.490909 615.549995 
L 338.563636 615.6 
L 343.636364 615.549995 
L 348.709091 615.6 
L 353.781818 615.6 
L 358.854545 615.549995 
L 363.927273 615.549995 
L 369 615.549995 
L 374.072727 615.549995 
L 379.145455 615.549995 
L 384.218182 615.549995 
L 389.290909 615.549995 
L 394.363636 615.549995 
L 399.436364 615.549995 
L 404.509091 615.549995 
L 409.581818 615.549995 
L 414.654545 615.549995 
L 419.727273 615.549995 
L 424.8 615.549995 
L 429.872727 615.549995 
L 434.945455 615.549995 
L 440.018182 615.6 
L 445.090909 615.549995 
L 450.163636 615.549995 
L 455.236364 615.6 
L 460.309091 615.449985 
L 465.381818 615.549995 
L 470.454545 615.6 
L 475.527273 615.549995 
L 480.6 615.549995 
L 485.672727 615.549995 
L 490.745455 615.549995 
L 495.818182 615.6 
L 500.890909 615.549995 
L 505.963636 615.549995 
L 511.036364 615.6 
L 516.109091 615.549995 
L 521.181818 615.549995 
L 526.254545 615.6 
L 531.327273 615.549995 
L 536.4 615.549995 
L 541.472727 615.549995 
L 546.545455 615.549995 
L 551.618182 615.6 
L 556.690909 615.549995 
L 561.763636 615.6 
L 566.836364 615.549995 
L 571.909091 615.549995 
L 576.981818 615.549995 
L 582.054545 615.549995 
L 587.127273 615.549995 
L 592.2 615.549995 
L 597.272727 615.549995 
L 602.345455 615.549995 
L 607.418182 615.549995 
L 612.490909 615.6 
L 617.563636 615.549995 
L 622.636364 615.549995 
" clip-path="url(#pa48e8c2ee9)" style="fill: none; stroke: #1f77b4; stroke-width: 1.5; stroke-linecap: square"/>
    <defs>
     <path id="m71118cd99e" d="M 0 3 
L 0 -3 
" style="stroke: #1f77b4"/>
    </defs>
    <g clip-path="url(#pa48e8c2ee9)">
     <use xlink:href="#m71118cd99e" x="115.363636" y="615.549995" style="fill: #1f77b4; stroke: #1f77b4"/>
     <use xlink:href="#m71118cd99e" x="120.436364" y="615.449985" style="fill: #1f77b4; stroke: #1f77b4"/>
     <use xlink:href="#m71118cd99e" x="125.509091" y="615.549995" style="fill: #1f77b4; stroke: #1f77b4"/>
     <use xlink:href="#m71118cd99e" x="130.581818" y="615.549995" style="fill: #1f77b4; stroke: #1f77b4"/>
     <use xlink:href="#m71118cd99e" x="135.654545" y="615.549995" style="fill: #1f77b4; stroke: #1f77b4"/>
     <use xlink:href="#m71118cd99e" x="140.727273" y="615.549995" style="fill: #1f77b4; stroke: #1f77b4"/>
     <use xlink:href="#m71118cd99e" x="145.8" y="615.6" style="fill: #1f77b4; stroke: #1f77b4"/>
     <use xlink:href="#m71118cd99e" x="150.872727" y="615.549995" style="fill: #1f77b4; stroke: #1f77b4"/>
     <use xlink:href="#m71118cd99e" x="155.945455" y="615.549995" style="fill: #1f77b4; stroke: #1f77b4"/>
     <use xlink:href="#m71118cd99e" x="161.018182" y="615.549995" style="fill: #1f77b4; stroke: #1f77b4"/>
     <use xlink:href="#m71118cd99e" x="166.090909" y="615.549995" style="fill: #1f77b4; stroke: #1f77b4"/>
     <use xlink:href="#m71118cd99e" x="171.163636" y="615.549995" style="fill: #1f77b4; stroke: #1f77b4"/>
     <use xlink:href="#m71118cd99e" x="176.236364" y="615.6" style="fill: #1f77b4; stroke: #1f77b4"/>
     <use xlink:href="#m71118cd99e" x="181.309091" y="615.6" style="fill: #1f77b4; stroke: #1f77b4"/>
     <use xlink:href="#m71118cd99e" x="186.381818" y="615.549995" style="fill: #1f77b4; stroke: #1f77b4"/>
     <use xlink:href="#m71118cd99e" x="191.454545" y="615.549995" style="fill: #1f77b4; stroke: #1f77b4"/>
     <use xlink:href="#m71118cd99e" x="196.527273" y="615.549995" style="fill: #1f77b4; stroke: #1f77b4"/>
     <use xlink:href="#m71118cd99e" x="201.6" y="615.549995" style="fill: #1f77b4; stroke: #1f77b4"/>
     <use xlink:href="#m71118cd99e" x="206.672727" y="615.549995" style="fill: #1f77b4; stroke: #1f77b4"/>
     <use xlink:href="#m71118cd99e" x="211.745455" y="615.549995" style="fill: #1f77b4; stroke: #1f77b4"/>
     <use xlink:href="#m71118cd99e" x="216.818182" y="615.549995" style="fill: #1f77b4; stroke: #1f77b4"/>
     <use xlink:href="#m71118cd99e" x="221.890909" y="615.6" style="fill: #1f77b4; stroke: #1f77b4"/>
     <use xlink:href="#m71118cd99e" x="226.963636" y="615.549995" style="fill: #1f77b4; stroke: #1f77b4"/>
     <use xlink:href="#m71118cd99e" x="232.036364" y="615.549995" style="fill: #1f77b4; stroke: #1f77b4"/>
     <use xlink:href="#m71118cd99e" x="237.109091" y="615.549995" style="fill: #1f77b4; stroke: #1f77b4"/>
     <use xlink:href="#m71118cd99e" x="242.181818" y="615.549995" style="fill: #1f77b4; stroke: #1f77b4"/>
     <use xlink:href="#m71118cd99e" x="247.254545" y="615.549995" style="fill: #1f77b4; stroke: #1f77b4"/>
     <use xlink:href="#m71118cd99e" x="252.327273" y="615.549995" style="fill: #1f77b4; stroke: #1f77b4"/>
     <use xlink:href="#m71118cd99e" x="257.4" y="615.6" style="fill: #1f77b4; stroke: #1f77b4"/>
     <use xlink:href="#m71118cd99e" x="262.472727" y="615.549995" style="fill: #1f77b4; stroke: #1f77b4"/>
     <use xlink:href="#m71118cd99e" x="267.545455" y="615.549995" style="fill: #1f77b4; stroke: #1f77b4"/>
     <use xlink:href="#m71118cd99e" x="272.618182" y="615.549995" style="fill: #1f77b4; stroke: #1f77b4"/>
     <use xlink:href="#m71118cd99e" x="277.690909" y="615.549995" style="fill: #1f77b4; stroke: #1f77b4"/>
     <use xlink:href="#m71118cd99e" x="282.763636" y="615.549995" style="fill: #1f77b4; stroke: #1f77b4"/>
     <use xlink:href="#m71118cd99e" x="287.836364" y="615.549995" style="fill: #1f77b4; stroke: #1f77b4"/>
     <use xlink:href="#m71118cd99e" x="292.909091" y="615.549995" style="fill: #1f77b4; stroke: #1f77b4"/>
     <use xlink:href="#m71118cd99e" x="297.981818" y="615.549995" style="fill: #1f77b4; stroke: #1f77b4"/>
     <use xlink:href="#m71118cd99e" x="303.054545" y="615.549995" style="fill: #1f77b4; stroke: #1f77b4"/>
     <use xlink:href="#m71118cd99e" x="308.127273" y="615.549995" style="fill: #1f77b4; stroke: #1f77b4"/>
     <use xlink:href="#m71118cd99e" x="313.2" y="615.549995" style="fill: #1f77b4; stroke: #1f77b4"/>
     <use xlink:href="#m71118cd99e" x="318.272727" y="615.549995" style="fill: #1f77b4; stroke: #1f77b4"/>
     <use xlink:href="#m71118cd99e" x="323.345455" y="615.549995" style="fill: #1f77b4; stroke: #1f77b4"/>
     <use xlink:href="#m71118cd99e" x="328.418182" y="615.549995" style="fill: #1f77b4; stroke: #1f77b4"/>
     <use xlink:href="#m71118cd99e" x="333.490909" y="615.549995" style="fill: #1f77b4; stroke: #1f77b4"/>
     <use xlink:href="#m71118cd99e" x="338.563636" y="615.6" style="fill: #1f77b4; stroke: #1f77b4"/>
     <use xlink:href="#m71118cd99e" x="343.636364" y="615.549995" style="fill: #1f77b4; stroke: #1f77b4"/>
     <use xlink:href="#m71118cd99e" x="348.709091" y="615.6" style="fill: #1f77b4; stroke: #1f77b4"/>
     <use xlink:href="#m71118cd99e" x="353.781818" y="615.6" style="fill: #1f77b4; stroke: #1f77b4"/>
     <use xlink:href="#m71118cd99e" x="358.854545" y="615.549995" style="fill: #1f77b4; stroke: #1f77b4"/>
     <use xlink:href="#m71118cd99e" x="363.927273" y="615.549995" style="fill: #1f77b4; stroke: #1f77b4"/>
     <use xlink:href="#m71118cd99e" x="369" y="615.549995" style="fill: #1f77b4; stroke: #1f77b4"/>
     <use xlink:href="#m71118cd99e" x="374.072727" y="615.549995" style="fill: #1f77b4; stroke: #1f77b4"/>
     <use xlink:href="#m71118cd99e" x="379.145455" y="615.549995" style="fill: #1f77b4; stroke: #1f77b4"/>
     <use xlink:href="#m71118cd99e" x="384.218182" y="615.549995" style="fill: #1f77b4; stroke: #1f77b4"/>
     <use xlink:href="#m71118cd99e" x="389.290909" y="615.549995" style="fill: #1f77b4; stroke: #1f77b4"/>
     <use xlink:href="#m71118cd99e" x="394.363636" y="615.549995" style="fill: #1f77b4; stroke: #1f77b4"/>
     <use xlink:href="#m71118cd99e" x="399.436364" y="615.549995" style="fill: #1f77b4; stroke: #1f77b4"/>
     <use xlink:href="#m71118cd99e" x="404.509091" y="615.549995" style="fill: #1f77b4; stroke: #1f77b4"/>
     <use xlink:href="#m71118cd99e" x="409.581818" y="615.549995" style="fill: #1f77b4; stroke: #1f77b4"/>
     <use xlink:href="#m71118cd99e" x="414.654545" y="615.549995" style="fill: #1f77b4; stroke: #1f77b4"/>
     <use xlink:href="#m71118cd99e" x="419.727273" y="615.549995" style="fill: #1f77b4; stroke: #1f77b4"/>
     <use xlink:href="#m71118cd99e" x="424.8" y="615.549995" style="fill: #1f77b4; stroke: #1f77b4"/>
     <use xlink:href="#m71118cd99e" x="429.872727" y="615.549995" style="fill: #1f77b4; stroke: #1f77b4"/>
     <use xlink:href="#m71118cd99e" x="434.945455" y="615.549995" style="fill: #1f77b4; stroke: #1f77b4"/>
     <use xlink:href="#m71118cd99e" x="440.018182" y="615.6" style="fill: #1f77b4; stroke: #1f77b4"/>
     <use xlink:href="#m71118cd99e" x="445.090909" y="615.549995" style="fill: #1f77b4; stroke: #1f77b4"/>
     <use xlink:href="#m71118cd99e" x="450.163636" y="615.549995" style="fill: #1f77b4; stroke: #1f77b4"/>
     <use xlink:href="#m71118cd99e" x="455.236364" y="615.6" style="fill: #1f77b4; stroke: #1f77b4"/>
     <use xlink:href="#m71118cd99e" x="460.309091" y="615.449985" style="fill: #1f77b4; stroke: #1f77b4"/>
     <use xlink:href="#m71118cd99e" x="465.381818" y="615.549995" style="fill: #1f77b4; stroke: #1f77b4"/>
     <use xlink:href="#m71118cd99e" x="470.454545" y="615.6" style="fill: #1f77b4; stroke: #1f77b4"/>
     <use xlink:href="#m71118cd99e" x="475.527273" y="615.549995" style="fill: #1f77b4; stroke: #1f77b4"/>
     <use xlink:href="#m71118cd99e" x="480.6" y="615.549995" style="fill: #1f77b4; stroke: #1f77b4"/>
     <use xlink:href="#m71118cd99e" x="485.672727" y="615.549995" style="fill: #1f77b4; stroke: #1f77b4"/>
     <use xlink:href="#m71118cd99e" x="490.745455" y="615.549995" style="fill: #1f77b4; stroke: #1f77b4"/>
     <use xlink:href="#m71118cd99e" x="495.818182" y="615.6" style="fill: #1f77b4; stroke: #1f77b4"/>
     <use xlink:href="#m71118cd99e" x="500.890909" y="615.549995" style="fill: #1f77b4; stroke: #1f77b4"/>
     <use xlink:href="#m71118cd99e" x="505.963636" y="615.549995" style="fill: #1f77b4; stroke: #1f77b4"/>
     <use xlink:href="#m71118cd99e" x="511.036364" y="615.6" style="fill: #1f77b4; stroke: #1f77b4"/>
     <use xlink:href="#m71118cd99e" x="516.109091" y="615.549995" style="fill: #1f77b4; stroke: #1f77b4"/>
     <use xlink:href="#m71118cd99e" x="521.181818" y="615.549995" style="fill: #1f77b4; stroke: #1f77b4"/>
     <use xlink:href="#m71118cd99e" x="526.254545" y="615.6" style="fill: #1f77b4; stroke: #1f77b4"/>
     <use xlink:href="#m71118cd99e" x="531.327273" y="615.549995" style="fill: #1f77b4; stroke: #1f77b4"/>
     <use xlink:href="#m71118cd99e" x="536.4" y="615.549995" style="fill: #1f77b4; stroke: #1f77b4"/>
     <use xlink:href="#m71118cd99e" x="541.472727" y="615.549995" style="fill: #1f77b4; stroke: #1f77b4"/>
     <use xlink:href="#m71118cd99e" x="546.545455" y="615.549995" style="fill: #1f77b4; stroke: #1f77b4"/>
     <use xlink:href="#m71118cd99e" x="551.618182" y="615.6" style="fill: #1f77b4; stroke: #1f77b4"/>
     <use xlink:href="#m71118cd99e" x="556.690909" y="615.549995" style="fill: #1f77b4; stroke: #1f77b4"/>
     <use xlink:href="#m71118cd99e" x="561.763636" y="615.6" style="fill: #1f77b4; stroke: #1f77b4"/>
     <use xlink:href="#m71118cd99e" x="566.836364" y="615.549995" style="fill: #1f77b4; stroke: #1f77b4"/>
     <use xlink:href="#m71118cd99e" x="571.909091" y="615.549995" style="fill: #1f77b4; stroke: #1f77b4"/>
     <use xlink:href="#m71118cd99e" x="576.981818" y="615.549995" style="fill: #1f77b4; stroke: #1f77b4"/>
     <use xlink:href="#m71118cd99e" x="582.054545" y="615.549995" style="fill: #1f77b4; stroke: #1f77b4"/>
     <use xlink:href="#m71118cd99e" x="587.127273" y="615.549995" style="fill: #1f77b4; stroke: #1f77b4"/>
     <use xlink:href="#m71118cd99e" x="592.2" y="615.549995" style="fill: #1f77b4; stroke: #1f77b4"/>
     <use xlink:href="#m71118cd99e" x="597.272727" y="615.549995" style="fill: #1f77b4; stroke: #1f77b4"/>
     <use xlink:href="#m71118cd99e" x="602.345455" y="615.549995" style="fill: #1f77b4; stroke: #1f77b4"/>
     <use xlink:href="#m71118cd99e" x="607.418182" y="615.549995" style="fill: #1f77b4; stroke: #1f77b4"/>
     <use xlink:href="#m71118cd99e" x="612.490909" y="615.6" style="fill: #1f77b4; stroke: #1f77b4"/>
     <use xlink:href="#m71118cd99e" x="617.563636" y="615.549995" style="fill: #1f77b4; stroke: #1f77b4"/>
     <use xlink:href="#m71118cd99e" x="622.636364" y="615.549995" style="fill: #1f77b4; stroke: #1f77b4"/>
    </g>
   </g>
   <g id="line2d_15">
    <path d="M 115.363636 615.549995 
L 120.436364 610.449489 
L 125.509091 605.448993 
L 130.581818 600.548507 
L 135.654545 595.448001 
L 140.727273 590.347495 
L 145.8 585.346999 
L 150.872727 580.346503 
L 155.945455 575.346007 
L 161.018182 570.34551 
L 166.090909 565.345014 
L 171.163636 560.344518 
L 176.236364 555.344022 
L 181.309091 550.143506 
L 186.381818 545.14301 
L 191.454545 540.142514 
L 196.527273 535.042008 
L 201.6 530.041512 
L 206.672727 524.941006 
L 211.745455 519.94051 
L 216.818182 514.940014 
L 221.890909 509.939518 
L 226.963636 504.939022 
L 232.036364 499.838516 
L 237.109091 494.83802 
L 242.181818 489.737514 
L 247.254545 484.637008 
L 252.327273 479.536502 
L 257.4 474.536006 
L 262.472727 469.535509 
L 267.545455 464.435003 
L 272.618182 459.534517 
L 277.690909 454.434011 
L 282.763636 449.333505 
L 287.836364 444.333009 
L 292.909091 439.332513 
L 297.981818 434.232007 
L 303.054545 429.131501 
L 308.127273 424.231015 
L 313.2 419.130509 
L 318.272727 414.030003 
L 323.345455 409.029507 
L 328.418182 403.929001 
L 333.490909 398.828495 
L 338.563636 393.727989 
L 343.636364 388.827503 
L 348.709091 383.726997 
L 353.781818 378.826511 
L 358.854545 373.726005 
L 363.927273 368.625499 
L 369 363.625002 
L 374.072727 358.624506 
L 379.145455 353.524 
L 384.218182 348.523504 
L 389.290909 343.422998 
L 394.363636 338.322492 
L 399.436364 333.321996 
L 404.509091 328.3215 
L 409.581818 323.220994 
L 414.654545 318.220498 
L 419.727273 313.119992 
L 424.8 308.119496 
L 429.872727 303.119 
L 434.945455 298.118504 
L 440.018182 293.017998 
L 445.090909 288.017502 
L 450.163636 283.017006 
L 455.236364 277.9165 
L 460.309091 272.916004 
L 465.381818 267.815498 
L 470.454545 262.815001 
L 475.527273 257.714495 
L 480.6 252.713999 
L 485.672727 247.713503 
L 490.745455 242.612997 
L 495.818182 237.612501 
L 500.890909 232.511995 
L 505.963636 227.511499 
L 511.036364 222.511003 
L 516.109091 217.410497 
L 521.181818 212.410001 
L 526.254545 207.309495 
L 531.327273 202.308999 
L 536.4 197.208493 
L 541.472727 192.207997 
L 546.545455 187.207501 
L 551.618182 182.106995 
L 556.690909 177.106499 
L 561.763636 172.005993 
L 566.836364 167.005497 
L 571.909091 161.904991 
L 576.981818 156.904494 
L 582.054545 151.903998 
L 587.127273 146.803492 
L 592.2 141.802996 
L 597.272727 136.70249 
L 602.345455 131.701994 
L 607.418182 126.601488 
L 612.490909 121.600992 
L 617.563636 116.600496 
L 622.636364 111.6 
" clip-path="url(#pa48e8c2ee9)" style="fill: none; stroke: #ff7f0e; stroke-width: 1.5; stroke-linecap: square"/>
    <defs>
     <path id="m47a8584f31" d="M 0 3 
C 0.795609 3 1.55874 2.683901 2.12132 2.12132 
C 2.683901 1.55874 3 0.795609 3 0 
C 3 -0.795609 2.683901 -1.55874 2.12132 -2.12132 
C 1.55874 -2.683901 0.795609 -3 0 -3 
C -0.795609 -3 -1.55874 -2.683901 -2.12132 -2.12132 
C -2.683901 -1.55874 -3 -0.795609 -3 0 
C -3 0.795609 -2.683901 1.55874 -2.12132 2.12132 
C -1.55874 2.683901 -0.795609 3 0 3 
z
" style="stroke: #ff7f0e"/>
    </defs>
    <g clip-path="url(#pa48e8c2ee9)">
     <use xlink:href="#m47a8584f31" x="115.363636" y="615.549995" style="fill: #ff7f0e; stroke: #ff7f0e"/>
     <use xlink:href="#m47a8584f31" x="120.436364" y="610.449489" style="fill: #ff7f0e; stroke: #ff7f0e"/>
     <use xlink:href="#m47a8584f31" x="125.509091" y="605.448993" style="fill: #ff7f0e; stroke: #ff7f0e"/>
     <use xlink:href="#m47a8584f31" x="130.581818" y="600.548507" style="fill: #ff7f0e; stroke: #ff7f0e"/>
     <use xlink:href="#m47a8584f31" x="135.654545" y="595.448001" style="fill: #ff7f0e; stroke: #ff7f0e"/>
     <use xlink:href="#m47a8584f31" x="140.727273" y="590.347495" style="fill: #ff7f0e; stroke: #ff7f0e"/>
     <use xlink:href="#m47a8584f31" x="145.8" y="585.346999" style="fill: #ff7f0e; stroke: #ff7f0e"/>
     <use xlink:href="#m47a8584f31" x="150.872727" y="580.346503" style="fill: #ff7f0e; stroke: #ff7f0e"/>
     <use xlink:href="#m47a8584f31" x="155.945455" y="575.346007" style="fill: #ff7f0e; stroke: #ff7f0e"/>
     <use xlink:href="#m47a8584f31" x="161.018182" y="570.34551" style="fill: #ff7f0e; stroke: #ff7f0e"/>
     <use xlink:href="#m47a8584f31" x="166.090909" y="565.345014" style="fill: #ff7f0e; stroke: #ff7f0e"/>
     <use xlink:href="#m47a8584f31" x="171.163636" y="560.344518" style="fill: #ff7f0e; stroke: #ff7f0e"/>
     <use xlink:href="#m47a8584f31" x="176.236364" y="555.344022" style="fill: #ff7f0e; stroke: #ff7f0e"/>
     <use xlink:href="#m47a8584f31" x="181.309091" y="550.143506" style="fill: #ff7f0e; stroke: #ff7f0e"/>
     <use xlink:href="#m47a8584f31" x="186.381818" y="545.14301" style="fill: #ff7f0e; stroke: #ff7f0e"/>
     <use xlink:href="#m47a8584f31" x="191.454545" y="540.142514" style="fill: #ff7f0e; stroke: #ff7f0e"/>
     <use xlink:href="#m47a8584f31" x="196.527273" y="535.042008" style="fill: #ff7f0e; stroke: #ff7f0e"/>
     <use xlink:href="#m47a8584f31" x="201.6" y="530.041512" style="fill: #ff7f0e; stroke: #ff7f0e"/>
     <use xlink:href="#m47a8584f31" x="206.672727" y="524.941006" style="fill: #ff7f0e; stroke: #ff7f0e"/>
     <use xlink:href="#m47a8584f31" x="211.745455" y="519.94051" style="fill: #ff7f0e; stroke: #ff7f0e"/>
     <use xlink:href="#m47a8584f31" x="216.818182" y="514.940014" style="fill: #ff7f0e; stroke: #ff7f0e"/>
     <use xlink:href="#m47a8584f31" x="221.890909" y="509.939518" style="fill: #ff7f0e; stroke: #ff7f0e"/>
     <use xlink:href="#m47a8584f31" x="226.963636" y="504.939022" style="fill: #ff7f0e; stroke: #ff7f0e"/>
     <use xlink:href="#m47a8584f31" x="232.036364" y="499.838516" style="fill: #ff7f0e; stroke: #ff7f0e"/>
     <use xlink:href="#m47a8584f31" x="237.109091" y="494.83802" style="fill: #ff7f0e; stroke: #ff7f0e"/>
     <use xlink:href="#m47a8584f31" x="242.181818" y="489.737514" style="fill: #ff7f0e; stroke: #ff7f0e"/>
     <use xlink:href="#m47a8584f31" x="247.254545" y="484.637008" style="fill: #ff7f0e; stroke: #ff7f0e"/>
     <use xlink:href="#m47a8584f31" x="252.327273" y="479.536502" style="fill: #ff7f0e; stroke: #ff7f0e"/>
     <use xlink:href="#m47a8584f31" x="257.4" y="474.536006" style="fill: #ff7f0e; stroke: #ff7f0e"/>
     <use xlink:href="#m47a8584f31" x="262.472727" y="469.535509" style="fill: #ff7f0e; stroke: #ff7f0e"/>
     <use xlink:href="#m47a8584f31" x="267.545455" y="464.435003" style="fill: #ff7f0e; stroke: #ff7f0e"/>
     <use xlink:href="#m47a8584f31" x="272.618182" y="459.534517" style="fill: #ff7f0e; stroke: #ff7f0e"/>
     <use xlink:href="#m47a8584f31" x="277.690909" y="454.434011" style="fill: #ff7f0e; stroke: #ff7f0e"/>
     <use xlink:href="#m47a8584f31" x="282.763636" y="449.333505" style="fill: #ff7f0e; stroke: #ff7f0e"/>
     <use xlink:href="#m47a8584f31" x="287.836364" y="444.333009" style="fill: #ff7f0e; stroke: #ff7f0e"/>
     <use xlink:href="#m47a8584f31" x="292.909091" y="439.332513" style="fill: #ff7f0e; stroke: #ff7f0e"/>
     <use xlink:href="#m47a8584f31" x="297.981818" y="434.232007" style="fill: #ff7f0e; stroke: #ff7f0e"/>
     <use xlink:href="#m47a8584f31" x="303.054545" y="429.131501" style="fill: #ff7f0e; stroke: #ff7f0e"/>
     <use xlink:href="#m47a8584f31" x="308.127273" y="424.231015" style="fill: #ff7f0e; stroke: #ff7f0e"/>
     <use xlink:href="#m47a8584f31" x="313.2" y="419.130509" style="fill: #ff7f0e; stroke: #ff7f0e"/>
     <use xlink:href="#m47a8584f31" x="318.272727" y="414.030003" style="fill: #ff7f0e; stroke: #ff7f0e"/>
     <use xlink:href="#m47a8584f31" x="323.345455" y="409.029507" style="fill: #ff7f0e; stroke: #ff7f0e"/>
     <use xlink:href="#m47a8584f31" x="328.418182" y="403.929001" style="fill: #ff7f0e; stroke: #ff7f0e"/>
     <use xlink:href="#m47a8584f31" x="333.490909" y="398.828495" style="fill: #ff7f0e; stroke: #ff7f0e"/>
     <use xlink:href="#m47a8584f31" x="338.563636" y="393.727989" style="fill: #ff7f0e; stroke: #ff7f0e"/>
     <use xlink:href="#m47a8584f31" x="343.636364" y="388.827503" style="fill: #ff7f0e; stroke: #ff7f0e"/>
     <use xlink:href="#m47a8584f31" x="348.709091" y="383.726997" style="fill: #ff7f0e; stroke: #ff7f0e"/>
     <use xlink:href="#m47a8584f31" x="353.781818" y="378.826511" style="fill: #ff7f0e; stroke: #ff7f0e"/>
     <use xlink:href="#m47a8584f31" x="358.854545" y="373.726005" style="fill: #ff7f0e; stroke: #ff7f0e"/>
     <use xlink:href="#m47a8584f31" x="363.927273" y="368.625499" style="fill: #ff7f0e; stroke: #ff7f0e"/>
     <use xlink:href="#m47a8584f31" x="369" y="363.625002" style="fill: #ff7f0e; stroke: #ff7f0e"/>
     <use xlink:href="#m47a8584f31" x="374.072727" y="358.624506" style="fill: #ff7f0e; stroke: #ff7f0e"/>
     <use xlink:href="#m47a8584f31" x="379.145455" y="353.524" style="fill: #ff7f0e; stroke: #ff7f0e"/>
     <use xlink:href="#m47a8584f31" x="384.218182" y="348.523504" style="fill: #ff7f0e; stroke: #ff7f0e"/>
     <use xlink:href="#m47a8584f31" x="389.290909" y="343.422998" style="fill: #ff7f0e; stroke: #ff7f0e"/>
     <use xlink:href="#m47a8584f31" x="394.363636" y="338.322492" style="fill: #ff7f0e; stroke: #ff7f0e"/>
     <use xlink:href="#m47a8584f31" x="399.436364" y="333.321996" style="fill: #ff7f0e; stroke: #ff7f0e"/>
     <use xlink:href="#m47a8584f31" x="404.509091" y="328.3215" style="fill: #ff7f0e; stroke: #ff7f0e"/>
     <use xlink:href="#m47a8584f31" x="409.581818" y="323.220994" style="fill: #ff7f0e; stroke: #ff7f0e"/>
     <use xlink:href="#m47a8584f31" x="414.654545" y="318.220498" style="fill: #ff7f0e; stroke: #ff7f0e"/>
     <use xlink:href="#m47a8584f31" x="419.727273" y="313.119992" style="fill: #ff7f0e; stroke: #ff7f0e"/>
     <use xlink:href="#m47a8584f31" x="424.8" y="308.119496" style="fill: #ff7f0e; stroke: #ff7f0e"/>
     <use xlink:href="#m47a8584f31" x="429.872727" y="303.119" style="fill: #ff7f0e; stroke: #ff7f0e"/>
     <use xlink:href="#m47a8584f31" x="434.945455" y="298.118504" style="fill: #ff7f0e; stroke: #ff7f0e"/>
     <use xlink:href="#m47a8584f31" x="440.018182" y="293.017998" style="fill: #ff7f0e; stroke: #ff7f0e"/>
     <use xlink:href="#m47a8584f31" x="445.090909" y="288.017502" style="fill: #ff7f0e; stroke: #ff7f0e"/>
     <use xlink:href="#m47a8584f31" x="450.163636" y="283.017006" style="fill: #ff7f0e; stroke: #ff7f0e"/>
     <use xlink:href="#m47a8584f31" x="455.236364" y="277.9165" style="fill: #ff7f0e; stroke: #ff7f0e"/>
     <use xlink:href="#m47a8584f31" x="460.309091" y="272.916004" style="fill: #ff7f0e; stroke: #ff7f0e"/>
     <use xlink:href="#m47a8584f31" x="465.381818" y="267.815498" style="fill: #ff7f0e; stroke: #ff7f0e"/>
     <use xlink:href="#m47a8584f31" x="470.454545" y="262.815001" style="fill: #ff7f0e; stroke: #ff7f0e"/>
     <use xlink:href="#m47a8584f31" x="475.527273" y="257.714495" style="fill: #ff7f0e; stroke: #ff7f0e"/>
     <use xlink:href="#m47a8584f31" x="480.6" y="252.713999" style="fill: #ff7f0e; stroke: #ff7f0e"/>
     <use xlink:href="#m47a8584f31" x="485.672727" y="247.713503" style="fill: #ff7f0e; stroke: #ff7f0e"/>
     <use xlink:href="#m47a8584f31" x="490.745455" y="242.612997" style="fill: #ff7f0e; stroke: #ff7f0e"/>
     <use xlink:href="#m47a8584f31" x="495.818182" y="237.612501" style="fill: #ff7f0e; stroke: #ff7f0e"/>
     <use xlink:href="#m47a8584f31" x="500.890909" y="232.511995" style="fill: #ff7f0e; stroke: #ff7f0e"/>
     <use xlink:href="#m47a8584f31" x="505.963636" y="227.511499" style="fill: #ff7f0e; stroke: #ff7f0e"/>
     <use xlink:href="#m47a8584f31" x="511.036364" y="222.511003" style="fill: #ff7f0e; stroke: #ff7f0e"/>
     <use xlink:href="#m47a8584f31" x="516.109091" y="217.410497" style="fill: #ff7f0e; stroke: #ff7f0e"/>
     <use xlink:href="#m47a8584f31" x="521.181818" y="212.410001" style="fill: #ff7f0e; stroke: #ff7f0e"/>
     <use xlink:href="#m47a8584f31" x="526.254545" y="207.309495" style="fill: #ff7f0e; stroke: #ff7f0e"/>
     <use xlink:href="#m47a8584f31" x="531.327273" y="202.308999" style="fill: #ff7f0e; stroke: #ff7f0e"/>
     <use xlink:href="#m47a8584f31" x="536.4" y="197.208493" style="fill: #ff7f0e; stroke: #ff7f0e"/>
     <use xlink:href="#m47a8584f31" x="541.472727" y="192.207997" style="fill: #ff7f0e; stroke: #ff7f0e"/>
     <use xlink:href="#m47a8584f31" x="546.545455" y="187.207501" style="fill: #ff7f0e; stroke: #ff7f0e"/>
     <use xlink:href="#m47a8584f31" x="551.618182" y="182.106995" style="fill: #ff7f0e; stroke: #ff7f0e"/>
     <use xlink:href="#m47a8584f31" x="556.690909" y="177.106499" style="fill: #ff7f0e; stroke: #ff7f0e"/>
     <use xlink:href="#m47a8584f31" x="561.763636" y="172.005993" style="fill: #ff7f0e; stroke: #ff7f0e"/>
     <use xlink:href="#m47a8584f31" x="566.836364" y="167.005497" style="fill: #ff7f0e; stroke: #ff7f0e"/>
     <use xlink:href="#m47a8584f31" x="571.909091" y="161.904991" style="fill: #ff7f0e; stroke: #ff7f0e"/>
     <use xlink:href="#m47a8584f31" x="576.981818" y="156.904494" style="fill: #ff7f0e; stroke: #ff7f0e"/>
     <use xlink:href="#m47a8584f31" x="582.054545" y="151.903998" style="fill: #ff7f0e; stroke: #ff7f0e"/>
     <use xlink:href="#m47a8584f31" x="587.127273" y="146.803492" style="fill: #ff7f0e; stroke: #ff7f0e"/>
     <use xlink:href="#m47a8584f31" x="592.2" y="141.802996" style="fill: #ff7f0e; stroke: #ff7f0e"/>
     <use xlink:href="#m47a8584f31" x="597.272727" y="136.70249" style="fill: #ff7f0e; stroke: #ff7f0e"/>
     <use xlink:href="#m47a8584f31" x="602.345455" y="131.701994" style="fill: #ff7f0e; stroke: #ff7f0e"/>
     <use xlink:href="#m47a8584f31" x="607.418182" y="126.601488" style="fill: #ff7f0e; stroke: #ff7f0e"/>
     <use xlink:href="#m47a8584f31" x="612.490909" y="121.600992" style="fill: #ff7f0e; stroke: #ff7f0e"/>
     <use xlink:href="#m47a8584f31" x="617.563636" y="116.600496" style="fill: #ff7f0e; stroke: #ff7f0e"/>
     <use xlink:href="#m47a8584f31" x="622.636364" y="111.6" style="fill: #ff7f0e; stroke: #ff7f0e"/>
    </g>
   </g>
   <g id="patch_3">
    <path d="M 90 640.8 
L 90 86.4 
" style="fill: none; stroke: #000000; stroke-width: 0.8; stroke-linejoin: miter; stroke-linecap: square"/>
   </g>
   <g id="patch_4">
    <path d="M 648 640.8 
L 648 86.4 
" style="fill: none; stroke: #000000; stroke-width: 0.8; stroke-linejoin: miter; stroke-linecap: square"/>
   </g>
   <g id="patch_5">
    <path d="M 90 640.8 
L 648 640.8 
" style="fill: none; stroke: #000000; stroke-width: 0.8; stroke-linejoin: miter; stroke-linecap: square"/>
   </g>
   <g id="patch_6">
    <path d="M 90 86.4 
L 648 86.4 
" style="fill: none; stroke: #000000; stroke-width: 0.8; stroke-linejoin: miter; stroke-linecap: square"/>
   </g>
   <g id="text_17">
    <!-- System energy comparison -->
    <g transform="translate(286.870313 80.4) scale(0.12 -0.12)">
     <defs>
      <path id="DejaVuSans-53" d="M 3425 4513 
L 3425 3897 
Q 3066 4069 2747 4153 
Q 2428 4238 2131 4238 
Q 1616 4238 1336 4038 
Q 1056 3838 1056 3469 
Q 1056 3159 1242 3001 
Q 1428 2844 1947 2747 
L 2328 2669 
Q 3034 2534 3370 2195 
Q 3706 1856 3706 1288 
Q 3706 609 3251 259 
Q 2797 -91 1919 -91 
Q 1588 -91 1214 -16 
Q 841 59 441 206 
L 441 856 
Q 825 641 1194 531 
Q 1563 422 1919 422 
Q 2459 422 2753 634 
Q 3047 847 3047 1241 
Q 3047 1584 2836 1778 
Q 2625 1972 2144 2069 
L 1759 2144 
Q 1053 2284 737 2584 
Q 422 2884 422 3419 
Q 422 4038 858 4394 
Q 1294 4750 2059 4750 
Q 2388 4750 2728 4690 
Q 3069 4631 3425 4513 
z
" transform="scale(0.015625)"/>
      <path id="DejaVuSans-63" d="M 3122 3366 
L 3122 2828 
Q 2878 2963 2633 3030 
Q 2388 3097 2138 3097 
Q 1578 3097 1268 2742 
Q 959 2388 959 1747 
Q 959 1106 1268 751 
Q 1578 397 2138 397 
Q 2388 397 2633 464 
Q 2878 531 3122 666 
L 3122 134 
Q 2881 22 2623 -34 
Q 2366 -91 2075 -91 
Q 1284 -91 818 406 
Q 353 903 353 1747 
Q 353 2603 823 3093 
Q 1294 3584 2113 3584 
Q 2378 3584 2631 3529 
Q 2884 3475 3122 3366 
z
" transform="scale(0.015625)"/>
      <path id="DejaVuSans-6f" d="M 1959 3097 
Q 1497 3097 1228 2736 
Q 959 2375 959 1747 
Q 959 1119 1226 758 
Q 1494 397 1959 397 
Q 2419 397 2687 759 
Q 2956 1122 2956 1747 
Q 2956 2369 2687 2733 
Q 2419 3097 1959 3097 
z
M 1959 3584 
Q 2709 3584 3137 3096 
Q 3566 2609 3566 1747 
Q 3566 888 3137 398 
Q 2709 -91 1959 -91 
Q 1206 -91 779 398 
Q 353 888 353 1747 
Q 353 2609 779 3096 
Q 1206 3584 1959 3584 
z
" transform="scale(0.015625)"/>
     </defs>
     <use xlink:href="#DejaVuSans-53"/>
     <use xlink:href="#DejaVuSans-79" x="63.476562"/>
     <use xlink:href="#DejaVuSans-73" x="122.65625"/>
     <use xlink:href="#DejaVuSans-74" x="174.755859"/>
     <use xlink:href="#DejaVuSans-65" x="213.964844"/>
     <use xlink:href="#DejaVuSans-6d" x="275.488281"/>
     <use xlink:href="#DejaVuSans-20" x="372.900391"/>
     <use xlink:href="#DejaVuSans-65" x="404.6875"/>
     <use xlink:href="#DejaVuSans-6e" x="466.210938"/>
     <use xlink:href="#DejaVuSans-65" x="529.589844"/>
     <use xlink:href="#DejaVuSans-72" x="591.113281"/>
     <use xlink:href="#DejaVuSans-67" x="630.476562"/>
     <use xlink:href="#DejaVuSans-79" x="693.953125"/>
     <use xlink:href="#DejaVuSans-20" x="753.132812"/>
     <use xlink:href="#DejaVuSans-63" x="784.919922"/>
     <use xlink:href="#DejaVuSans-6f" x="839.900391"/>
     <use xlink:href="#DejaVuSans-6d" x="901.082031"/>
     <use xlink:href="#DejaVuSans-70" x="998.494141"/>
     <use xlink:href="#DejaVuSans-61" x="1061.970703"/>
     <use xlink:href="#DejaVuSans-72" x="1123.25"/>
     <use xlink:href="#DejaVuSans-69" x="1164.363281"/>
     <use xlink:href="#DejaVuSans-73" x="1192.146484"/>
     <use xlink:href="#DejaVuSans-6f" x="1244.246094"/>
     <use xlink:href="#DejaVuSans-6e" x="1305.427734"/>
    </g>
   </g>
   <g id="legend_1">
    <g id="patch_7">
     <path d="M 97 123.75625 
L 177.584375 123.75625 
Q 179.584375 123.75625 179.584375 121.75625 
L 179.584375 93.4 
Q 179.584375 91.4 177.584375 91.4 
L 97 91.4 
Q 95 91.4 95 93.4 
L 95 121.75625 
Q 95 123.75625 97 123.75625 
z
" style="fill: #ffffff; opacity: 0.8; stroke: #cccccc; stroke-linejoin: miter"/>
    </g>
    <g id="line2d_16">
     <path d="M 99 99.498437 
L 109 99.498437 
L 119 99.498437 
" style="fill: none; stroke: #1f77b4; stroke-width: 1.5; stroke-linecap: square"/>
     <g>
      <use xlink:href="#m71118cd99e" x="109" y="99.498437" style="fill: #1f77b4; stroke: #1f77b4"/>
     </g>
    </g>
    <g id="text_18">
     <!-- analytic x -->
     <g transform="translate(127 102.998437) scale(0.1 -0.1)">
      <defs>
       <path id="DejaVuSans-78" d="M 3513 3500 
L 2247 1797 
L 3578 0 
L 2900 0 
L 1881 1375 
L 863 0 
L 184 0 
L 1544 1831 
L 300 3500 
L 978 3500 
L 1906 2253 
L 2834 3500 
L 3513 3500 
z
" transform="scale(0.015625)"/>
      </defs>
      <use xlink:href="#DejaVuSans-61"/>
      <use xlink:href="#DejaVuSans-6e" x="61.279297"/>
      <use xlink:href="#DejaVuSans-61" x="124.658203"/>
      <use xlink:href="#DejaVuSans-6c" x="185.9375"/>
      <use xlink:href="#DejaVuSans-79" x="213.720703"/>
      <use xlink:href="#DejaVuSans-74" x="272.900391"/>
      <use xlink:href="#DejaVuSans-69" x="312.109375"/>
      <use xlink:href="#DejaVuSans-63" x="339.892578"/>
      <use xlink:href="#DejaVuSans-20" x="394.873047"/>
      <use xlink:href="#DejaVuSans-78" x="426.660156"/>
     </g>
    </g>
    <g id="line2d_17">
     <path d="M 99 114.176562 
L 109 114.176562 
L 119 114.176562 
" style="fill: none; stroke: #ff7f0e; stroke-width: 1.5; stroke-linecap: square"/>
     <g>
      <use xlink:href="#m47a8584f31" x="109" y="114.176562" style="fill: #ff7f0e; stroke: #ff7f0e"/>
     </g>
    </g>
    <g id="text_19">
     <!-- heun x -->
     <g transform="translate(127 117.676562) scale(0.1 -0.1)">
      <defs>
       <path id="DejaVuSans-68" d="M 3513 2113 
L 3513 0 
L 2938 0 
L 2938 2094 
Q 2938 2591 2744 2837 
Q 2550 3084 2163 3084 
Q 1697 3084 1428 2787 
Q 1159 2491 1159 1978 
L 1159 0 
L 581 0 
L 581 4863 
L 1159 4863 
L 1159 2956 
Q 1366 3272 1645 3428 
Q 1925 3584 2291 3584 
Q 2894 3584 3203 3211 
Q 3513 2838 3513 2113 
z
" transform="scale(0.015625)"/>
       <path id="DejaVuSans-75" d="M 544 1381 
L 544 3500 
L 1119 3500 
L 1119 1403 
Q 1119 906 1312 657 
Q 1506 409 1894 409 
Q 2359 409 2629 706 
Q 2900 1003 2900 1516 
L 2900 3500 
L 3475 3500 
L 3475 0 
L 2900 0 
L 2900 538 
Q 2691 219 2414 64 
Q 2138 -91 1772 -91 
Q 1169 -91 856 284 
Q 544 659 544 1381 
z
M 1991 3584 
L 1991 3584 
z
" transform="scale(0.015625)"/>
      </defs>
      <use xlink:href="#DejaVuSans-68"/>
      <use xlink:href="#DejaVuSans-65" x="63.378906"/>
      <use xlink:href="#DejaVuSans-75" x="124.902344"/>
      <use xlink:href="#DejaVuSans-6e" x="188.28125"/>
      <use xlink:href="#DejaVuSans-20" x="251.660156"/>
      <use xlink:href="#DejaVuSans-78" x="283.447266"/>
     </g>
    </g>
   </g>
  </g>
 </g>
 <defs>
  <clipPath id="pa48e8c2ee9">
   <rect x="90" y="86.4" width="558" height="554.4"/>
  </clipPath>
 </defs>
</svg>
