<?xml version="1.0" encoding="utf-8" standalone="no"?>
<!DOCTYPE svg PUBLIC "-//W3C//DTD SVG 1.1//EN"
  "http://www.w3.org/Graphics/SVG/1.1/DTD/svg11.dtd">
<svg xmlns:xlink="http://www.w3.org/1999/xlink" width="720pt" height="720pt" viewBox="0 0 720 720" xmlns="http://www.w3.org/2000/svg" version="1.1">
 <metadata>
  <rdf:RDF xmlns:dc="http://purl.org/dc/elements/1.1/" xmlns:cc="http://creativecommons.org/ns#" xmlns:rdf="http://www.w3.org/1999/02/22-rdf-syntax-ns#">
   <cc:Work>
    <dc:type rdf:resource="http://purl.org/dc/dcmitype/StillImage"/>
    <dc:date>2023-10-06T20:11:21.812955</dc:date>
    <dc:format>image/svg+xml</dc:format>
    <dc:creator>
     <cc:Agent>
      <dc:title>Matplotlib v3.8.0, https://matplotlib.org/</dc:title>
     </cc:Agent>
    </dc:creator>
   </cc:Work>
  </rdf:RDF>
 </metadata>
 <defs>
  <style type="text/css">*{stroke-linejoin: round; stroke-linecap: butt}</style>
 </defs>
 <g id="figure_1">
  <g id="patch_1">
   <path d="M 0 720 
L 720 720 
L 720 0 
L 0 0 
z
" style="fill: #ffffff"/>
  </g>
  <g id="axes_1">
   <g id="patch_2">
    <path d="M 90 640.8 
L 648 640.8 
L 648 86.4 
L 90 86.4 
z
" style="fill: #ffffff"/>
   </g>
   <g id="matplotlib.axis_1">
    <g id="xtick_1">
     <g id="line2d_1">
      <defs>
       <path id="m7cef1ced62" d="M 0 0 
L 0 3.5 
" style="stroke: #000000; stroke-width: 0.8"/>
      </defs>
      <g>
       <use xlink:href="#m7cef1ced62" x="115.363636" y="640.8" style="stroke: #000000; stroke-width: 0.8"/>
      </g>
     </g>
     <g id="text_1">
      <!-- 0 -->
      <g transform="translate(112.182386 655.398438) scale(0.1 -0.1)">
       <defs>
        <path id="DejaVuSans-30" d="M 2034 4250 
Q 1547 4250 1301 3770 
Q 1056 3291 1056 2328 
Q 1056 1369 1301 889 
Q 1547 409 2034 409 
Q 2525 409 2770 889 
Q 3016 1369 3016 2328 
Q 3016 3291 2770 3770 
Q 2525 4250 2034 4250 
z
M 2034 4750 
Q 2819 4750 3233 4129 
Q 3647 3509 3647 2328 
Q 3647 1150 3233 529 
Q 2819 -91 2034 -91 
Q 1250 -91 836 529 
Q 422 1150 422 2328 
Q 422 3509 836 4129 
Q 1250 4750 2034 4750 
z
" transform="scale(0.015625)"/>
       </defs>
       <use xlink:href="#DejaVuSans-30"/>
      </g>
     </g>
    </g>
    <g id="xtick_2">
     <g id="line2d_2">
      <g>
       <use xlink:href="#m7cef1ced62" x="216.818182" y="640.8" style="stroke: #000000; stroke-width: 0.8"/>
      </g>
     </g>
     <g id="text_2">
      <!-- 20 -->
      <g transform="translate(210.455682 655.398438) scale(0.1 -0.1)">
       <defs>
        <path id="DejaVuSans-32" d="M 1228 531 
L 3431 531 
L 3431 0 
L 469 0 
L 469 531 
Q 828 903 1448 1529 
Q 2069 2156 2228 2338 
Q 2531 2678 2651 2914 
Q 2772 3150 2772 3378 
Q 2772 3750 2511 3984 
Q 2250 4219 1831 4219 
Q 1534 4219 1204 4116 
Q 875 4013 500 3803 
L 500 4441 
Q 881 4594 1212 4672 
Q 1544 4750 1819 4750 
Q 2544 4750 2975 4387 
Q 3406 4025 3406 3419 
Q 3406 3131 3298 2873 
Q 3191 2616 2906 2266 
Q 2828 2175 2409 1742 
Q 1991 1309 1228 531 
z
" transform="scale(0.015625)"/>
       </defs>
       <use xlink:href="#DejaVuSans-32"/>
       <use xlink:href="#DejaVuSans-30" x="63.623047"/>
      </g>
     </g>
    </g>
    <g id="xtick_3">
     <g id="line2d_3">
      <g>
       <use xlink:href="#m7cef1ced62" x="318.272727" y="640.8" style="stroke: #000000; stroke-width: 0.8"/>
      </g>
     </g>
     <g id="text_3">
      <!-- 40 -->
      <g transform="translate(311.910227 655.398438) scale(0.1 -0.1)">
       <defs>
        <path id="DejaVuSans-34" d="M 2419 4116 
L 825 1625 
L 2419 1625 
L 2419 4116 
z
M 2253 4666 
L 3047 4666 
L 3047 1625 
L 3713 1625 
L 3713 1100 
L 3047 1100 
L 3047 0 
L 2419 0 
L 2419 1100 
L 313 1100 
L 313 1709 
L 2253 4666 
z
" transform="scale(0.015625)"/>
       </defs>
       <use xlink:href="#DejaVuSans-34"/>
       <use xlink:href="#DejaVuSans-30" x="63.623047"/>
      </g>
     </g>
    </g>
    <g id="xtick_4">
     <g id="line2d_4">
      <g>
       <use xlink:href="#m7cef1ced62" x="419.727273" y="640.8" style="stroke: #000000; stroke-width: 0.8"/>
      </g>
     </g>
     <g id="text_4">
      <!-- 60 -->
      <g transform="translate(413.364773 655.398438) scale(0.1 -0.1)">
       <defs>
        <path id="DejaVuSans-36" d="M 2113 2584 
Q 1688 2584 1439 2293 
Q 1191 2003 1191 1497 
Q 1191 994 1439 701 
Q 1688 409 2113 409 
Q 2538 409 2786 701 
Q 3034 994 3034 1497 
Q 3034 2003 2786 2293 
Q 2538 2584 2113 2584 
z
M 3366 4563 
L 3366 3988 
Q 3128 4100 2886 4159 
Q 2644 4219 2406 4219 
Q 1781 4219 1451 3797 
Q 1122 3375 1075 2522 
Q 1259 2794 1537 2939 
Q 1816 3084 2150 3084 
Q 2853 3084 3261 2657 
Q 3669 2231 3669 1497 
Q 3669 778 3244 343 
Q 2819 -91 2113 -91 
Q 1303 -91 875 529 
Q 447 1150 447 2328 
Q 447 3434 972 4092 
Q 1497 4750 2381 4750 
Q 2619 4750 2861 4703 
Q 3103 4656 3366 4563 
z
" transform="scale(0.015625)"/>
       </defs>
       <use xlink:href="#DejaVuSans-36"/>
       <use xlink:href="#DejaVuSans-30" x="63.623047"/>
      </g>
     </g>
    </g>
    <g id="xtick_5">
     <g id="line2d_5">
      <g>
       <use xlink:href="#m7cef1ced62" x="521.181818" y="640.8" style="stroke: #000000; stroke-width: 0.8"/>
      </g>
     </g>
     <g id="text_5">
      <!-- 80 -->
      <g transform="translate(514.819318 655.398438) scale(0.1 -0.1)">
       <defs>
        <path id="DejaVuSans-38" d="M 2034 2216 
Q 1584 2216 1326 1975 
Q 1069 1734 1069 1313 
Q 1069 891 1326 650 
Q 1584 409 2034 409 
Q 2484 409 2743 651 
Q 3003 894 3003 1313 
Q 3003 1734 2745 1975 
Q 2488 2216 2034 2216 
z
M 1403 2484 
Q 997 2584 770 2862 
Q 544 3141 544 3541 
Q 544 4100 942 4425 
Q 1341 4750 2034 4750 
Q 2731 4750 3128 4425 
Q 3525 4100 3525 3541 
Q 3525 3141 3298 2862 
Q 3072 2584 2669 2484 
Q 3125 2378 3379 2068 
Q 3634 1759 3634 1313 
Q 3634 634 3220 271 
Q 2806 -91 2034 -91 
Q 1263 -91 848 271 
Q 434 634 434 1313 
Q 434 1759 690 2068 
Q 947 2378 1403 2484 
z
M 1172 3481 
Q 1172 3119 1398 2916 
Q 1625 2713 2034 2713 
Q 2441 2713 2670 2916 
Q 2900 3119 2900 3481 
Q 2900 3844 2670 4047 
Q 2441 4250 2034 4250 
Q 1625 4250 1398 4047 
Q 1172 3844 1172 3481 
z
" transform="scale(0.015625)"/>
       </defs>
       <use xlink:href="#DejaVuSans-38"/>
       <use xlink:href="#DejaVuSans-30" x="63.623047"/>
      </g>
     </g>
    </g>
    <g id="xtick_6">
     <g id="line2d_6">
      <g>
       <use xlink:href="#m7cef1ced62" x="622.636364" y="640.8" style="stroke: #000000; stroke-width: 0.8"/>
      </g>
     </g>
     <g id="text_6">
      <!-- 100 -->
      <g transform="translate(613.092614 655.398438) scale(0.1 -0.1)">
       <defs>
        <path id="DejaVuSans-31" d="M 794 531 
L 1825 531 
L 1825 4091 
L 703 3866 
L 703 4441 
L 1819 4666 
L 2450 4666 
L 2450 531 
L 3481 531 
L 3481 0 
L 794 0 
L 794 531 
z
" transform="scale(0.015625)"/>
       </defs>
       <use xlink:href="#DejaVuSans-31"/>
       <use xlink:href="#DejaVuSans-30" x="63.623047"/>
       <use xlink:href="#DejaVuSans-30" x="127.246094"/>
      </g>
     </g>
    </g>
    <g id="text_7">
     <!-- time samples -->
     <g transform="translate(335.33125 669.076563) scale(0.1 -0.1)">
      <defs>
       <path id="DejaVuSans-74" d="M 1172 4494 
L 1172 3500 
L 2356 3500 
L 2356 3053 
L 1172 3053 
L 1172 1153 
Q 1172 725 1289 603 
Q 1406 481 1766 481 
L 2356 481 
L 2356 0 
L 1766 0 
Q 1100 0 847 248 
Q 594 497 594 1153 
L 594 3053 
L 172 3053 
L 172 3500 
L 594 3500 
L 594 4494 
L 1172 4494 
z
" transform="scale(0.015625)"/>
       <path id="DejaVuSans-69" d="M 603 3500 
L 1178 3500 
L 1178 0 
L 603 0 
L 603 3500 
z
M 603 4863 
L 1178 4863 
L 1178 4134 
L 603 4134 
L 603 4863 
z
" transform="scale(0.015625)"/>
       <path id="DejaVuSans-6d" d="M 3328 2828 
Q 3544 3216 3844 3400 
Q 4144 3584 4550 3584 
Q 5097 3584 5394 3201 
Q 5691 2819 5691 2113 
L 5691 0 
L 5113 0 
L 5113 2094 
Q 5113 2597 4934 2840 
Q 4756 3084 4391 3084 
Q 3944 3084 3684 2787 
Q 3425 2491 3425 1978 
L 3425 0 
L 2847 0 
L 2847 2094 
Q 2847 2600 2669 2842 
Q 2491 3084 2119 3084 
Q 1678 3084 1418 2786 
Q 1159 2488 1159 1978 
L 1159 0 
L 581 0 
L 581 3500 
L 1159 3500 
L 1159 2956 
Q 1356 3278 1631 3431 
Q 1906 3584 2284 3584 
Q 2666 3584 2933 3390 
Q 3200 3197 3328 2828 
z
" transform="scale(0.015625)"/>
       <path id="DejaVuSans-65" d="M 3597 1894 
L 3597 1613 
L 953 1613 
Q 991 1019 1311 708 
Q 1631 397 2203 397 
Q 2534 397 2845 478 
Q 3156 559 3463 722 
L 3463 178 
Q 3153 47 2828 -22 
Q 2503 -91 2169 -91 
Q 1331 -91 842 396 
Q 353 884 353 1716 
Q 353 2575 817 3079 
Q 1281 3584 2069 3584 
Q 2775 3584 3186 3129 
Q 3597 2675 3597 1894 
z
M 3022 2063 
Q 3016 2534 2758 2815 
Q 2500 3097 2075 3097 
Q 1594 3097 1305 2825 
Q 1016 2553 972 2059 
L 3022 2063 
z
" transform="scale(0.015625)"/>
       <path id="DejaVuSans-20" transform="scale(0.015625)"/>
       <path id="DejaVuSans-73" d="M 2834 3397 
L 2834 2853 
Q 2591 2978 2328 3040 
Q 2066 3103 1784 3103 
Q 1356 3103 1142 2972 
Q 928 2841 928 2578 
Q 928 2378 1081 2264 
Q 1234 2150 1697 2047 
L 1894 2003 
Q 2506 1872 2764 1633 
Q 3022 1394 3022 966 
Q 3022 478 2636 193 
Q 2250 -91 1575 -91 
Q 1294 -91 989 -36 
Q 684 19 347 128 
L 347 722 
Q 666 556 975 473 
Q 1284 391 1588 391 
Q 1994 391 2212 530 
Q 2431 669 2431 922 
Q 2431 1156 2273 1281 
Q 2116 1406 1581 1522 
L 1381 1569 
Q 847 1681 609 1914 
Q 372 2147 372 2553 
Q 372 3047 722 3315 
Q 1072 3584 1716 3584 
Q 2034 3584 2315 3537 
Q 2597 3491 2834 3397 
z
" transform="scale(0.015625)"/>
       <path id="DejaVuSans-61" d="M 2194 1759 
Q 1497 1759 1228 1600 
Q 959 1441 959 1056 
Q 959 750 1161 570 
Q 1363 391 1709 391 
Q 2188 391 2477 730 
Q 2766 1069 2766 1631 
L 2766 1759 
L 2194 1759 
z
M 3341 1997 
L 3341 0 
L 2766 0 
L 2766 531 
Q 2569 213 2275 61 
Q 1981 -91 1556 -91 
Q 1019 -91 701 211 
Q 384 513 384 1019 
Q 384 1609 779 1909 
Q 1175 2209 1959 2209 
L 2766 2209 
L 2766 2266 
Q 2766 2663 2505 2880 
Q 2244 3097 1772 3097 
Q 1472 3097 1187 3025 
Q 903 2953 641 2809 
L 641 3341 
Q 956 3463 1253 3523 
Q 1550 3584 1831 3584 
Q 2591 3584 2966 3190 
Q 3341 2797 3341 1997 
z
" transform="scale(0.015625)"/>
       <path id="DejaVuSans-70" d="M 1159 525 
L 1159 -1331 
L 581 -1331 
L 581 3500 
L 1159 3500 
L 1159 2969 
Q 1341 3281 1617 3432 
Q 1894 3584 2278 3584 
Q 2916 3584 3314 3078 
Q 3713 2572 3713 1747 
Q 3713 922 3314 415 
Q 2916 -91 2278 -91 
Q 1894 -91 1617 61 
Q 1341 213 1159 525 
z
M 3116 1747 
Q 3116 2381 2855 2742 
Q 2594 3103 2138 3103 
Q 1681 3103 1420 2742 
Q 1159 2381 1159 1747 
Q 1159 1113 1420 752 
Q 1681 391 2138 391 
Q 2594 391 2855 752 
Q 3116 1113 3116 1747 
z
" transform="scale(0.015625)"/>
       <path id="DejaVuSans-6c" d="M 603 4863 
L 1178 4863 
L 1178 0 
L 603 0 
L 603 4863 
z
" transform="scale(0.015625)"/>
      </defs>
      <use xlink:href="#DejaVuSans-74"/>
      <use xlink:href="#DejaVuSans-69" x="39.208984"/>
      <use xlink:href="#DejaVuSans-6d" x="66.992188"/>
      <use xlink:href="#DejaVuSans-65" x="164.404297"/>
      <use xlink:href="#DejaVuSans-20" x="225.927734"/>
      <use xlink:href="#DejaVuSans-73" x="257.714844"/>
      <use xlink:href="#DejaVuSans-61" x="309.814453"/>
      <use xlink:href="#DejaVuSans-6d" x="371.09375"/>
      <use xlink:href="#DejaVuSans-70" x="468.505859"/>
      <use xlink:href="#DejaVuSans-6c" x="531.982422"/>
      <use xlink:href="#DejaVuSans-65" x="559.765625"/>
      <use xlink:href="#DejaVuSans-73" x="621.289062"/>
     </g>
    </g>
   </g>
   <g id="matplotlib.axis_2">
    <g id="ytick_1">
     <g id="line2d_7">
      <defs>
       <path id="m91aceb0e09" d="M 0 0 
L -3.5 0 
" style="stroke: #000000; stroke-width: 0.8"/>
      </defs>
      <g>
       <use xlink:href="#m91aceb0e09" x="90" y="615.6" style="stroke: #000000; stroke-width: 0.8"/>
      </g>
     </g>
     <g id="text_8">
      <!-- 0.000 -->
      <g transform="translate(54.371875 619.399219) scale(0.1 -0.1)">
       <defs>
        <path id="DejaVuSans-2e" d="M 684 794 
L 1344 794 
L 1344 0 
L 684 0 
L 684 794 
z
" transform="scale(0.015625)"/>
       </defs>
       <use xlink:href="#DejaVuSans-30"/>
       <use xlink:href="#DejaVuSans-2e" x="63.623047"/>
       <use xlink:href="#DejaVuSans-30" x="95.410156"/>
       <use xlink:href="#DejaVuSans-30" x="159.033203"/>
       <use xlink:href="#DejaVuSans-30" x="222.65625"/>
      </g>
     </g>
    </g>
    <g id="ytick_2">
     <g id="line2d_8">
      <g>
       <use xlink:href="#m91aceb0e09" x="90" y="519.212466" style="stroke: #000000; stroke-width: 0.8"/>
      </g>
     </g>
     <g id="text_9">
      <!-- 0.001 -->
      <g transform="translate(54.371875 523.011685) scale(0.1 -0.1)">
       <use xlink:href="#DejaVuSans-30"/>
       <use xlink:href="#DejaVuSans-2e" x="63.623047"/>
       <use xlink:href="#DejaVuSans-30" x="95.410156"/>
       <use xlink:href="#DejaVuSans-30" x="159.033203"/>
       <use xlink:href="#DejaVuSans-31" x="222.65625"/>
      </g>
     </g>
    </g>
    <g id="ytick_3">
     <g id="line2d_9">
      <g>
       <use xlink:href="#m91aceb0e09" x="90" y="422.824933" style="stroke: #000000; stroke-width: 0.8"/>
      </g>
     </g>
     <g id="text_10">
      <!-- 0.002 -->
      <g transform="translate(54.371875 426.624152) scale(0.1 -0.1)">
       <use xlink:href="#DejaVuSans-30"/>
       <use xlink:href="#DejaVuSans-2e" x="63.623047"/>
       <use xlink:href="#DejaVuSans-30" x="95.410156"/>
       <use xlink:href="#DejaVuSans-30" x="159.033203"/>
       <use xlink:href="#DejaVuSans-32" x="222.65625"/>
      </g>
     </g>
    </g>
    <g id="ytick_4">
     <g id="line2d_10">
      <g>
       <use xlink:href="#m91aceb0e09" x="90" y="326.437399" style="stroke: #000000; stroke-width: 0.8"/>
      </g>
     </g>
     <g id="text_11">
      <!-- 0.003 -->
      <g transform="translate(54.371875 330.236618) scale(0.1 -0.1)">
       <defs>
        <path id="DejaVuSans-33" d="M 2597 2516 
Q 3050 2419 3304 2112 
Q 3559 1806 3559 1356 
Q 3559 666 3084 287 
Q 2609 -91 1734 -91 
Q 1441 -91 1130 -33 
Q 819 25 488 141 
L 488 750 
Q 750 597 1062 519 
Q 1375 441 1716 441 
Q 2309 441 2620 675 
Q 2931 909 2931 1356 
Q 2931 1769 2642 2001 
Q 2353 2234 1838 2234 
L 1294 2234 
L 1294 2753 
L 1863 2753 
Q 2328 2753 2575 2939 
Q 2822 3125 2822 3475 
Q 2822 3834 2567 4026 
Q 2313 4219 1838 4219 
Q 1578 4219 1281 4162 
Q 984 4106 628 3988 
L 628 4550 
Q 988 4650 1302 4700 
Q 1616 4750 1894 4750 
Q 2613 4750 3031 4423 
Q 3450 4097 3450 3541 
Q 3450 3153 3228 2886 
Q 3006 2619 2597 2516 
z
" transform="scale(0.015625)"/>
       </defs>
       <use xlink:href="#DejaVuSans-30"/>
       <use xlink:href="#DejaVuSans-2e" x="63.623047"/>
       <use xlink:href="#DejaVuSans-30" x="95.410156"/>
       <use xlink:href="#DejaVuSans-30" x="159.033203"/>
       <use xlink:href="#DejaVuSans-33" x="222.65625"/>
      </g>
     </g>
    </g>
    <g id="ytick_5">
     <g id="line2d_11">
      <g>
       <use xlink:href="#m91aceb0e09" x="90" y="230.049866" style="stroke: #000000; stroke-width: 0.8"/>
      </g>
     </g>
     <g id="text_12">
      <!-- 0.004 -->
      <g transform="translate(54.371875 233.849085) scale(0.1 -0.1)">
       <use xlink:href="#DejaVuSans-30"/>
       <use xlink:href="#DejaVuSans-2e" x="63.623047"/>
       <use xlink:href="#DejaVuSans-30" x="95.410156"/>
       <use xlink:href="#DejaVuSans-30" x="159.033203"/>
       <use xlink:href="#DejaVuSans-34" x="222.65625"/>
      </g>
     </g>
    </g>
    <g id="ytick_6">
     <g id="line2d_12">
      <g>
       <use xlink:href="#m91aceb0e09" x="90" y="133.662332" style="stroke: #000000; stroke-width: 0.8"/>
      </g>
     </g>
     <g id="text_13">
      <!-- 0.005 -->
      <g transform="translate(54.371875 137.461551) scale(0.1 -0.1)">
       <defs>
        <path id="DejaVuSans-35" d="M 691 4666 
L 3169 4666 
L 3169 4134 
L 1269 4134 
L 1269 2991 
Q 1406 3038 1543 3061 
Q 1681 3084 1819 3084 
Q 2600 3084 3056 2656 
Q 3513 2228 3513 1497 
Q 3513 744 3044 326 
Q 2575 -91 1722 -91 
Q 1428 -91 1123 -41 
Q 819 9 494 109 
L 494 744 
Q 775 591 1075 516 
Q 1375 441 1709 441 
Q 2250 441 2565 725 
Q 2881 1009 2881 1497 
Q 2881 1984 2565 2268 
Q 2250 2553 1709 2553 
Q 1456 2553 1204 2497 
Q 953 2441 691 2322 
L 691 4666 
z
" transform="scale(0.015625)"/>
       </defs>
       <use xlink:href="#DejaVuSans-30"/>
       <use xlink:href="#DejaVuSans-2e" x="63.623047"/>
       <use xlink:href="#DejaVuSans-30" x="95.410156"/>
       <use xlink:href="#DejaVuSans-30" x="159.033203"/>
       <use xlink:href="#DejaVuSans-35" x="222.65625"/>
      </g>
     </g>
    </g>
    <g id="text_14">
     <!-- abs(error) -->
     <g transform="translate(48.292187 388.446875) rotate(-90) scale(0.1 -0.1)">
      <defs>
       <path id="DejaVuSans-62" d="M 3116 1747 
Q 3116 2381 2855 2742 
Q 2594 3103 2138 3103 
Q 1681 3103 1420 2742 
Q 1159 2381 1159 1747 
Q 1159 1113 1420 752 
Q 1681 391 2138 391 
Q 2594 391 2855 752 
Q 3116 1113 3116 1747 
z
M 1159 2969 
Q 1341 3281 1617 3432 
Q 1894 3584 2278 3584 
Q 2916 3584 3314 3078 
Q 3713 2572 3713 1747 
Q 3713 922 3314 415 
Q 2916 -91 2278 -91 
Q 1894 -91 1617 61 
Q 1341 213 1159 525 
L 1159 0 
L 581 0 
L 581 4863 
L 1159 4863 
L 1159 2969 
z
" transform="scale(0.015625)"/>
       <path id="DejaVuSans-28" d="M 1984 4856 
Q 1566 4138 1362 3434 
Q 1159 2731 1159 2009 
Q 1159 1288 1364 580 
Q 1569 -128 1984 -844 
L 1484 -844 
Q 1016 -109 783 600 
Q 550 1309 550 2009 
Q 550 2706 781 3412 
Q 1013 4119 1484 4856 
L 1984 4856 
z
" transform="scale(0.015625)"/>
       <path id="DejaVuSans-72" d="M 2631 2963 
Q 2534 3019 2420 3045 
Q 2306 3072 2169 3072 
Q 1681 3072 1420 2755 
Q 1159 2438 1159 1844 
L 1159 0 
L 581 0 
L 581 3500 
L 1159 3500 
L 1159 2956 
Q 1341 3275 1631 3429 
Q 1922 3584 2338 3584 
Q 2397 3584 2469 3576 
Q 2541 3569 2628 3553 
L 2631 2963 
z
" transform="scale(0.015625)"/>
       <path id="DejaVuSans-6f" d="M 1959 3097 
Q 1497 3097 1228 2736 
Q 959 2375 959 1747 
Q 959 1119 1226 758 
Q 1494 397 1959 397 
Q 2419 397 2687 759 
Q 2956 1122 2956 1747 
Q 2956 2369 2687 2733 
Q 2419 3097 1959 3097 
z
M 1959 3584 
Q 2709 3584 3137 3096 
Q 3566 2609 3566 1747 
Q 3566 888 3137 398 
Q 2709 -91 1959 -91 
Q 1206 -91 779 398 
Q 353 888 353 1747 
Q 353 2609 779 3096 
Q 1206 3584 1959 3584 
z
" transform="scale(0.015625)"/>
       <path id="DejaVuSans-29" d="M 513 4856 
L 1013 4856 
Q 1481 4119 1714 3412 
Q 1947 2706 1947 2009 
Q 1947 1309 1714 600 
Q 1481 -109 1013 -844 
L 513 -844 
Q 928 -128 1133 580 
Q 1338 1288 1338 2009 
Q 1338 2731 1133 3434 
Q 928 4138 513 4856 
z
" transform="scale(0.015625)"/>
      </defs>
      <use xlink:href="#DejaVuSans-61"/>
      <use xlink:href="#DejaVuSans-62" x="61.279297"/>
      <use xlink:href="#DejaVuSans-73" x="124.755859"/>
      <use xlink:href="#DejaVuSans-28" x="176.855469"/>
      <use xlink:href="#DejaVuSans-65" x="215.869141"/>
      <use xlink:href="#DejaVuSans-72" x="277.392578"/>
      <use xlink:href="#DejaVuSans-72" x="316.755859"/>
      <use xlink:href="#DejaVuSans-6f" x="355.619141"/>
      <use xlink:href="#DejaVuSans-72" x="416.800781"/>
      <use xlink:href="#DejaVuSans-29" x="457.914062"/>
     </g>
    </g>
   </g>
   <g id="line2d_13">
    <path d="M 115.363636 615.6 
L 120.436364 610.091124 
L 125.509091 604.622465 
L 130.581818 599.276608 
L 135.654545 594.130394 
L 140.727273 589.261384 
L 145.8 584.748573 
L 150.872727 580.663775 
L 155.945455 577.08455 
L 161.018182 574.062604 
L 166.090909 571.666878 
L 171.163636 569.94908 
L 176.236364 568.960915 
L 181.309091 568.748345 
L 186.381818 569.351585 
L 191.454545 570.799362 
L 196.527273 573.1204 
L 201.6 576.320446 
L 206.672727 580.410989 
L 211.745455 585.397774 
L 216.818182 591.269312 
L 221.890909 598.008367 
L 226.963636 605.597703 
L 232.036364 614.00285 
L 237.109091 608.016409 
L 242.181818 598.106034 
L 247.254545 587.511988 
L 252.327273 576.30321 
L 257.4 564.542899 
L 262.472727 552.299996 
L 267.545455 539.660677 
L 272.618182 526.705376 
L 277.690909 513.526014 
L 282.763636 500.226004 
L 287.836364 486.885778 
L 292.909091 473.620239 
L 297.981818 460.521309 
L 303.054545 447.703891 
L 308.127273 435.274271 
L 313.2 423.33586 
L 318.272727 411.992072 
L 323.345455 401.354937 
L 328.418182 391.522121 
L 333.490909 382.594167 
L 338.563636 374.667662 
L 343.636364 367.835249 
L 348.709091 362.183822 
L 353.781818 357.796686 
L 358.854545 354.74745 
L 363.927273 353.104339 
L 369 352.931984 
L 374.072727 354.282093 
L 379.145455 357.194882 
L 384.218182 361.70482 
L 389.290909 367.84638 
L 394.363636 375.625306 
L 399.436364 385.058834 
L 404.509091 396.135473 
L 409.581818 408.849478 
L 414.654545 423.166378 
L 419.727273 439.045958 
L 424.8 456.436511 
L 429.872727 475.292076 
L 434.945455 495.537966 
L 440.018182 517.082259 
L 445.090909 539.856012 
L 450.163636 563.755814 
L 455.236364 588.661017 
L 460.309091 614.473952 
L 465.381818 590.143264 
L 470.454545 562.922768 
L 475.527273 535.190955 
L 480.6 507.102942 
L 485.672727 478.808105 
L 490.745455 450.461561 
L 495.818182 422.224175 
L 500.890909 394.251065 
L 505.963636 366.708841 
L 511.036364 339.764113 
L 516.109091 313.583488 
L 521.181818 288.327832 
L 526.254545 264.169499 
L 531.327273 241.252117 
L 536.4 219.745167 
L 541.472727 199.79228 
L 546.545455 181.537083 
L 551.618182 165.126077 
L 556.690909 150.687092 
L 561.763636 138.33934 
L 566.836364 128.199518 
L 571.909091 120.368527 
L 576.981818 114.940083 
L 582.054545 111.994979 
L 587.127273 111.6 
L 592.2 113.810444 
L 597.272727 118.667964 
L 602.345455 126.199849 
L 607.418182 136.420461 
L 612.490909 149.335547 
L 617.563636 164.916379 
L 622.636364 183.139978 
" clip-path="url(#p65cb4425a6)" style="fill: none; stroke: #1f77b4; stroke-width: 1.5; stroke-linecap: square"/>
    <defs>
     <path id="m3b8fa2d360" d="M 0 3 
C 0.795609 3 1.55874 2.683901 2.12132 2.12132 
C 2.683901 1.55874 3 0.795609 3 0 
C 3 -0.795609 2.683901 -1.55874 2.12132 -2.12132 
C 1.55874 -2.683901 0.795609 -3 0 -3 
C -0.795609 -3 -1.55874 -2.683901 -2.12132 -2.12132 
C -2.683901 -1.55874 -3 -0.795609 -3 0 
C -3 0.795609 -2.683901 1.55874 -2.12132 2.12132 
C -1.55874 2.683901 -0.795609 3 0 3 
z
" style="stroke: #1f77b4"/>
    </defs>
    <g clip-path="url(#p65cb4425a6)">
     <use xlink:href="#m3b8fa2d360" x="115.363636" y="615.6" style="fill: #1f77b4; stroke: #1f77b4"/>
     <use xlink:href="#m3b8fa2d360" x="120.436364" y="610.091124" style="fill: #1f77b4; stroke: #1f77b4"/>
     <use xlink:href="#m3b8fa2d360" x="125.509091" y="604.622465" style="fill: #1f77b4; stroke: #1f77b4"/>
     <use xlink:href="#m3b8fa2d360" x="130.581818" y="599.276608" style="fill: #1f77b4; stroke: #1f77b4"/>
     <use xlink:href="#m3b8fa2d360" x="135.654545" y="594.130394" style="fill: #1f77b4; stroke: #1f77b4"/>
     <use xlink:href="#m3b8fa2d360" x="140.727273" y="589.261384" style="fill: #1f77b4; stroke: #1f77b4"/>
     <use xlink:href="#m3b8fa2d360" x="145.8" y="584.748573" style="fill: #1f77b4; stroke: #1f77b4"/>
     <use xlink:href="#m3b8fa2d360" x="150.872727" y="580.663775" style="fill: #1f77b4; stroke: #1f77b4"/>
     <use xlink:href="#m3b8fa2d360" x="155.945455" y="577.08455" style="fill: #1f77b4; stroke: #1f77b4"/>
     <use xlink:href="#m3b8fa2d360" x="161.018182" y="574.062604" style="fill: #1f77b4; stroke: #1f77b4"/>
     <use xlink:href="#m3b8fa2d360" x="166.090909" y="571.666878" style="fill: #1f77b4; stroke: #1f77b4"/>
     <use xlink:href="#m3b8fa2d360" x="171.163636" y="569.94908" style="fill: #1f77b4; stroke: #1f77b4"/>
     <use xlink:href="#m3b8fa2d360" x="176.236364" y="568.960915" style="fill: #1f77b4; stroke: #1f77b4"/>
     <use xlink:href="#m3b8fa2d360" x="181.309091" y="568.748345" style="fill: #1f77b4; stroke: #1f77b4"/>
     <use xlink:href="#m3b8fa2d360" x="186.381818" y="569.351585" style="fill: #1f77b4; stroke: #1f77b4"/>
     <use xlink:href="#m3b8fa2d360" x="191.454545" y="570.799362" style="fill: #1f77b4; stroke: #1f77b4"/>
     <use xlink:href="#m3b8fa2d360" x="196.527273" y="573.1204" style="fill: #1f77b4; stroke: #1f77b4"/>
     <use xlink:href="#m3b8fa2d360" x="201.6" y="576.320446" style="fill: #1f77b4; stroke: #1f77b4"/>
     <use xlink:href="#m3b8fa2d360" x="206.672727" y="580.410989" style="fill: #1f77b4; stroke: #1f77b4"/>
     <use xlink:href="#m3b8fa2d360" x="211.745455" y="585.397774" style="fill: #1f77b4; stroke: #1f77b4"/>
     <use xlink:href="#m3b8fa2d360" x="216.818182" y="591.269312" style="fill: #1f77b4; stroke: #1f77b4"/>
     <use xlink:href="#m3b8fa2d360" x="221.890909" y="598.008367" style="fill: #1f77b4; stroke: #1f77b4"/>
     <use xlink:href="#m3b8fa2d360" x="226.963636" y="605.597703" style="fill: #1f77b4; stroke: #1f77b4"/>
     <use xlink:href="#m3b8fa2d360" x="232.036364" y="614.00285" style="fill: #1f77b4; stroke: #1f77b4"/>
     <use xlink:href="#m3b8fa2d360" x="237.109091" y="608.016409" style="fill: #1f77b4; stroke: #1f77b4"/>
     <use xlink:href="#m3b8fa2d360" x="242.181818" y="598.106034" style="fill: #1f77b4; stroke: #1f77b4"/>
     <use xlink:href="#m3b8fa2d360" x="247.254545" y="587.511988" style="fill: #1f77b4; stroke: #1f77b4"/>
     <use xlink:href="#m3b8fa2d360" x="252.327273" y="576.30321" style="fill: #1f77b4; stroke: #1f77b4"/>
     <use xlink:href="#m3b8fa2d360" x="257.4" y="564.542899" style="fill: #1f77b4; stroke: #1f77b4"/>
     <use xlink:href="#m3b8fa2d360" x="262.472727" y="552.299996" style="fill: #1f77b4; stroke: #1f77b4"/>
     <use xlink:href="#m3b8fa2d360" x="267.545455" y="539.660677" style="fill: #1f77b4; stroke: #1f77b4"/>
     <use xlink:href="#m3b8fa2d360" x="272.618182" y="526.705376" style="fill: #1f77b4; stroke: #1f77b4"/>
     <use xlink:href="#m3b8fa2d360" x="277.690909" y="513.526014" style="fill: #1f77b4; stroke: #1f77b4"/>
     <use xlink:href="#m3b8fa2d360" x="282.763636" y="500.226004" style="fill: #1f77b4; stroke: #1f77b4"/>
     <use xlink:href="#m3b8fa2d360" x="287.836364" y="486.885778" style="fill: #1f77b4; stroke: #1f77b4"/>
     <use xlink:href="#m3b8fa2d360" x="292.909091" y="473.620239" style="fill: #1f77b4; stroke: #1f77b4"/>
     <use xlink:href="#m3b8fa2d360" x="297.981818" y="460.521309" style="fill: #1f77b4; stroke: #1f77b4"/>
     <use xlink:href="#m3b8fa2d360" x="303.054545" y="447.703891" style="fill: #1f77b4; stroke: #1f77b4"/>
     <use xlink:href="#m3b8fa2d360" x="308.127273" y="435.274271" style="fill: #1f77b4; stroke: #1f77b4"/>
     <use xlink:href="#m3b8fa2d360" x="313.2" y="423.33586" style="fill: #1f77b4; stroke: #1f77b4"/>
     <use xlink:href="#m3b8fa2d360" x="318.272727" y="411.992072" style="fill: #1f77b4; stroke: #1f77b4"/>
     <use xlink:href="#m3b8fa2d360" x="323.345455" y="401.354937" style="fill: #1f77b4; stroke: #1f77b4"/>
     <use xlink:href="#m3b8fa2d360" x="328.418182" y="391.522121" style="fill: #1f77b4; stroke: #1f77b4"/>
     <use xlink:href="#m3b8fa2d360" x="333.490909" y="382.594167" style="fill: #1f77b4; stroke: #1f77b4"/>
     <use xlink:href="#m3b8fa2d360" x="338.563636" y="374.667662" style="fill: #1f77b4; stroke: #1f77b4"/>
     <use xlink:href="#m3b8fa2d360" x="343.636364" y="367.835249" style="fill: #1f77b4; stroke: #1f77b4"/>
     <use xlink:href="#m3b8fa2d360" x="348.709091" y="362.183822" style="fill: #1f77b4; stroke: #1f77b4"/>
     <use xlink:href="#m3b8fa2d360" x="353.781818" y="357.796686" style="fill: #1f77b4; stroke: #1f77b4"/>
     <use xlink:href="#m3b8fa2d360" x="358.854545" y="354.74745" style="fill: #1f77b4; stroke: #1f77b4"/>
     <use xlink:href="#m3b8fa2d360" x="363.927273" y="353.104339" style="fill: #1f77b4; stroke: #1f77b4"/>
     <use xlink:href="#m3b8fa2d360" x="369" y="352.931984" style="fill: #1f77b4; stroke: #1f77b4"/>
     <use xlink:href="#m3b8fa2d360" x="374.072727" y="354.282093" style="fill: #1f77b4; stroke: #1f77b4"/>
     <use xlink:href="#m3b8fa2d360" x="379.145455" y="357.194882" style="fill: #1f77b4; stroke: #1f77b4"/>
     <use xlink:href="#m3b8fa2d360" x="384.218182" y="361.70482" style="fill: #1f77b4; stroke: #1f77b4"/>
     <use xlink:href="#m3b8fa2d360" x="389.290909" y="367.84638" style="fill: #1f77b4; stroke: #1f77b4"/>
     <use xlink:href="#m3b8fa2d360" x="394.363636" y="375.625306" style="fill: #1f77b4; stroke: #1f77b4"/>
     <use xlink:href="#m3b8fa2d360" x="399.436364" y="385.058834" style="fill: #1f77b4; stroke: #1f77b4"/>
     <use xlink:href="#m3b8fa2d360" x="404.509091" y="396.135473" style="fill: #1f77b4; stroke: #1f77b4"/>
     <use xlink:href="#m3b8fa2d360" x="409.581818" y="408.849478" style="fill: #1f77b4; stroke: #1f77b4"/>
     <use xlink:href="#m3b8fa2d360" x="414.654545" y="423.166378" style="fill: #1f77b4; stroke: #1f77b4"/>
     <use xlink:href="#m3b8fa2d360" x="419.727273" y="439.045958" style="fill: #1f77b4; stroke: #1f77b4"/>
     <use xlink:href="#m3b8fa2d360" x="424.8" y="456.436511" style="fill: #1f77b4; stroke: #1f77b4"/>
     <use xlink:href="#m3b8fa2d360" x="429.872727" y="475.292076" style="fill: #1f77b4; stroke: #1f77b4"/>
     <use xlink:href="#m3b8fa2d360" x="434.945455" y="495.537966" style="fill: #1f77b4; stroke: #1f77b4"/>
     <use xlink:href="#m3b8fa2d360" x="440.018182" y="517.082259" style="fill: #1f77b4; stroke: #1f77b4"/>
     <use xlink:href="#m3b8fa2d360" x="445.090909" y="539.856012" style="fill: #1f77b4; stroke: #1f77b4"/>
     <use xlink:href="#m3b8fa2d360" x="450.163636" y="563.755814" style="fill: #1f77b4; stroke: #1f77b4"/>
     <use xlink:href="#m3b8fa2d360" x="455.236364" y="588.661017" style="fill: #1f77b4; stroke: #1f77b4"/>
     <use xlink:href="#m3b8fa2d360" x="460.309091" y="614.473952" style="fill: #1f77b4; stroke: #1f77b4"/>
     <use xlink:href="#m3b8fa2d360" x="465.381818" y="590.143264" style="fill: #1f77b4; stroke: #1f77b4"/>
     <use xlink:href="#m3b8fa2d360" x="470.454545" y="562.922768" style="fill: #1f77b4; stroke: #1f77b4"/>
     <use xlink:href="#m3b8fa2d360" x="475.527273" y="535.190955" style="fill: #1f77b4; stroke: #1f77b4"/>
     <use xlink:href="#m3b8fa2d360" x="480.6" y="507.102942" style="fill: #1f77b4; stroke: #1f77b4"/>
     <use xlink:href="#m3b8fa2d360" x="485.672727" y="478.808105" style="fill: #1f77b4; stroke: #1f77b4"/>
     <use xlink:href="#m3b8fa2d360" x="490.745455" y="450.461561" style="fill: #1f77b4; stroke: #1f77b4"/>
     <use xlink:href="#m3b8fa2d360" x="495.818182" y="422.224175" style="fill: #1f77b4; stroke: #1f77b4"/>
     <use xlink:href="#m3b8fa2d360" x="500.890909" y="394.251065" style="fill: #1f77b4; stroke: #1f77b4"/>
     <use xlink:href="#m3b8fa2d360" x="505.963636" y="366.708841" style="fill: #1f77b4; stroke: #1f77b4"/>
     <use xlink:href="#m3b8fa2d360" x="511.036364" y="339.764113" style="fill: #1f77b4; stroke: #1f77b4"/>
     <use xlink:href="#m3b8fa2d360" x="516.109091" y="313.583488" style="fill: #1f77b4; stroke: #1f77b4"/>
     <use xlink:href="#m3b8fa2d360" x="521.181818" y="288.327832" style="fill: #1f77b4; stroke: #1f77b4"/>
     <use xlink:href="#m3b8fa2d360" x="526.254545" y="264.169499" style="fill: #1f77b4; stroke: #1f77b4"/>
     <use xlink:href="#m3b8fa2d360" x="531.327273" y="241.252117" style="fill: #1f77b4; stroke: #1f77b4"/>
     <use xlink:href="#m3b8fa2d360" x="536.4" y="219.745167" style="fill: #1f77b4; stroke: #1f77b4"/>
     <use xlink:href="#m3b8fa2d360" x="541.472727" y="199.79228" style="fill: #1f77b4; stroke: #1f77b4"/>
     <use xlink:href="#m3b8fa2d360" x="546.545455" y="181.537083" style="fill: #1f77b4; stroke: #1f77b4"/>
     <use xlink:href="#m3b8fa2d360" x="551.618182" y="165.126077" style="fill: #1f77b4; stroke: #1f77b4"/>
     <use xlink:href="#m3b8fa2d360" x="556.690909" y="150.687092" style="fill: #1f77b4; stroke: #1f77b4"/>
     <use xlink:href="#m3b8fa2d360" x="561.763636" y="138.33934" style="fill: #1f77b4; stroke: #1f77b4"/>
     <use xlink:href="#m3b8fa2d360" x="566.836364" y="128.199518" style="fill: #1f77b4; stroke: #1f77b4"/>
     <use xlink:href="#m3b8fa2d360" x="571.909091" y="120.368527" style="fill: #1f77b4; stroke: #1f77b4"/>
     <use xlink:href="#m3b8fa2d360" x="576.981818" y="114.940083" style="fill: #1f77b4; stroke: #1f77b4"/>
     <use xlink:href="#m3b8fa2d360" x="582.054545" y="111.994979" style="fill: #1f77b4; stroke: #1f77b4"/>
     <use xlink:href="#m3b8fa2d360" x="587.127273" y="111.6" style="fill: #1f77b4; stroke: #1f77b4"/>
     <use xlink:href="#m3b8fa2d360" x="592.2" y="113.810444" style="fill: #1f77b4; stroke: #1f77b4"/>
     <use xlink:href="#m3b8fa2d360" x="597.272727" y="118.667964" style="fill: #1f77b4; stroke: #1f77b4"/>
     <use xlink:href="#m3b8fa2d360" x="602.345455" y="126.199849" style="fill: #1f77b4; stroke: #1f77b4"/>
     <use xlink:href="#m3b8fa2d360" x="607.418182" y="136.420461" style="fill: #1f77b4; stroke: #1f77b4"/>
     <use xlink:href="#m3b8fa2d360" x="612.490909" y="149.335547" style="fill: #1f77b4; stroke: #1f77b4"/>
     <use xlink:href="#m3b8fa2d360" x="617.563636" y="164.916379" style="fill: #1f77b4; stroke: #1f77b4"/>
     <use xlink:href="#m3b8fa2d360" x="622.636364" y="183.139978" style="fill: #1f77b4; stroke: #1f77b4"/>
    </g>
   </g>
   <g id="line2d_14">
    <path d="M 115.363636 615.6 
L 120.436364 615.502333 
L 125.509091 614.634816 
L 130.581818 613.003195 
L 135.654545 610.624705 
L 140.727273 607.522327 
L 145.8 603.719041 
L 150.872727 599.249318 
L 155.945455 594.164865 
L 161.018182 588.511643 
L 166.090909 582.341357 
L 171.163636 575.722951 
L 176.236364 568.725364 
L 181.309091 561.411795 
L 186.381818 553.85693 
L 191.454545 546.141201 
L 196.527273 538.353657 
L 201.6 530.574731 
L 206.672727 522.887727 
L 211.745455 515.381696 
L 216.818182 508.14425 
L 221.890909 501.264439 
L 226.963636 494.827902 
L 232.036364 488.918841 
L 237.109091 483.621818 
L 242.181818 479.01493 
L 247.254545 475.175737 
L 252.327273 472.175335 
L 257.4 470.08123 
L 262.472727 468.958054 
L 267.545455 468.846024 
L 272.618182 469.811208 
L 277.690909 471.890951 
L 282.763636 475.125467 
L 287.836364 479.531993 
L 292.909091 485.139254 
L 297.981818 491.952996 
L 303.054545 499.978963 
L 308.127273 509.205665 
L 313.2 519.621613 
L 318.272727 531.192334 
L 323.345455 543.894849 
L 328.418182 557.683196 
L 333.490909 572.499924 
L 338.563636 588.281837 
L 343.636364 604.977227 
L 348.709091 608.711572 
L 353.781818 590.459247 
L 358.854545 571.563466 
L 363.927273 552.121896 
L 369 532.243696 
L 374.072727 512.032277 
L 379.145455 491.614032 
L 384.218182 471.109611 
L 389.290909 450.63966 
L 394.363636 430.342064 
L 399.436364 410.331725 
L 404.509091 390.758017 
L 409.581818 371.764569 
L 414.654545 353.466283 
L 419.727273 335.99817 
L 424.8 319.489497 
L 429.872727 304.069529 
L 434.945455 289.861786 
L 440.018182 276.98548 
L 445.090909 265.551206 
L 450.163636 255.67243 
L 455.236364 247.447358 
L 460.309091 240.970246 
L 465.381818 236.32781 
L 470.454545 233.595275 
L 475.527273 232.841225 
L 480.6 234.11952 
L 485.672727 237.480429 
L 490.745455 242.958425 
L 495.818182 250.570741 
L 500.890909 260.337487 
L 505.963636 272.241427 
L 511.036364 286.282561 
L 516.109091 302.437908 
L 521.181818 320.661507 
L 526.254545 340.895906 
L 531.327273 363.0894 
L 536.4 387.150066 
L 541.472727 413.003217 
L 546.545455 440.539696 
L 551.618182 469.644599 
L 556.690909 500.203024 
L 561.763636 532.065596 
L 566.836364 565.100178 
L 571.909091 599.14016 
L 576.981818 597.163831 
L 582.054545 561.589895 
L 587.127273 525.521876 
L 592.2 489.13213 
L 597.272727 452.621735 
L 602.345455 416.180282 
L 607.418182 379.997361 
L 612.490909 344.285542 
L 617.563636 309.228669 
L 622.636364 275.045058 
" clip-path="url(#p65cb4425a6)" style="fill: none; stroke: #ff7f0e; stroke-width: 1.5; stroke-linecap: square"/>
    <defs>
     <path id="m54299eeab6" d="M 0 3 
C 0.795609 3 1.55874 2.683901 2.12132 2.12132 
C 2.683901 1.55874 3 0.795609 3 0 
C 3 -0.795609 2.683901 -1.55874 2.12132 -2.12132 
C 1.55874 -2.683901 0.795609 -3 0 -3 
C -0.795609 -3 -1.55874 -2.683901 -2.12132 -2.12132 
C -2.683901 -1.55874 -3 -0.795609 -3 0 
C -3 0.795609 -2.683901 1.55874 -2.12132 2.12132 
C -1.55874 2.683901 -0.795609 3 0 3 
z
" style="stroke: #ff7f0e"/>
    </defs>
    <g clip-path="url(#p65cb4425a6)">
     <use xlink:href="#m54299eeab6" x="115.363636" y="615.6" style="fill: #ff7f0e; stroke: #ff7f0e"/>
     <use xlink:href="#m54299eeab6" x="120.436364" y="615.502333" style="fill: #ff7f0e; stroke: #ff7f0e"/>
     <use xlink:href="#m54299eeab6" x="125.509091" y="614.634816" style="fill: #ff7f0e; stroke: #ff7f0e"/>
     <use xlink:href="#m54299eeab6" x="130.581818" y="613.003195" style="fill: #ff7f0e; stroke: #ff7f0e"/>
     <use xlink:href="#m54299eeab6" x="135.654545" y="610.624705" style="fill: #ff7f0e; stroke: #ff7f0e"/>
     <use xlink:href="#m54299eeab6" x="140.727273" y="607.522327" style="fill: #ff7f0e; stroke: #ff7f0e"/>
     <use xlink:href="#m54299eeab6" x="145.8" y="603.719041" style="fill: #ff7f0e; stroke: #ff7f0e"/>
     <use xlink:href="#m54299eeab6" x="150.872727" y="599.249318" style="fill: #ff7f0e; stroke: #ff7f0e"/>
     <use xlink:href="#m54299eeab6" x="155.945455" y="594.164865" style="fill: #ff7f0e; stroke: #ff7f0e"/>
     <use xlink:href="#m54299eeab6" x="161.018182" y="588.511643" style="fill: #ff7f0e; stroke: #ff7f0e"/>
     <use xlink:href="#m54299eeab6" x="166.090909" y="582.341357" style="fill: #ff7f0e; stroke: #ff7f0e"/>
     <use xlink:href="#m54299eeab6" x="171.163636" y="575.722951" style="fill: #ff7f0e; stroke: #ff7f0e"/>
     <use xlink:href="#m54299eeab6" x="176.236364" y="568.725364" style="fill: #ff7f0e; stroke: #ff7f0e"/>
     <use xlink:href="#m54299eeab6" x="181.309091" y="561.411795" style="fill: #ff7f0e; stroke: #ff7f0e"/>
     <use xlink:href="#m54299eeab6" x="186.381818" y="553.85693" style="fill: #ff7f0e; stroke: #ff7f0e"/>
     <use xlink:href="#m54299eeab6" x="191.454545" y="546.141201" style="fill: #ff7f0e; stroke: #ff7f0e"/>
     <use xlink:href="#m54299eeab6" x="196.527273" y="538.353657" style="fill: #ff7f0e; stroke: #ff7f0e"/>
     <use xlink:href="#m54299eeab6" x="201.6" y="530.574731" style="fill: #ff7f0e; stroke: #ff7f0e"/>
     <use xlink:href="#m54299eeab6" x="206.672727" y="522.887727" style="fill: #ff7f0e; stroke: #ff7f0e"/>
     <use xlink:href="#m54299eeab6" x="211.745455" y="515.381696" style="fill: #ff7f0e; stroke: #ff7f0e"/>
     <use xlink:href="#m54299eeab6" x="216.818182" y="508.14425" style="fill: #ff7f0e; stroke: #ff7f0e"/>
     <use xlink:href="#m54299eeab6" x="221.890909" y="501.264439" style="fill: #ff7f0e; stroke: #ff7f0e"/>
     <use xlink:href="#m54299eeab6" x="226.963636" y="494.827902" style="fill: #ff7f0e; stroke: #ff7f0e"/>
     <use xlink:href="#m54299eeab6" x="232.036364" y="488.918841" style="fill: #ff7f0e; stroke: #ff7f0e"/>
     <use xlink:href="#m54299eeab6" x="237.109091" y="483.621818" style="fill: #ff7f0e; stroke: #ff7f0e"/>
     <use xlink:href="#m54299eeab6" x="242.181818" y="479.01493" style="fill: #ff7f0e; stroke: #ff7f0e"/>
     <use xlink:href="#m54299eeab6" x="247.254545" y="475.175737" style="fill: #ff7f0e; stroke: #ff7f0e"/>
     <use xlink:href="#m54299eeab6" x="252.327273" y="472.175335" style="fill: #ff7f0e; stroke: #ff7f0e"/>
     <use xlink:href="#m54299eeab6" x="257.4" y="470.08123" style="fill: #ff7f0e; stroke: #ff7f0e"/>
     <use xlink:href="#m54299eeab6" x="262.472727" y="468.958054" style="fill: #ff7f0e; stroke: #ff7f0e"/>
     <use xlink:href="#m54299eeab6" x="267.545455" y="468.846024" style="fill: #ff7f0e; stroke: #ff7f0e"/>
     <use xlink:href="#m54299eeab6" x="272.618182" y="469.811208" style="fill: #ff7f0e; stroke: #ff7f0e"/>
     <use xlink:href="#m54299eeab6" x="277.690909" y="471.890951" style="fill: #ff7f0e; stroke: #ff7f0e"/>
     <use xlink:href="#m54299eeab6" x="282.763636" y="475.125467" style="fill: #ff7f0e; stroke: #ff7f0e"/>
     <use xlink:href="#m54299eeab6" x="287.836364" y="479.531993" style="fill: #ff7f0e; stroke: #ff7f0e"/>
     <use xlink:href="#m54299eeab6" x="292.909091" y="485.139254" style="fill: #ff7f0e; stroke: #ff7f0e"/>
     <use xlink:href="#m54299eeab6" x="297.981818" y="491.952996" style="fill: #ff7f0e; stroke: #ff7f0e"/>
     <use xlink:href="#m54299eeab6" x="303.054545" y="499.978963" style="fill: #ff7f0e; stroke: #ff7f0e"/>
     <use xlink:href="#m54299eeab6" x="308.127273" y="509.205665" style="fill: #ff7f0e; stroke: #ff7f0e"/>
     <use xlink:href="#m54299eeab6" x="313.2" y="519.621613" style="fill: #ff7f0e; stroke: #ff7f0e"/>
     <use xlink:href="#m54299eeab6" x="318.272727" y="531.192334" style="fill: #ff7f0e; stroke: #ff7f0e"/>
     <use xlink:href="#m54299eeab6" x="323.345455" y="543.894849" style="fill: #ff7f0e; stroke: #ff7f0e"/>
     <use xlink:href="#m54299eeab6" x="328.418182" y="557.683196" style="fill: #ff7f0e; stroke: #ff7f0e"/>
     <use xlink:href="#m54299eeab6" x="333.490909" y="572.499924" style="fill: #ff7f0e; stroke: #ff7f0e"/>
     <use xlink:href="#m54299eeab6" x="338.563636" y="588.281837" style="fill: #ff7f0e; stroke: #ff7f0e"/>
     <use xlink:href="#m54299eeab6" x="343.636364" y="604.977227" style="fill: #ff7f0e; stroke: #ff7f0e"/>
     <use xlink:href="#m54299eeab6" x="348.709091" y="608.711572" style="fill: #ff7f0e; stroke: #ff7f0e"/>
     <use xlink:href="#m54299eeab6" x="353.781818" y="590.459247" style="fill: #ff7f0e; stroke: #ff7f0e"/>
     <use xlink:href="#m54299eeab6" x="358.854545" y="571.563466" style="fill: #ff7f0e; stroke: #ff7f0e"/>
     <use xlink:href="#m54299eeab6" x="363.927273" y="552.121896" style="fill: #ff7f0e; stroke: #ff7f0e"/>
     <use xlink:href="#m54299eeab6" x="369" y="532.243696" style="fill: #ff7f0e; stroke: #ff7f0e"/>
     <use xlink:href="#m54299eeab6" x="374.072727" y="512.032277" style="fill: #ff7f0e; stroke: #ff7f0e"/>
     <use xlink:href="#m54299eeab6" x="379.145455" y="491.614032" style="fill: #ff7f0e; stroke: #ff7f0e"/>
     <use xlink:href="#m54299eeab6" x="384.218182" y="471.109611" style="fill: #ff7f0e; stroke: #ff7f0e"/>
     <use xlink:href="#m54299eeab6" x="389.290909" y="450.63966" style="fill: #ff7f0e; stroke: #ff7f0e"/>
     <use xlink:href="#m54299eeab6" x="394.363636" y="430.342064" style="fill: #ff7f0e; stroke: #ff7f0e"/>
     <use xlink:href="#m54299eeab6" x="399.436364" y="410.331725" style="fill: #ff7f0e; stroke: #ff7f0e"/>
     <use xlink:href="#m54299eeab6" x="404.509091" y="390.758017" style="fill: #ff7f0e; stroke: #ff7f0e"/>
     <use xlink:href="#m54299eeab6" x="409.581818" y="371.764569" style="fill: #ff7f0e; stroke: #ff7f0e"/>
     <use xlink:href="#m54299eeab6" x="414.654545" y="353.466283" style="fill: #ff7f0e; stroke: #ff7f0e"/>
     <use xlink:href="#m54299eeab6" x="419.727273" y="335.99817" style="fill: #ff7f0e; stroke: #ff7f0e"/>
     <use xlink:href="#m54299eeab6" x="424.8" y="319.489497" style="fill: #ff7f0e; stroke: #ff7f0e"/>
     <use xlink:href="#m54299eeab6" x="429.872727" y="304.069529" style="fill: #ff7f0e; stroke: #ff7f0e"/>
     <use xlink:href="#m54299eeab6" x="434.945455" y="289.861786" style="fill: #ff7f0e; stroke: #ff7f0e"/>
     <use xlink:href="#m54299eeab6" x="440.018182" y="276.98548" style="fill: #ff7f0e; stroke: #ff7f0e"/>
     <use xlink:href="#m54299eeab6" x="445.090909" y="265.551206" style="fill: #ff7f0e; stroke: #ff7f0e"/>
     <use xlink:href="#m54299eeab6" x="450.163636" y="255.67243" style="fill: #ff7f0e; stroke: #ff7f0e"/>
     <use xlink:href="#m54299eeab6" x="455.236364" y="247.447358" style="fill: #ff7f0e; stroke: #ff7f0e"/>
     <use xlink:href="#m54299eeab6" x="460.309091" y="240.970246" style="fill: #ff7f0e; stroke: #ff7f0e"/>
     <use xlink:href="#m54299eeab6" x="465.381818" y="236.32781" style="fill: #ff7f0e; stroke: #ff7f0e"/>
     <use xlink:href="#m54299eeab6" x="470.454545" y="233.595275" style="fill: #ff7f0e; stroke: #ff7f0e"/>
     <use xlink:href="#m54299eeab6" x="475.527273" y="232.841225" style="fill: #ff7f0e; stroke: #ff7f0e"/>
     <use xlink:href="#m54299eeab6" x="480.6" y="234.11952" style="fill: #ff7f0e; stroke: #ff7f0e"/>
     <use xlink:href="#m54299eeab6" x="485.672727" y="237.480429" style="fill: #ff7f0e; stroke: #ff7f0e"/>
     <use xlink:href="#m54299eeab6" x="490.745455" y="242.958425" style="fill: #ff7f0e; stroke: #ff7f0e"/>
     <use xlink:href="#m54299eeab6" x="495.818182" y="250.570741" style="fill: #ff7f0e; stroke: #ff7f0e"/>
     <use xlink:href="#m54299eeab6" x="500.890909" y="260.337487" style="fill: #ff7f0e; stroke: #ff7f0e"/>
     <use xlink:href="#m54299eeab6" x="505.963636" y="272.241427" style="fill: #ff7f0e; stroke: #ff7f0e"/>
     <use xlink:href="#m54299eeab6" x="511.036364" y="286.282561" style="fill: #ff7f0e; stroke: #ff7f0e"/>
     <use xlink:href="#m54299eeab6" x="516.109091" y="302.437908" style="fill: #ff7f0e; stroke: #ff7f0e"/>
     <use xlink:href="#m54299eeab6" x="521.181818" y="320.661507" style="fill: #ff7f0e; stroke: #ff7f0e"/>
     <use xlink:href="#m54299eeab6" x="526.254545" y="340.895906" style="fill: #ff7f0e; stroke: #ff7f0e"/>
     <use xlink:href="#m54299eeab6" x="531.327273" y="363.0894" style="fill: #ff7f0e; stroke: #ff7f0e"/>
     <use xlink:href="#m54299eeab6" x="536.4" y="387.150066" style="fill: #ff7f0e; stroke: #ff7f0e"/>
     <use xlink:href="#m54299eeab6" x="541.472727" y="413.003217" style="fill: #ff7f0e; stroke: #ff7f0e"/>
     <use xlink:href="#m54299eeab6" x="546.545455" y="440.539696" style="fill: #ff7f0e; stroke: #ff7f0e"/>
     <use xlink:href="#m54299eeab6" x="551.618182" y="469.644599" style="fill: #ff7f0e; stroke: #ff7f0e"/>
     <use xlink:href="#m54299eeab6" x="556.690909" y="500.203024" style="fill: #ff7f0e; stroke: #ff7f0e"/>
     <use xlink:href="#m54299eeab6" x="561.763636" y="532.065596" style="fill: #ff7f0e; stroke: #ff7f0e"/>
     <use xlink:href="#m54299eeab6" x="566.836364" y="565.100178" style="fill: #ff7f0e; stroke: #ff7f0e"/>
     <use xlink:href="#m54299eeab6" x="571.909091" y="599.14016" style="fill: #ff7f0e; stroke: #ff7f0e"/>
     <use xlink:href="#m54299eeab6" x="576.981818" y="597.163831" style="fill: #ff7f0e; stroke: #ff7f0e"/>
     <use xlink:href="#m54299eeab6" x="582.054545" y="561.589895" style="fill: #ff7f0e; stroke: #ff7f0e"/>
     <use xlink:href="#m54299eeab6" x="587.127273" y="525.521876" style="fill: #ff7f0e; stroke: #ff7f0e"/>
     <use xlink:href="#m54299eeab6" x="592.2" y="489.13213" style="fill: #ff7f0e; stroke: #ff7f0e"/>
     <use xlink:href="#m54299eeab6" x="597.272727" y="452.621735" style="fill: #ff7f0e; stroke: #ff7f0e"/>
     <use xlink:href="#m54299eeab6" x="602.345455" y="416.180282" style="fill: #ff7f0e; stroke: #ff7f0e"/>
     <use xlink:href="#m54299eeab6" x="607.418182" y="379.997361" style="fill: #ff7f0e; stroke: #ff7f0e"/>
     <use xlink:href="#m54299eeab6" x="612.490909" y="344.285542" style="fill: #ff7f0e; stroke: #ff7f0e"/>
     <use xlink:href="#m54299eeab6" x="617.563636" y="309.228669" style="fill: #ff7f0e; stroke: #ff7f0e"/>
     <use xlink:href="#m54299eeab6" x="622.636364" y="275.045058" style="fill: #ff7f0e; stroke: #ff7f0e"/>
    </g>
   </g>
   <g id="patch_3">
    <path d="M 90 640.8 
L 90 86.4 
" style="fill: none; stroke: #000000; stroke-width: 0.8; stroke-linejoin: miter; stroke-linecap: square"/>
   </g>
   <g id="patch_4">
    <path d="M 648 640.8 
L 648 86.4 
" style="fill: none; stroke: #000000; stroke-width: 0.8; stroke-linejoin: miter; stroke-linecap: square"/>
   </g>
   <g id="patch_5">
    <path d="M 90 640.8 
L 648 640.8 
" style="fill: none; stroke: #000000; stroke-width: 0.8; stroke-linejoin: miter; stroke-linecap: square"/>
   </g>
   <g id="patch_6">
    <path d="M 90 86.4 
L 648 86.4 
" style="fill: none; stroke: #000000; stroke-width: 0.8; stroke-linejoin: miter; stroke-linecap: square"/>
   </g>
   <g id="text_15">
    <!-- Errors comparison -->
    <g transform="translate(314.311875 80.4) scale(0.12 -0.12)">
     <defs>
      <path id="DejaVuSans-45" d="M 628 4666 
L 3578 4666 
L 3578 4134 
L 1259 4134 
L 1259 2753 
L 3481 2753 
L 3481 2222 
L 1259 2222 
L 1259 531 
L 3634 531 
L 3634 0 
L 628 0 
L 628 4666 
z
" transform="scale(0.015625)"/>
      <path id="DejaVuSans-63" d="M 3122 3366 
L 3122 2828 
Q 2878 2963 2633 3030 
Q 2388 3097 2138 3097 
Q 1578 3097 1268 2742 
Q 959 2388 959 1747 
Q 959 1106 1268 751 
Q 1578 397 2138 397 
Q 2388 397 2633 464 
Q 2878 531 3122 666 
L 3122 134 
Q 2881 22 2623 -34 
Q 2366 -91 2075 -91 
Q 1284 -91 818 406 
Q 353 903 353 1747 
Q 353 2603 823 3093 
Q 1294 3584 2113 3584 
Q 2378 3584 2631 3529 
Q 2884 3475 3122 3366 
z
" transform="scale(0.015625)"/>
      <path id="DejaVuSans-6e" d="M 3513 2113 
L 3513 0 
L 2938 0 
L 2938 2094 
Q 2938 2591 2744 2837 
Q 2550 3084 2163 3084 
Q 1697 3084 1428 2787 
Q 1159 2491 1159 1978 
L 1159 0 
L 581 0 
L 581 3500 
L 1159 3500 
L 1159 2956 
Q 1366 3272 1645 3428 
Q 1925 3584 2291 3584 
Q 2894 3584 3203 3211 
Q 3513 2838 3513 2113 
z
" transform="scale(0.015625)"/>
     </defs>
     <use xlink:href="#DejaVuSans-45"/>
     <use xlink:href="#DejaVuSans-72" x="63.183594"/>
     <use xlink:href="#DejaVuSans-72" x="102.546875"/>
     <use xlink:href="#DejaVuSans-6f" x="141.410156"/>
     <use xlink:href="#DejaVuSans-72" x="202.591797"/>
     <use xlink:href="#DejaVuSans-73" x="243.705078"/>
     <use xlink:href="#DejaVuSans-20" x="295.804688"/>
     <use xlink:href="#DejaVuSans-63" x="327.591797"/>
     <use xlink:href="#DejaVuSans-6f" x="382.572266"/>
     <use xlink:href="#DejaVuSans-6d" x="443.753906"/>
     <use xlink:href="#DejaVuSans-70" x="541.166016"/>
     <use xlink:href="#DejaVuSans-61" x="604.642578"/>
     <use xlink:href="#DejaVuSans-72" x="665.921875"/>
     <use xlink:href="#DejaVuSans-69" x="707.035156"/>
     <use xlink:href="#DejaVuSans-73" x="734.818359"/>
     <use xlink:href="#DejaVuSans-6f" x="786.917969"/>
     <use xlink:href="#DejaVuSans-6e" x="848.099609"/>
    </g>
   </g>
   <g id="legend_1">
    <g id="patch_7">
     <path d="M 97 123.75625 
L 258.496875 123.75625 
Q 260.496875 123.75625 260.496875 121.75625 
L 260.496875 93.4 
Q 260.496875 91.4 258.496875 91.4 
L 97 91.4 
Q 95 91.4 95 93.4 
L 95 121.75625 
Q 95 123.75625 97 123.75625 
z
" style="fill: #ffffff; opacity: 0.8; stroke: #cccccc; stroke-linejoin: miter"/>
    </g>
    <g id="line2d_15">
     <path d="M 99 99.498437 
L 109 99.498437 
L 119 99.498437 
" style="fill: none; stroke: #1f77b4; stroke-width: 1.5; stroke-linecap: square"/>
     <g>
      <use xlink:href="#m3b8fa2d360" x="109" y="99.498437" style="fill: #1f77b4; stroke: #1f77b4"/>
     </g>
    </g>
    <g id="text_16">
     <!-- x error: heun and analytic -->
     <g transform="translate(127 102.998437) scale(0.1 -0.1)">
      <defs>
       <path id="DejaVuSans-78" d="M 3513 3500 
L 2247 1797 
L 3578 0 
L 2900 0 
L 1881 1375 
L 863 0 
L 184 0 
L 1544 1831 
L 300 3500 
L 978 3500 
L 1906 2253 
L 2834 3500 
L 3513 3500 
z
" transform="scale(0.015625)"/>
       <path id="DejaVuSans-3a" d="M 750 794 
L 1409 794 
L 1409 0 
L 750 0 
L 750 794 
z
M 750 3309 
L 1409 3309 
L 1409 2516 
L 750 2516 
L 750 3309 
z
" transform="scale(0.015625)"/>
       <path id="DejaVuSans-68" d="M 3513 2113 
L 3513 0 
L 2938 0 
L 2938 2094 
Q 2938 2591 2744 2837 
Q 2550 3084 2163 3084 
Q 1697 3084 1428 2787 
Q 1159 2491 1159 1978 
L 1159 0 
L 581 0 
L 581 4863 
L 1159 4863 
L 1159 2956 
Q 1366 3272 1645 3428 
Q 1925 3584 2291 3584 
Q 2894 3584 3203 3211 
Q 3513 2838 3513 2113 
z
" transform="scale(0.015625)"/>
       <path id="DejaVuSans-75" d="M 544 1381 
L 544 3500 
L 1119 3500 
L 1119 1403 
Q 1119 906 1312 657 
Q 1506 409 1894 409 
Q 2359 409 2629 706 
Q 2900 1003 2900 1516 
L 2900 3500 
L 3475 3500 
L 3475 0 
L 2900 0 
L 2900 538 
Q 2691 219 2414 64 
Q 2138 -91 1772 -91 
Q 1169 -91 856 284 
Q 544 659 544 1381 
z
M 1991 3584 
L 1991 3584 
z
" transform="scale(0.015625)"/>
       <path id="DejaVuSans-64" d="M 2906 2969 
L 2906 4863 
L 3481 4863 
L 3481 0 
L 2906 0 
L 2906 525 
Q 2725 213 2448 61 
Q 2172 -91 1784 -91 
Q 1150 -91 751 415 
Q 353 922 353 1747 
Q 353 2572 751 3078 
Q 1150 3584 1784 3584 
Q 2172 3584 2448 3432 
Q 2725 3281 2906 2969 
z
M 947 1747 
Q 947 1113 1208 752 
Q 1469 391 1925 391 
Q 2381 391 2643 752 
Q 2906 1113 2906 1747 
Q 2906 2381 2643 2742 
Q 2381 3103 1925 3103 
Q 1469 3103 1208 2742 
Q 947 2381 947 1747 
z
" transform="scale(0.015625)"/>
       <path id="DejaVuSans-79" d="M 2059 -325 
Q 1816 -950 1584 -1140 
Q 1353 -1331 966 -1331 
L 506 -1331 
L 506 -850 
L 844 -850 
Q 1081 -850 1212 -737 
Q 1344 -625 1503 -206 
L 1606 56 
L 191 3500 
L 800 3500 
L 1894 763 
L 2988 3500 
L 3597 3500 
L 2059 -325 
z
" transform="scale(0.015625)"/>
      </defs>
      <use xlink:href="#DejaVuSans-78"/>
      <use xlink:href="#DejaVuSans-20" x="59.179688"/>
      <use xlink:href="#DejaVuSans-65" x="90.966797"/>
      <use xlink:href="#DejaVuSans-72" x="152.490234"/>
      <use xlink:href="#DejaVuSans-72" x="191.853516"/>
      <use xlink:href="#DejaVuSans-6f" x="230.716797"/>
      <use xlink:href="#DejaVuSans-72" x="291.898438"/>
      <use xlink:href="#DejaVuSans-3a" x="331.261719"/>
      <use xlink:href="#DejaVuSans-20" x="364.953125"/>
      <use xlink:href="#DejaVuSans-68" x="396.740234"/>
      <use xlink:href="#DejaVuSans-65" x="460.119141"/>
      <use xlink:href="#DejaVuSans-75" x="521.642578"/>
      <use xlink:href="#DejaVuSans-6e" x="585.021484"/>
      <use xlink:href="#DejaVuSans-20" x="648.400391"/>
      <use xlink:href="#DejaVuSans-61" x="680.1875"/>
      <use xlink:href="#DejaVuSans-6e" x="741.466797"/>
      <use xlink:href="#DejaVuSans-64" x="804.845703"/>
      <use xlink:href="#DejaVuSans-20" x="868.322266"/>
      <use xlink:href="#DejaVuSans-61" x="900.109375"/>
      <use xlink:href="#DejaVuSans-6e" x="961.388672"/>
      <use xlink:href="#DejaVuSans-61" x="1024.767578"/>
      <use xlink:href="#DejaVuSans-6c" x="1086.046875"/>
      <use xlink:href="#DejaVuSans-79" x="1113.830078"/>
      <use xlink:href="#DejaVuSans-74" x="1173.009766"/>
      <use xlink:href="#DejaVuSans-69" x="1212.21875"/>
      <use xlink:href="#DejaVuSans-63" x="1240.001953"/>
     </g>
    </g>
    <g id="line2d_16">
     <path d="M 99 114.176562 
L 109 114.176562 
L 119 114.176562 
" style="fill: none; stroke: #ff7f0e; stroke-width: 1.5; stroke-linecap: square"/>
     <g>
      <use xlink:href="#m54299eeab6" x="109" y="114.176562" style="fill: #ff7f0e; stroke: #ff7f0e"/>
     </g>
    </g>
    <g id="text_17">
     <!-- v error: heun and analytic -->
     <g transform="translate(127 117.676562) scale(0.1 -0.1)">
      <defs>
       <path id="DejaVuSans-76" d="M 191 3500 
L 800 3500 
L 1894 563 
L 2988 3500 
L 3597 3500 
L 2284 0 
L 1503 0 
L 191 3500 
z
" transform="scale(0.015625)"/>
      </defs>
      <use xlink:href="#DejaVuSans-76"/>
      <use xlink:href="#DejaVuSans-20" x="59.179688"/>
      <use xlink:href="#DejaVuSans-65" x="90.966797"/>
      <use xlink:href="#DejaVuSans-72" x="152.490234"/>
      <use xlink:href="#DejaVuSans-72" x="191.853516"/>
      <use xlink:href="#DejaVuSans-6f" x="230.716797"/>
      <use xlink:href="#DejaVuSans-72" x="291.898438"/>
      <use xlink:href="#DejaVuSans-3a" x="331.261719"/>
      <use xlink:href="#DejaVuSans-20" x="364.953125"/>
      <use xlink:href="#DejaVuSans-68" x="396.740234"/>
      <use xlink:href="#DejaVuSans-65" x="460.119141"/>
      <use xlink:href="#DejaVuSans-75" x="521.642578"/>
      <use xlink:href="#DejaVuSans-6e" x="585.021484"/>
      <use xlink:href="#DejaVuSans-20" x="648.400391"/>
      <use xlink:href="#DejaVuSans-61" x="680.1875"/>
      <use xlink:href="#DejaVuSans-6e" x="741.466797"/>
      <use xlink:href="#DejaVuSans-64" x="804.845703"/>
      <use xlink:href="#DejaVuSans-20" x="868.322266"/>
      <use xlink:href="#DejaVuSans-61" x="900.109375"/>
      <use xlink:href="#DejaVuSans-6e" x="961.388672"/>
      <use xlink:href="#DejaVuSans-61" x="1024.767578"/>
      <use xlink:href="#DejaVuSans-6c" x="1086.046875"/>
      <use xlink:href="#DejaVuSans-79" x="1113.830078"/>
      <use xlink:href="#DejaVuSans-74" x="1173.009766"/>
      <use xlink:href="#DejaVuSans-69" x="1212.21875"/>
      <use xlink:href="#DejaVuSans-63" x="1240.001953"/>
     </g>
    </g>
   </g>
  </g>
 </g>
 <defs>
  <clipPath id="p65cb4425a6">
   <rect x="90" y="86.4" width="558" height="554.4"/>
  </clipPath>
 </defs>
</svg>
